<svg width="813" height="497" viewBox="0 0 813 497" fill="none" xmlns="http://www.w3.org/2000/svg">
<path d="M352.367 208.227H418.816V212.038H352.367V208.227Z" stroke="white" stroke-opacity="0.66" stroke-miterlimit="10"/>
<path d="M346.317 266.502H425.426V270.313H346.317V266.502Z" stroke="white" stroke-opacity="0.66" stroke-miterlimit="10"/>
<path d="M366.21 114.042H404.973V207.724H366.21V114.042Z" stroke="white" stroke-opacity="0.66" stroke-miterlimit="10"/>
<path d="M387.824 85.842H383.359C378.811 85.842 374.449 87.6642 371.233 90.9076C368.017 94.151 366.21 98.5501 366.21 103.137V114.193H404.973V103.137C404.973 98.5501 403.166 94.151 399.95 90.9076C396.734 87.6642 392.372 85.842 387.824 85.842Z" stroke="white" stroke-opacity="0.66" stroke-miterlimit="10"/>
<path d="M386.727 85.842H384.457C382.142 85.842 379.921 86.7697 378.284 88.4209C376.647 90.0721 375.727 92.3116 375.727 94.6467V114.231H395.407V94.6467C395.407 92.3203 394.494 90.0884 392.868 88.4386C391.241 86.7888 389.034 85.8553 386.727 85.842V85.842Z" stroke="white" stroke-opacity="0.66" stroke-miterlimit="10"/>
<path d="M366.21 136.381H404.973V140.444H366.21V136.381Z" stroke="white" stroke-opacity="0.66" stroke-miterlimit="10"/>
<path d="M352.367 199.083H418.816V207.963H352.367V199.083Z" stroke="white" stroke-opacity="0.66" stroke-miterlimit="10"/>
<path d="M354.824 212.026H416.359V266.602H354.824V212.026Z" stroke="white" stroke-opacity="0.66" stroke-miterlimit="10"/>
<path d="M354.824 270.426H416.359V475.047H354.824V270.426Z" stroke="white" stroke-opacity="0.66" stroke-miterlimit="10"/>
<path d="M402.453 220.151H409.001V229.296H402.453V220.151Z" stroke="white" stroke-opacity="0.66" stroke-miterlimit="10"/>
<path d="M383.321 220.151H389.869V229.296H383.321V220.151Z" stroke="white" stroke-opacity="0.66" stroke-miterlimit="10"/>
<path d="M364.19 220.151H370.737V229.296H364.19V220.151Z" stroke="white" stroke-opacity="0.66" stroke-miterlimit="10"/>
<path d="M402.453 246.05H409.001V255.194H402.453V246.05Z" stroke="white" stroke-opacity="0.66" stroke-miterlimit="10"/>
<path d="M402.453 273.722H409.001V282.866H402.453V273.722Z" stroke="white" stroke-opacity="0.66" stroke-miterlimit="10"/>
<path d="M383.321 246.05H389.869V255.194H383.321V246.05Z" stroke="white" stroke-opacity="0.66" stroke-miterlimit="10"/>
<path d="M383.321 273.722H389.869V282.866H383.321V273.722Z" stroke="white" stroke-opacity="0.66" stroke-miterlimit="10"/>
<path d="M364.19 246.05H370.737V255.194H364.19V246.05Z" stroke="white" stroke-opacity="0.66" stroke-miterlimit="10"/>
<path d="M364.19 273.722H370.737V282.866H364.19V273.722Z" stroke="white" stroke-opacity="0.66" stroke-miterlimit="10"/>
<path d="M402.453 294.287H409.001V303.431H402.453V294.287Z" stroke="white" stroke-opacity="0.66" stroke-miterlimit="10"/>
<path d="M383.321 294.287H389.869V303.431H383.321V294.287Z" stroke="white" stroke-opacity="0.66" stroke-miterlimit="10"/>
<path d="M364.19 294.287H370.737V303.431H364.19V294.287Z" stroke="white" stroke-opacity="0.66" stroke-miterlimit="10"/>
<path d="M402.453 314.852H409.001V323.996H402.453V314.852Z" stroke="white" stroke-opacity="0.66" stroke-miterlimit="10"/>
<path d="M383.321 314.852H389.869V323.996H383.321V314.852Z" stroke="white" stroke-opacity="0.66" stroke-miterlimit="10"/>
<path d="M364.19 314.852H370.737V323.996H364.19V314.852Z" stroke="white" stroke-opacity="0.66" stroke-miterlimit="10"/>
<path d="M402.453 335.417H409.001V344.562H402.453V335.417Z" stroke="white" stroke-opacity="0.66" stroke-miterlimit="10"/>
<path d="M383.321 335.417H389.869V344.562H383.321V335.417Z" stroke="white" stroke-opacity="0.66" stroke-miterlimit="10"/>
<path d="M364.19 335.417H370.737V344.562H364.19V335.417Z" stroke="white" stroke-opacity="0.66" stroke-miterlimit="10"/>
<path d="M402.453 355.97H409.001V365.114H402.453V355.97Z" stroke="white" stroke-opacity="0.66" stroke-miterlimit="10"/>
<path d="M383.321 355.97H389.869V365.114H383.321V355.97Z" stroke="white" stroke-opacity="0.66" stroke-miterlimit="10"/>
<path d="M364.19 355.97H370.737V365.114H364.19V355.97Z" stroke="white" stroke-opacity="0.66" stroke-miterlimit="10"/>
<path d="M402.453 376.535H409.001V385.68H402.453V376.535Z" stroke="white" stroke-opacity="0.66" stroke-miterlimit="10"/>
<path d="M383.321 376.535H389.869V385.68H383.321V376.535Z" stroke="white" stroke-opacity="0.66" stroke-miterlimit="10"/>
<path d="M364.19 376.535H370.737V385.68H364.19V376.535Z" stroke="white" stroke-opacity="0.66" stroke-miterlimit="10"/>
<path d="M402.453 397.101H409.001V406.245H402.453V397.101Z" stroke="white" stroke-opacity="0.66" stroke-miterlimit="10"/>
<path d="M383.321 397.101H389.869V406.245H383.321V397.101Z" stroke="white" stroke-opacity="0.66" stroke-miterlimit="10"/>
<path d="M364.19 397.101H370.737V406.245H364.19V397.101Z" stroke="white" stroke-opacity="0.66" stroke-miterlimit="10"/>
<path d="M402.453 417.666H409.001V426.81H402.453V417.666Z" stroke="white" stroke-opacity="0.66" stroke-miterlimit="10"/>
<path d="M383.321 417.666H389.869V426.81H383.321V417.666Z" stroke="white" stroke-opacity="0.66" stroke-miterlimit="10"/>
<path d="M364.19 417.666H370.737V426.81H364.19V417.666Z" stroke="white" stroke-opacity="0.66" stroke-miterlimit="10"/>
<path d="M402.453 438.231H409.001V447.375H402.453V438.231Z" stroke="white" stroke-opacity="0.66" stroke-miterlimit="10"/>
<path d="M383.321 438.231H389.869V447.375H383.321V438.231Z" stroke="white" stroke-opacity="0.66" stroke-miterlimit="10"/>
<path d="M364.19 438.231H370.737V447.375H364.19V438.231Z" stroke="white" stroke-opacity="0.66" stroke-miterlimit="10"/>
<path d="M416.359 244.528H425.114V266.615H416.359V244.528Z" stroke="white" stroke-opacity="0.66" stroke-miterlimit="10"/>
<path d="M418.567 248.075H422.907V266.602H418.567V248.075Z" stroke="white" stroke-opacity="0.66" stroke-miterlimit="10"/>
<path d="M348.588 248.075H352.928V266.602H348.588V248.075Z" stroke="white" stroke-opacity="0.66" stroke-miterlimit="10"/>
<path d="M420.924 234.692L426.586 244.591H415.249L420.924 234.692Z" stroke="white" stroke-opacity="0.66" stroke-miterlimit="10"/>
<path d="M413.254 195.762H419.065V207.724H413.254V195.762Z" stroke="white" stroke-opacity="0.66" stroke-miterlimit="10"/>
<path d="M416.284 179.537L420.038 195.788H412.53L416.284 179.537Z" stroke="white" stroke-opacity="0.66" stroke-miterlimit="10"/>
<path d="M398.15 195.762H403.962V207.724H398.15V195.762Z" stroke="white" stroke-opacity="0.66" stroke-miterlimit="10"/>
<path d="M401.181 179.537L404.947 195.788H397.427L401.181 179.537Z" stroke="white" stroke-opacity="0.66" stroke-miterlimit="10"/>
<path d="M383.048 195.762H388.859V207.724H383.048V195.762Z" stroke="white" stroke-opacity="0.66" stroke-miterlimit="10"/>
<path d="M386.078 179.537L389.845 195.788H382.324L386.078 179.537Z" stroke="white" stroke-opacity="0.66" stroke-miterlimit="10"/>
<path d="M367.944 195.762H373.756V207.724H367.944V195.762Z" stroke="white" stroke-opacity="0.66" stroke-miterlimit="10"/>
<path d="M370.975 179.537L374.729 195.788H367.221L370.975 179.537Z" stroke="white" stroke-opacity="0.66" stroke-miterlimit="10"/>
<path d="M352.84 195.762H358.652V207.724H352.84V195.762Z" stroke="white" stroke-opacity="0.66" stroke-miterlimit="10"/>
<path d="M355.871 179.537L359.625 195.788H352.117L355.871 179.537Z" stroke="white" stroke-opacity="0.66" stroke-miterlimit="10"/>
<path d="M346.381 244.528H355.136V266.615H346.381V244.528Z" stroke="white" stroke-opacity="0.66" stroke-miterlimit="10"/>
<path d="M350.945 234.692L356.607 244.591H345.271L350.945 234.692Z" stroke="white" stroke-opacity="0.66" stroke-miterlimit="10"/>
<path d="M394.908 114.017V136.494" stroke="white" stroke-opacity="0.66" stroke-miterlimit="10"/>
<path d="M391.378 114.017V136.494" stroke="white" stroke-opacity="0.66" stroke-miterlimit="10"/>
<path d="M394.908 140.419V207.712" stroke="white" stroke-opacity="0.66" stroke-miterlimit="10"/>
<path d="M391.378 140.419V207.712" stroke="white" stroke-opacity="0.66" stroke-miterlimit="10"/>
<path d="M379.805 114.017V136.494" stroke="white" stroke-opacity="0.66" stroke-miterlimit="10"/>
<path d="M376.275 114.017V136.494" stroke="white" stroke-opacity="0.66" stroke-miterlimit="10"/>
<path d="M379.805 140.419V207.712" stroke="white" stroke-opacity="0.66" stroke-miterlimit="10"/>
<path d="M376.275 140.419V207.712" stroke="white" stroke-opacity="0.66" stroke-miterlimit="10"/>
<path d="M381.812 76.2073H389.744V86.1063H381.812V76.2073Z" stroke="white" stroke-opacity="0.66" stroke-miterlimit="10"/>
<path d="M386.24 66.5598H385.329C384.4 66.5598 383.508 66.9322 382.851 67.595C382.194 68.2579 381.825 69.1569 381.825 70.0943V74.1696H389.744V70.0943C389.744 69.1569 389.375 68.2579 388.718 67.595C388.06 66.9322 387.169 66.5598 386.24 66.5598V66.5598Z" stroke="white" stroke-opacity="0.66" stroke-miterlimit="10"/>
<path d="M381.812 74.3834H389.744V76.2324H381.812V74.3834Z" stroke="white" stroke-opacity="0.66" stroke-miterlimit="10"/>
<path d="M385.778 66.5599V47.8436" stroke="white" stroke-opacity="0.66" stroke-miterlimit="10"/>
<path d="M392.201 55.8433H379.43" stroke="white" stroke-opacity="0.66" stroke-miterlimit="10"/>
<path d="M384.119 55.6546C384.119 55.3163 384.219 54.9855 384.405 54.7042C384.592 54.4229 384.857 54.2037 385.166 54.0742C385.476 53.9447 385.817 53.9108 386.146 53.9768C386.475 54.0428 386.778 54.2058 387.015 54.445C387.252 54.6842 387.414 54.989 387.479 55.3209C387.545 55.6527 387.511 55.9966 387.383 56.3092C387.254 56.6218 387.037 56.889 386.758 57.0769C386.479 57.2649 386.151 57.3652 385.816 57.3652C385.367 57.3619 384.937 57.1806 384.62 56.8606C384.302 56.5405 384.123 56.1073 384.119 55.6546V55.6546Z" stroke="white" stroke-opacity="0.66" stroke-miterlimit="10"/>
<path d="M416.359 258.112H355.385" stroke="white" stroke-opacity="0.66" stroke-miterlimit="10"/>
<path d="M540.429 425.301V344.071H530.389V212.001H521.596V102.609L515.947 102.584V74.7356H501.504V64.3838H495.942H491.801H481.362V74.7356H466.608V102.584L460.821 102.609V212.001H451.842V344.071H441.565V405.465" stroke="white" stroke-opacity="0.66" stroke-miterlimit="10"/>
<path d="M501.517 74.7356V210.844" stroke="white" stroke-opacity="0.66" stroke-miterlimit="10"/>
<path d="M481.362 74.7356V209.762" stroke="white" stroke-opacity="0.66" stroke-miterlimit="10"/>
<path d="M512.854 210.844H465.635" stroke="white" stroke-opacity="0.66" stroke-miterlimit="10"/>
<path d="M525.736 345.04H457.054" stroke="white" stroke-opacity="0.66" stroke-miterlimit="10"/>
<path d="M509.636 221.673H471.011" stroke="white" stroke-opacity="0.66" stroke-miterlimit="10"/>
<path d="M509.636 231.409H471.011" stroke="white" stroke-opacity="0.66" stroke-miterlimit="10"/>
<path d="M509.636 241.157H471.011" stroke="white" stroke-opacity="0.66" stroke-miterlimit="10"/>
<path d="M509.636 250.892H471.011" stroke="white" stroke-opacity="0.66" stroke-miterlimit="10"/>
<path d="M509.636 260.628H471.011" stroke="white" stroke-opacity="0.66" stroke-miterlimit="10"/>
<path d="M509.636 270.376H471.011" stroke="white" stroke-opacity="0.66" stroke-miterlimit="10"/>
<path d="M509.636 280.111H471.011" stroke="white" stroke-opacity="0.66" stroke-miterlimit="10"/>
<path d="M509.636 289.847H471.011" stroke="white" stroke-opacity="0.66" stroke-miterlimit="10"/>
<path d="M509.636 299.595H471.011" stroke="white" stroke-opacity="0.66" stroke-miterlimit="10"/>
<path d="M509.636 309.33H471.011" stroke="white" stroke-opacity="0.66" stroke-miterlimit="10"/>
<path d="M509.636 319.078H471.011" stroke="white" stroke-opacity="0.66" stroke-miterlimit="10"/>
<path d="M509.636 328.814H471.011" stroke="white" stroke-opacity="0.66" stroke-miterlimit="10"/>
<path d="M509.636 338.549H471.011" stroke="white" stroke-opacity="0.66" stroke-miterlimit="10"/>
<path d="M509.636 353.706H471.011" stroke="white" stroke-opacity="0.66" stroke-miterlimit="10"/>
<path d="M509.636 363.441H471.011" stroke="white" stroke-opacity="0.66" stroke-miterlimit="10"/>
<path d="M509.636 373.189H471.011" stroke="white" stroke-opacity="0.66" stroke-miterlimit="10"/>
<path d="M509.636 382.925H471.011" stroke="white" stroke-opacity="0.66" stroke-miterlimit="10"/>
<path d="M509.636 392.66H471.011" stroke="white" stroke-opacity="0.66" stroke-miterlimit="10"/>
<path d="M509.636 402.408H471.011" stroke="white" stroke-opacity="0.66" stroke-miterlimit="10"/>
<path d="M509.636 412.144H477.446" stroke="white" stroke-opacity="0.66" stroke-miterlimit="10"/>
<path d="M509.636 421.879H477.446" stroke="white" stroke-opacity="0.66" stroke-miterlimit="10"/>
<path d="M509.636 431.627H477.446" stroke="white" stroke-opacity="0.66" stroke-miterlimit="10"/>
<path d="M509.636 441.363H477.446" stroke="white" stroke-opacity="0.66" stroke-miterlimit="10"/>
<path d="M509.636 451.111H477.446" stroke="white" stroke-opacity="0.66" stroke-miterlimit="10"/>
<path d="M515.522 221.673H522.531" stroke="white" stroke-opacity="0.66" stroke-miterlimit="10"/>
<path d="M515.522 231.409H522.531" stroke="white" stroke-opacity="0.66" stroke-miterlimit="10"/>
<path d="M515.522 241.157H522.531" stroke="white" stroke-opacity="0.66" stroke-miterlimit="10"/>
<path d="M515.522 250.892H522.531" stroke="white" stroke-opacity="0.66" stroke-miterlimit="10"/>
<path d="M515.522 260.628H522.531" stroke="white" stroke-opacity="0.66" stroke-miterlimit="10"/>
<path d="M515.522 270.376H522.531" stroke="white" stroke-opacity="0.66" stroke-miterlimit="10"/>
<path d="M515.522 280.111H522.531" stroke="white" stroke-opacity="0.66" stroke-miterlimit="10"/>
<path d="M515.522 289.847H522.531" stroke="white" stroke-opacity="0.66" stroke-miterlimit="10"/>
<path d="M515.522 299.595H522.531" stroke="white" stroke-opacity="0.66" stroke-miterlimit="10"/>
<path d="M515.522 309.33H522.531" stroke="white" stroke-opacity="0.66" stroke-miterlimit="10"/>
<path d="M515.522 319.078H522.531" stroke="white" stroke-opacity="0.66" stroke-miterlimit="10"/>
<path d="M515.522 328.814H522.531" stroke="white" stroke-opacity="0.66" stroke-miterlimit="10"/>
<path d="M515.522 338.549H522.531" stroke="white" stroke-opacity="0.66" stroke-miterlimit="10"/>
<path d="M458.128 221.673H465.137" stroke="white" stroke-opacity="0.66" stroke-miterlimit="10"/>
<path d="M458.128 231.409H465.137" stroke="white" stroke-opacity="0.66" stroke-miterlimit="10"/>
<path d="M458.128 241.157H465.137" stroke="white" stroke-opacity="0.66" stroke-miterlimit="10"/>
<path d="M458.128 250.892H465.137" stroke="white" stroke-opacity="0.66" stroke-miterlimit="10"/>
<path d="M458.128 260.628H465.137" stroke="white" stroke-opacity="0.66" stroke-miterlimit="10"/>
<path d="M458.128 270.376H465.137" stroke="white" stroke-opacity="0.66" stroke-miterlimit="10"/>
<path d="M458.128 280.111H465.137" stroke="white" stroke-opacity="0.66" stroke-miterlimit="10"/>
<path d="M458.128 289.847H465.137" stroke="white" stroke-opacity="0.66" stroke-miterlimit="10"/>
<path d="M458.128 299.595H465.137" stroke="white" stroke-opacity="0.66" stroke-miterlimit="10"/>
<path d="M458.128 309.33H465.137" stroke="white" stroke-opacity="0.66" stroke-miterlimit="10"/>
<path d="M458.128 319.078H465.137" stroke="white" stroke-opacity="0.66" stroke-miterlimit="10"/>
<path d="M458.128 328.814H465.137" stroke="white" stroke-opacity="0.66" stroke-miterlimit="10"/>
<path d="M458.128 338.549H465.137" stroke="white" stroke-opacity="0.66" stroke-miterlimit="10"/>
<path d="M515.522 353.706H522.531" stroke="white" stroke-opacity="0.66" stroke-miterlimit="10"/>
<path d="M515.522 363.441H522.531" stroke="white" stroke-opacity="0.66" stroke-miterlimit="10"/>
<path d="M515.522 373.189H522.531" stroke="white" stroke-opacity="0.66" stroke-miterlimit="10"/>
<path d="M515.522 382.925H522.531" stroke="white" stroke-opacity="0.66" stroke-miterlimit="10"/>
<path d="M515.522 392.66H522.531" stroke="white" stroke-opacity="0.66" stroke-miterlimit="10"/>
<path d="M515.522 402.408H522.531" stroke="white" stroke-opacity="0.66" stroke-miterlimit="10"/>
<path d="M515.522 412.144H522.531" stroke="white" stroke-opacity="0.66" stroke-miterlimit="10"/>
<path d="M515.522 421.879H522.531" stroke="white" stroke-opacity="0.66" stroke-miterlimit="10"/>
<path d="M515.522 431.627H522.531" stroke="white" stroke-opacity="0.66" stroke-miterlimit="10"/>
<path d="M515.522 441.363H522.531" stroke="white" stroke-opacity="0.66" stroke-miterlimit="10"/>
<path d="M515.522 451.111H522.531" stroke="white" stroke-opacity="0.66" stroke-miterlimit="10"/>
<path d="M530.526 353.706H537.535" stroke="white" stroke-opacity="0.66" stroke-miterlimit="10"/>
<path d="M530.526 363.441H537.535" stroke="white" stroke-opacity="0.66" stroke-miterlimit="10"/>
<path d="M530.526 373.189H537.535" stroke="white" stroke-opacity="0.66" stroke-miterlimit="10"/>
<path d="M530.526 382.925H537.535" stroke="white" stroke-opacity="0.66" stroke-miterlimit="10"/>
<path d="M530.526 392.66H537.535" stroke="white" stroke-opacity="0.66" stroke-miterlimit="10"/>
<path d="M530.526 402.408H537.535" stroke="white" stroke-opacity="0.66" stroke-miterlimit="10"/>
<path d="M530.526 412.144H537.535" stroke="white" stroke-opacity="0.66" stroke-miterlimit="10"/>
<path d="M530.526 421.879H537.535" stroke="white" stroke-opacity="0.66" stroke-miterlimit="10"/>
<path d="M458.128 353.706H465.137" stroke="white" stroke-opacity="0.66" stroke-miterlimit="10"/>
<path d="M458.128 363.441H465.137" stroke="white" stroke-opacity="0.66" stroke-miterlimit="10"/>
<path d="M458.128 373.189H465.137" stroke="white" stroke-opacity="0.66" stroke-miterlimit="10"/>
<path d="M458.128 382.925H465.137" stroke="white" stroke-opacity="0.66" stroke-miterlimit="10"/>
<path d="M458.128 392.66H465.137" stroke="white" stroke-opacity="0.66" stroke-miterlimit="10"/>
<path d="M458.128 402.408H465.137" stroke="white" stroke-opacity="0.66" stroke-miterlimit="10"/>
<path d="M445.256 353.706H452.266" stroke="white" stroke-opacity="0.66" stroke-miterlimit="10"/>
<path d="M445.256 363.441H452.266" stroke="white" stroke-opacity="0.66" stroke-miterlimit="10"/>
<path d="M445.256 373.189H452.266" stroke="white" stroke-opacity="0.66" stroke-miterlimit="10"/>
<path d="M445.256 382.925H452.266" stroke="white" stroke-opacity="0.66" stroke-miterlimit="10"/>
<path d="M445.256 392.66H452.266" stroke="white" stroke-opacity="0.66" stroke-miterlimit="10"/>
<path d="M445.256 402.408H452.266" stroke="white" stroke-opacity="0.66" stroke-miterlimit="10"/>
<path d="M517.144 119.941H505.345" stroke="white" stroke-opacity="0.66" stroke-miterlimit="10"/>
<path d="M517.144 128.595H505.345" stroke="white" stroke-opacity="0.66" stroke-miterlimit="10"/>
<path d="M517.144 137.261H505.345" stroke="white" stroke-opacity="0.66" stroke-miterlimit="10"/>
<path d="M517.144 145.915H505.345" stroke="white" stroke-opacity="0.66" stroke-miterlimit="10"/>
<path d="M517.144 154.569H505.345" stroke="white" stroke-opacity="0.66" stroke-miterlimit="10"/>
<path d="M517.144 163.235H505.345" stroke="white" stroke-opacity="0.66" stroke-miterlimit="10"/>
<path d="M517.144 171.889H505.345" stroke="white" stroke-opacity="0.66" stroke-miterlimit="10"/>
<path d="M517.144 180.543H505.345" stroke="white" stroke-opacity="0.66" stroke-miterlimit="10"/>
<path d="M517.144 189.209H505.345" stroke="white" stroke-opacity="0.66" stroke-miterlimit="10"/>
<path d="M517.144 197.863H505.345" stroke="white" stroke-opacity="0.66" stroke-miterlimit="10"/>
<path d="M517.144 206.517H505.345" stroke="white" stroke-opacity="0.66" stroke-miterlimit="10"/>
<path d="M479.591 119.941H467.78" stroke="white" stroke-opacity="0.66" stroke-miterlimit="10"/>
<path d="M479.591 128.595H467.78" stroke="white" stroke-opacity="0.66" stroke-miterlimit="10"/>
<path d="M479.591 137.261H467.78" stroke="white" stroke-opacity="0.66" stroke-miterlimit="10"/>
<path d="M479.591 145.915H467.78" stroke="white" stroke-opacity="0.66" stroke-miterlimit="10"/>
<path d="M479.591 154.569H467.78" stroke="white" stroke-opacity="0.66" stroke-miterlimit="10"/>
<path d="M479.591 163.235H467.78" stroke="white" stroke-opacity="0.66" stroke-miterlimit="10"/>
<path d="M479.591 171.889H467.78" stroke="white" stroke-opacity="0.66" stroke-miterlimit="10"/>
<path d="M479.591 180.543H467.78" stroke="white" stroke-opacity="0.66" stroke-miterlimit="10"/>
<path d="M479.591 189.209H467.78" stroke="white" stroke-opacity="0.66" stroke-miterlimit="10"/>
<path d="M479.591 197.863H467.78" stroke="white" stroke-opacity="0.66" stroke-miterlimit="10"/>
<path d="M479.591 206.517H467.78" stroke="white" stroke-opacity="0.66" stroke-miterlimit="10"/>
<path d="M681.334 473.55V344.071H667.216V212.001H654.869V102.609L646.937 102.584V74.7356H626.658V64.3838H618.825H613.014H598.359V74.7356H577.606V102.584L569.487 102.609V212.001H556.866V344.071H542.436V425.301" stroke="white" stroke-opacity="0.66" stroke-miterlimit="10"/>
<path d="M626.658 74.7356V210.844" stroke="white" stroke-opacity="0.66" stroke-miterlimit="10"/>
<path d="M598.359 74.7356V209.762" stroke="white" stroke-opacity="0.66" stroke-miterlimit="10"/>
<path d="M642.597 210.844H576.259" stroke="white" stroke-opacity="0.66" stroke-miterlimit="10"/>
<path d="M660.682 345.04H564.2" stroke="white" stroke-opacity="0.66" stroke-miterlimit="10"/>
<path d="M638.07 221.673H583.793" stroke="white" stroke-opacity="0.66" stroke-miterlimit="10"/>
<path d="M638.07 231.409H583.793" stroke="white" stroke-opacity="0.66" stroke-miterlimit="10"/>
<path d="M638.07 241.157H583.793" stroke="white" stroke-opacity="0.66" stroke-miterlimit="10"/>
<path d="M638.07 250.892H583.793" stroke="white" stroke-opacity="0.66" stroke-miterlimit="10"/>
<path d="M638.07 260.628H583.793" stroke="white" stroke-opacity="0.66" stroke-miterlimit="10"/>
<path d="M638.07 270.376H583.793" stroke="white" stroke-opacity="0.66" stroke-miterlimit="10"/>
<path d="M638.07 280.111H583.793" stroke="white" stroke-opacity="0.66" stroke-miterlimit="10"/>
<path d="M638.07 289.847H583.793" stroke="white" stroke-opacity="0.66" stroke-miterlimit="10"/>
<path d="M638.07 299.595H583.793" stroke="white" stroke-opacity="0.66" stroke-miterlimit="10"/>
<path d="M638.07 309.33H583.793" stroke="white" stroke-opacity="0.66" stroke-miterlimit="10"/>
<path d="M638.07 319.078H583.793" stroke="white" stroke-opacity="0.66" stroke-miterlimit="10"/>
<path d="M638.07 328.814H583.793" stroke="white" stroke-opacity="0.66" stroke-miterlimit="10"/>
<path d="M638.07 338.549H583.793" stroke="white" stroke-opacity="0.66" stroke-miterlimit="10"/>
<path d="M638.07 353.706H583.793" stroke="white" stroke-opacity="0.66" stroke-miterlimit="10"/>
<path d="M638.07 363.441H583.793" stroke="white" stroke-opacity="0.66" stroke-miterlimit="10"/>
<path d="M638.07 373.189H583.793" stroke="white" stroke-opacity="0.66" stroke-miterlimit="10"/>
<path d="M638.07 382.925H583.793" stroke="white" stroke-opacity="0.66" stroke-miterlimit="10"/>
<path d="M638.07 392.66H583.793" stroke="white" stroke-opacity="0.66" stroke-miterlimit="10"/>
<path d="M638.07 402.408H583.793" stroke="white" stroke-opacity="0.66" stroke-miterlimit="10"/>
<path d="M638.07 412.144H583.793" stroke="white" stroke-opacity="0.66" stroke-miterlimit="10"/>
<path d="M638.07 421.879H583.793" stroke="white" stroke-opacity="0.66" stroke-miterlimit="10"/>
<path d="M646.339 221.673H656.191" stroke="white" stroke-opacity="0.66" stroke-miterlimit="10"/>
<path d="M646.339 231.409H656.191" stroke="white" stroke-opacity="0.66" stroke-miterlimit="10"/>
<path d="M646.339 241.157H656.191" stroke="white" stroke-opacity="0.66" stroke-miterlimit="10"/>
<path d="M646.339 250.892H656.191" stroke="white" stroke-opacity="0.66" stroke-miterlimit="10"/>
<path d="M646.339 260.628H656.191" stroke="white" stroke-opacity="0.66" stroke-miterlimit="10"/>
<path d="M646.339 270.376H656.191" stroke="white" stroke-opacity="0.66" stroke-miterlimit="10"/>
<path d="M646.339 280.111H656.191" stroke="white" stroke-opacity="0.66" stroke-miterlimit="10"/>
<path d="M646.339 289.847H656.191" stroke="white" stroke-opacity="0.66" stroke-miterlimit="10"/>
<path d="M646.339 299.595H656.191" stroke="white" stroke-opacity="0.66" stroke-miterlimit="10"/>
<path d="M646.339 309.33H656.191" stroke="white" stroke-opacity="0.66" stroke-miterlimit="10"/>
<path d="M646.339 319.078H656.191" stroke="white" stroke-opacity="0.66" stroke-miterlimit="10"/>
<path d="M646.339 328.814H656.191" stroke="white" stroke-opacity="0.66" stroke-miterlimit="10"/>
<path d="M646.339 338.549H656.191" stroke="white" stroke-opacity="0.66" stroke-miterlimit="10"/>
<path d="M565.709 221.673H575.549" stroke="white" stroke-opacity="0.66" stroke-miterlimit="10"/>
<path d="M565.709 231.409H575.549" stroke="white" stroke-opacity="0.66" stroke-miterlimit="10"/>
<path d="M565.709 241.157H575.549" stroke="white" stroke-opacity="0.66" stroke-miterlimit="10"/>
<path d="M565.709 250.892H575.549" stroke="white" stroke-opacity="0.66" stroke-miterlimit="10"/>
<path d="M565.709 260.628H575.549" stroke="white" stroke-opacity="0.66" stroke-miterlimit="10"/>
<path d="M565.709 270.376H575.549" stroke="white" stroke-opacity="0.66" stroke-miterlimit="10"/>
<path d="M565.709 280.111H575.549" stroke="white" stroke-opacity="0.66" stroke-miterlimit="10"/>
<path d="M565.709 289.847H575.549" stroke="white" stroke-opacity="0.66" stroke-miterlimit="10"/>
<path d="M565.709 299.595H575.549" stroke="white" stroke-opacity="0.66" stroke-miterlimit="10"/>
<path d="M565.709 309.33H575.549" stroke="white" stroke-opacity="0.66" stroke-miterlimit="10"/>
<path d="M565.709 319.078H575.549" stroke="white" stroke-opacity="0.66" stroke-miterlimit="10"/>
<path d="M565.709 328.814H575.549" stroke="white" stroke-opacity="0.66" stroke-miterlimit="10"/>
<path d="M565.709 338.549H575.549" stroke="white" stroke-opacity="0.66" stroke-miterlimit="10"/>
<path d="M646.339 353.706H656.191" stroke="white" stroke-opacity="0.66" stroke-miterlimit="10"/>
<path d="M646.339 363.441H656.191" stroke="white" stroke-opacity="0.66" stroke-miterlimit="10"/>
<path d="M646.339 373.189H656.191" stroke="white" stroke-opacity="0.66" stroke-miterlimit="10"/>
<path d="M646.339 382.925H656.191" stroke="white" stroke-opacity="0.66" stroke-miterlimit="10"/>
<path d="M646.339 392.66H656.191" stroke="white" stroke-opacity="0.66" stroke-miterlimit="10"/>
<path d="M646.339 402.408H656.191" stroke="white" stroke-opacity="0.66" stroke-miterlimit="10"/>
<path d="M646.339 412.144H656.191" stroke="white" stroke-opacity="0.66" stroke-miterlimit="10"/>
<path d="M646.339 421.879H656.191" stroke="white" stroke-opacity="0.66" stroke-miterlimit="10"/>
<path d="M646.339 431.627H656.191" stroke="white" stroke-opacity="0.66" stroke-miterlimit="10"/>
<path d="M646.339 441.363H656.191" stroke="white" stroke-opacity="0.66" stroke-miterlimit="10"/>
<path d="M646.339 451.111H656.191" stroke="white" stroke-opacity="0.66" stroke-miterlimit="10"/>
<path d="M646.339 460.847H656.191" stroke="white" stroke-opacity="0.66" stroke-miterlimit="10"/>
<path d="M646.339 470.582H656.191" stroke="white" stroke-opacity="0.66" stroke-miterlimit="10"/>
<path d="M667.416 353.706H677.269" stroke="white" stroke-opacity="0.66" stroke-miterlimit="10"/>
<path d="M667.416 363.441H677.269" stroke="white" stroke-opacity="0.66" stroke-miterlimit="10"/>
<path d="M667.416 373.189H677.269" stroke="white" stroke-opacity="0.66" stroke-miterlimit="10"/>
<path d="M667.416 382.925H677.269" stroke="white" stroke-opacity="0.66" stroke-miterlimit="10"/>
<path d="M667.416 392.66H677.269" stroke="white" stroke-opacity="0.66" stroke-miterlimit="10"/>
<path d="M667.416 402.408H677.269" stroke="white" stroke-opacity="0.66" stroke-miterlimit="10"/>
<path d="M667.416 412.144H677.269" stroke="white" stroke-opacity="0.66" stroke-miterlimit="10"/>
<path d="M667.416 421.879H677.269" stroke="white" stroke-opacity="0.66" stroke-miterlimit="10"/>
<path d="M667.416 431.627H677.269" stroke="white" stroke-opacity="0.66" stroke-miterlimit="10"/>
<path d="M667.416 441.363H677.269" stroke="white" stroke-opacity="0.66" stroke-miterlimit="10"/>
<path d="M667.416 451.111H677.269" stroke="white" stroke-opacity="0.66" stroke-miterlimit="10"/>
<path d="M667.416 460.847H677.269" stroke="white" stroke-opacity="0.66" stroke-miterlimit="10"/>
<path d="M667.416 470.582H677.269" stroke="white" stroke-opacity="0.66" stroke-miterlimit="10"/>
<path d="M565.709 353.706H575.549" stroke="white" stroke-opacity="0.66" stroke-miterlimit="10"/>
<path d="M565.709 363.441H575.549" stroke="white" stroke-opacity="0.66" stroke-miterlimit="10"/>
<path d="M565.709 373.189H575.549" stroke="white" stroke-opacity="0.66" stroke-miterlimit="10"/>
<path d="M565.709 382.925H575.549" stroke="white" stroke-opacity="0.66" stroke-miterlimit="10"/>
<path d="M565.709 392.66H575.549" stroke="white" stroke-opacity="0.66" stroke-miterlimit="10"/>
<path d="M565.709 402.408H575.549" stroke="white" stroke-opacity="0.66" stroke-miterlimit="10"/>
<path d="M565.709 412.144H575.549" stroke="white" stroke-opacity="0.66" stroke-miterlimit="10"/>
<path d="M565.709 421.879H575.549" stroke="white" stroke-opacity="0.66" stroke-miterlimit="10"/>
<path d="M547.612 353.706H557.465" stroke="white" stroke-opacity="0.66" stroke-miterlimit="10"/>
<path d="M547.612 363.441H557.465" stroke="white" stroke-opacity="0.66" stroke-miterlimit="10"/>
<path d="M547.612 373.189H557.465" stroke="white" stroke-opacity="0.66" stroke-miterlimit="10"/>
<path d="M547.612 382.925H557.465" stroke="white" stroke-opacity="0.66" stroke-miterlimit="10"/>
<path d="M547.612 392.66H557.465" stroke="white" stroke-opacity="0.66" stroke-miterlimit="10"/>
<path d="M547.612 402.408H557.465" stroke="white" stroke-opacity="0.66" stroke-miterlimit="10"/>
<path d="M547.612 412.144H557.465" stroke="white" stroke-opacity="0.66" stroke-miterlimit="10"/>
<path d="M547.612 421.879H557.465" stroke="white" stroke-opacity="0.66" stroke-miterlimit="10"/>
<path d="M648.621 119.941H632.034" stroke="white" stroke-opacity="0.66" stroke-miterlimit="10"/>
<path d="M648.621 128.595H632.034" stroke="white" stroke-opacity="0.66" stroke-miterlimit="10"/>
<path d="M648.621 137.261H632.034" stroke="white" stroke-opacity="0.66" stroke-miterlimit="10"/>
<path d="M648.621 145.915H632.034" stroke="white" stroke-opacity="0.66" stroke-miterlimit="10"/>
<path d="M648.621 154.569H632.034" stroke="white" stroke-opacity="0.66" stroke-miterlimit="10"/>
<path d="M648.621 163.235H632.034" stroke="white" stroke-opacity="0.66" stroke-miterlimit="10"/>
<path d="M648.621 171.889H632.034" stroke="white" stroke-opacity="0.66" stroke-miterlimit="10"/>
<path d="M648.621 180.543H632.034" stroke="white" stroke-opacity="0.66" stroke-miterlimit="10"/>
<path d="M648.621 189.209H632.034" stroke="white" stroke-opacity="0.66" stroke-miterlimit="10"/>
<path d="M648.621 197.863H632.034" stroke="white" stroke-opacity="0.66" stroke-miterlimit="10"/>
<path d="M648.621 206.517H632.034" stroke="white" stroke-opacity="0.66" stroke-miterlimit="10"/>
<path d="M595.853 119.941H579.278" stroke="white" stroke-opacity="0.66" stroke-miterlimit="10"/>
<path d="M595.853 128.595H579.278" stroke="white" stroke-opacity="0.66" stroke-miterlimit="10"/>
<path d="M595.853 137.261H579.278" stroke="white" stroke-opacity="0.66" stroke-miterlimit="10"/>
<path d="M595.853 145.915H579.278" stroke="white" stroke-opacity="0.66" stroke-miterlimit="10"/>
<path d="M595.853 154.569H579.278" stroke="white" stroke-opacity="0.66" stroke-miterlimit="10"/>
<path d="M595.853 163.235H579.278" stroke="white" stroke-opacity="0.66" stroke-miterlimit="10"/>
<path d="M595.853 171.889H579.278" stroke="white" stroke-opacity="0.66" stroke-miterlimit="10"/>
<path d="M595.853 180.543H579.278" stroke="white" stroke-opacity="0.66" stroke-miterlimit="10"/>
<path d="M595.853 189.209H579.278" stroke="white" stroke-opacity="0.66" stroke-miterlimit="10"/>
<path d="M595.853 197.863H579.278" stroke="white" stroke-opacity="0.66" stroke-miterlimit="10"/>
<path d="M595.853 206.517H579.278" stroke="white" stroke-opacity="0.66" stroke-miterlimit="10"/>
<path d="M646.938 102.584H628.754" stroke="white" stroke-opacity="0.66" stroke-miterlimit="10"/>
<path d="M577.607 102.584H597.624" stroke="white" stroke-opacity="0.66" stroke-miterlimit="10"/>
<path d="M625.523 85.3138H599.769" stroke="white" stroke-opacity="0.66" stroke-miterlimit="10"/>
<path d="M183.424 420.383V250.892H341.167V395.34" stroke="white" stroke-opacity="0.66" stroke-miterlimit="10"/>
<path d="M183.425 211.925H237.078V249.798H183.425V211.925Z" stroke="white" stroke-opacity="0.66" stroke-miterlimit="10"/>
<path d="M287.513 211.925H341.167V249.798H287.513V211.925Z" stroke="white" stroke-opacity="0.66" stroke-miterlimit="10"/>
<path d="M314.34 211.925H341.167V249.798H314.34V211.925Z" stroke="white" stroke-opacity="0.66" stroke-miterlimit="10"/>
<path d="M186.642 234.654H233.86V250.892H186.642V234.654Z" stroke="white" stroke-opacity="0.66" stroke-miterlimit="10"/>
<path d="M222.062 215.183H233.86V227.082H222.062V215.183Z" stroke="white" stroke-opacity="0.66" stroke-miterlimit="10"/>
<path d="M202.73 215.183H217.759V227.082H202.73V215.183Z" stroke="white" stroke-opacity="0.66" stroke-miterlimit="10"/>
<path d="M186.642 215.183H198.44V227.082H186.642V215.183Z" stroke="white" stroke-opacity="0.66" stroke-miterlimit="10"/>
<path d="M311.122 257.383V395.893" stroke="white" stroke-opacity="0.66" stroke-miterlimit="10"/>
<path d="M298.239 257.383V395.893" stroke="white" stroke-opacity="0.66" stroke-miterlimit="10"/>
<path d="M263.904 257.383V421.502" stroke="white" stroke-opacity="0.66" stroke-miterlimit="10"/>
<path d="M251.021 257.383V421.502" stroke="white" stroke-opacity="0.66" stroke-miterlimit="10"/>
<path d="M216.687 257.383V421.502" stroke="white" stroke-opacity="0.66" stroke-miterlimit="10"/>
<path d="M203.803 257.383V421.502" stroke="white" stroke-opacity="0.66" stroke-miterlimit="10"/>
<path d="M319.703 258.464H326.712" stroke="white" stroke-opacity="0.66" stroke-miterlimit="10"/>
<path d="M319.703 266.98H326.712" stroke="white" stroke-opacity="0.66" stroke-miterlimit="10"/>
<path d="M319.703 275.495H326.712" stroke="white" stroke-opacity="0.66" stroke-miterlimit="10"/>
<path d="M319.703 283.998H326.712" stroke="white" stroke-opacity="0.66" stroke-miterlimit="10"/>
<path d="M319.703 292.513H326.712" stroke="white" stroke-opacity="0.66" stroke-miterlimit="10"/>
<path d="M319.703 301.029H326.712" stroke="white" stroke-opacity="0.66" stroke-miterlimit="10"/>
<path d="M319.703 309.532H326.712" stroke="white" stroke-opacity="0.66" stroke-miterlimit="10"/>
<path d="M319.703 318.047H326.712" stroke="white" stroke-opacity="0.66" stroke-miterlimit="10"/>
<path d="M319.703 326.562H326.712" stroke="white" stroke-opacity="0.66" stroke-miterlimit="10"/>
<path d="M319.703 335.078H326.712" stroke="white" stroke-opacity="0.66" stroke-miterlimit="10"/>
<path d="M319.703 343.581H326.712" stroke="white" stroke-opacity="0.66" stroke-miterlimit="10"/>
<path d="M319.703 352.096H326.712" stroke="white" stroke-opacity="0.66" stroke-miterlimit="10"/>
<path d="M319.703 360.611H326.712" stroke="white" stroke-opacity="0.66" stroke-miterlimit="10"/>
<path d="M319.703 366.284H326.712" stroke="white" stroke-opacity="0.66" stroke-miterlimit="10"/>
<path d="M319.703 374.787H326.712" stroke="white" stroke-opacity="0.66" stroke-miterlimit="10"/>
<path d="M319.703 383.302H326.712" stroke="white" stroke-opacity="0.66" stroke-miterlimit="10"/>
<path d="M319.703 391.818H326.712" stroke="white" stroke-opacity="0.66" stroke-miterlimit="10"/>
<path d="M277.848 258.464H284.857" stroke="white" stroke-opacity="0.66" stroke-miterlimit="10"/>
<path d="M277.848 266.98H284.857" stroke="white" stroke-opacity="0.66" stroke-miterlimit="10"/>
<path d="M277.848 275.495H284.857" stroke="white" stroke-opacity="0.66" stroke-miterlimit="10"/>
<path d="M277.848 283.998H284.857" stroke="white" stroke-opacity="0.66" stroke-miterlimit="10"/>
<path d="M277.848 292.513H284.857" stroke="white" stroke-opacity="0.66" stroke-miterlimit="10"/>
<path d="M277.848 301.029H284.857" stroke="white" stroke-opacity="0.66" stroke-miterlimit="10"/>
<path d="M277.848 309.532H284.857" stroke="white" stroke-opacity="0.66" stroke-miterlimit="10"/>
<path d="M277.848 318.047H284.857" stroke="white" stroke-opacity="0.66" stroke-miterlimit="10"/>
<path d="M277.848 326.562H284.857" stroke="white" stroke-opacity="0.66" stroke-miterlimit="10"/>
<path d="M277.848 335.078H284.857" stroke="white" stroke-opacity="0.66" stroke-miterlimit="10"/>
<path d="M277.848 343.581H284.857" stroke="white" stroke-opacity="0.66" stroke-miterlimit="10"/>
<path d="M277.848 352.096H284.857" stroke="white" stroke-opacity="0.66" stroke-miterlimit="10"/>
<path d="M277.848 360.611H284.857" stroke="white" stroke-opacity="0.66" stroke-miterlimit="10"/>
<path d="M277.848 366.284H284.857" stroke="white" stroke-opacity="0.66" stroke-miterlimit="10"/>
<path d="M277.848 374.787H284.857" stroke="white" stroke-opacity="0.66" stroke-miterlimit="10"/>
<path d="M277.848 383.302H284.857" stroke="white" stroke-opacity="0.66" stroke-miterlimit="10"/>
<path d="M277.848 391.818H284.857" stroke="white" stroke-opacity="0.66" stroke-miterlimit="10"/>
<path d="M230.63 258.464H237.639" stroke="white" stroke-opacity="0.66" stroke-miterlimit="10"/>
<path d="M230.63 266.98H237.639" stroke="white" stroke-opacity="0.66" stroke-miterlimit="10"/>
<path d="M230.63 275.495H237.639" stroke="white" stroke-opacity="0.66" stroke-miterlimit="10"/>
<path d="M230.63 283.998H237.639" stroke="white" stroke-opacity="0.66" stroke-miterlimit="10"/>
<path d="M230.63 292.513H237.639" stroke="white" stroke-opacity="0.66" stroke-miterlimit="10"/>
<path d="M230.63 301.029H237.639" stroke="white" stroke-opacity="0.66" stroke-miterlimit="10"/>
<path d="M230.63 309.532H237.639" stroke="white" stroke-opacity="0.66" stroke-miterlimit="10"/>
<path d="M230.63 318.047H237.639" stroke="white" stroke-opacity="0.66" stroke-miterlimit="10"/>
<path d="M230.63 326.562H237.639" stroke="white" stroke-opacity="0.66" stroke-miterlimit="10"/>
<path d="M230.63 335.078H237.639" stroke="white" stroke-opacity="0.66" stroke-miterlimit="10"/>
<path d="M230.63 343.581H237.639" stroke="white" stroke-opacity="0.66" stroke-miterlimit="10"/>
<path d="M230.63 352.096H237.639" stroke="white" stroke-opacity="0.66" stroke-miterlimit="10"/>
<path d="M230.63 360.611H237.639" stroke="white" stroke-opacity="0.66" stroke-miterlimit="10"/>
<path d="M230.63 366.284H237.639" stroke="white" stroke-opacity="0.66" stroke-miterlimit="10"/>
<path d="M230.63 374.787H237.639" stroke="white" stroke-opacity="0.66" stroke-miterlimit="10"/>
<path d="M230.63 383.302H237.639" stroke="white" stroke-opacity="0.66" stroke-miterlimit="10"/>
<path d="M230.63 391.818H237.639" stroke="white" stroke-opacity="0.66" stroke-miterlimit="10"/>
<path d="M230.63 400.333H237.639" stroke="white" stroke-opacity="0.66" stroke-miterlimit="10"/>
<path d="M230.63 408.836H237.639" stroke="white" stroke-opacity="0.66" stroke-miterlimit="10"/>
<path d="M230.63 417.351H237.639" stroke="white" stroke-opacity="0.66" stroke-miterlimit="10"/>
<path d="M193.078 258.464H200.087" stroke="white" stroke-opacity="0.66" stroke-miterlimit="10"/>
<path d="M193.078 266.98H200.087" stroke="white" stroke-opacity="0.66" stroke-miterlimit="10"/>
<path d="M193.078 275.495H200.087" stroke="white" stroke-opacity="0.66" stroke-miterlimit="10"/>
<path d="M193.078 283.998H200.087" stroke="white" stroke-opacity="0.66" stroke-miterlimit="10"/>
<path d="M193.078 292.513H200.087" stroke="white" stroke-opacity="0.66" stroke-miterlimit="10"/>
<path d="M193.078 301.029H200.087" stroke="white" stroke-opacity="0.66" stroke-miterlimit="10"/>
<path d="M193.078 309.532H200.087" stroke="white" stroke-opacity="0.66" stroke-miterlimit="10"/>
<path d="M193.078 318.047H200.087" stroke="white" stroke-opacity="0.66" stroke-miterlimit="10"/>
<path d="M193.078 326.562H200.087" stroke="white" stroke-opacity="0.66" stroke-miterlimit="10"/>
<path d="M193.078 335.078H200.087" stroke="white" stroke-opacity="0.66" stroke-miterlimit="10"/>
<path d="M193.078 343.581H200.087" stroke="white" stroke-opacity="0.66" stroke-miterlimit="10"/>
<path d="M193.078 352.096H200.087" stroke="white" stroke-opacity="0.66" stroke-miterlimit="10"/>
<path d="M193.078 360.611H200.087" stroke="white" stroke-opacity="0.66" stroke-miterlimit="10"/>
<path d="M193.078 366.284H200.087" stroke="white" stroke-opacity="0.66" stroke-miterlimit="10"/>
<path d="M193.078 374.787H200.087" stroke="white" stroke-opacity="0.66" stroke-miterlimit="10"/>
<path d="M193.078 383.302H200.087" stroke="white" stroke-opacity="0.66" stroke-miterlimit="10"/>
<path d="M193.078 391.818H200.087" stroke="white" stroke-opacity="0.66" stroke-miterlimit="10"/>
<path d="M193.078 400.333H200.087" stroke="white" stroke-opacity="0.66" stroke-miterlimit="10"/>
<path d="M193.078 408.836H200.087" stroke="white" stroke-opacity="0.66" stroke-miterlimit="10"/>
<path d="M193.078 417.351H200.087" stroke="white" stroke-opacity="0.66" stroke-miterlimit="10"/>
<path d="M667.379 279.03H707.089V396.987H727.468V284.438H802.585" stroke="white" stroke-opacity="0.66" stroke-miterlimit="10"/>
<path d="M656.653 132.935H685.625L678.104 149.16H700.641L694.205 156.733" stroke="white" stroke-opacity="0.66" stroke-miterlimit="10"/>
<path d="M656.803 157.261H700.566L694.567 164.732" stroke="white" stroke-opacity="0.66" stroke-miterlimit="10"/>
<path d="M656.803 164.732H700.566L694.567 172.216" stroke="white" stroke-opacity="0.66" stroke-miterlimit="10"/>
<path d="M656.803 172.216H700.566L694.567 179.688" stroke="white" stroke-opacity="0.66" stroke-miterlimit="10"/>
<path d="M656.803 179.688H700.566L694.567 187.159" stroke="white" stroke-opacity="0.66" stroke-miterlimit="10"/>
<path d="M656.803 187.159H700.566L694.567 194.63" stroke="white" stroke-opacity="0.66" stroke-miterlimit="10"/>
<path d="M656.803 194.63H700.566L694.567 202.102" stroke="white" stroke-opacity="0.66" stroke-miterlimit="10"/>
<path d="M656.803 202.102H700.566L694.567 209.586" stroke="white" stroke-opacity="0.66" stroke-miterlimit="10"/>
<path d="M656.803 209.586H700.566L694.567 217.057" stroke="white" stroke-opacity="0.66" stroke-miterlimit="10"/>
<path d="M667.441 217.057H700.566L694.567 224.529" stroke="white" stroke-opacity="0.66" stroke-miterlimit="10"/>
<path d="M667.441 224.529H700.566L694.567 232" stroke="white" stroke-opacity="0.66" stroke-miterlimit="10"/>
<path d="M667.441 232H700.566L694.567 239.471" stroke="white" stroke-opacity="0.66" stroke-miterlimit="10"/>
<path d="M667.441 239.471H700.566L694.567 246.943" stroke="white" stroke-opacity="0.66" stroke-miterlimit="10"/>
<path d="M667.142 246.943H700.566L694.567 254.427" stroke="white" stroke-opacity="0.66" stroke-miterlimit="10"/>
<path d="M667.142 254.427H700.566L694.567 261.898" stroke="white" stroke-opacity="0.66" stroke-miterlimit="10"/>
<path d="M666.855 261.898H700.566L694.567 269.37" stroke="white" stroke-opacity="0.66" stroke-miterlimit="10"/>
<path d="M667.142 269.37H700.566L694.567 276.841" stroke="white" stroke-opacity="0.66" stroke-miterlimit="10"/>
<path d="M415.199 405.654H476.373V458.683H526.809V426.219H641.624V477.085" stroke="white" stroke-opacity="0.66" stroke-miterlimit="10"/>
<path d="M355.11 395.906H269.267V420.798H159.815V438.118H136.206V474.909" stroke="white" stroke-opacity="0.66" stroke-miterlimit="10"/>
<path d="M183.424 358.033H124.395" stroke="white" stroke-opacity="0.66" stroke-miterlimit="10"/>
<path d="M355.023 406.735H270.34" stroke="white" stroke-opacity="0.66" stroke-miterlimit="10"/>
<path d="M342.352 411.062H352.554V418.634H342.352V411.062Z" stroke="white" stroke-opacity="0.66" stroke-miterlimit="10"/>
<path d="M319.778 411.062H329.979V418.634H319.778V411.062Z" stroke="white" stroke-opacity="0.66" stroke-miterlimit="10"/>
<path d="M297.204 411.062H307.406V418.634H297.204V411.062Z" stroke="white" stroke-opacity="0.66" stroke-miterlimit="10"/>
<path d="M274.63 411.062H284.832V418.634H274.63V411.062Z" stroke="white" stroke-opacity="0.66" stroke-miterlimit="10"/>
<path d="M355.023 431.263H270.34" stroke="white" stroke-opacity="0.66" stroke-miterlimit="10"/>
<path d="M342.352 435.59H352.554V443.162H342.352V435.59Z" stroke="white" stroke-opacity="0.66" stroke-miterlimit="10"/>
<path d="M319.778 435.59H329.979V443.162H319.778V435.59Z" stroke="white" stroke-opacity="0.66" stroke-miterlimit="10"/>
<path d="M297.204 435.59H307.406V443.162H297.204V435.59Z" stroke="white" stroke-opacity="0.66" stroke-miterlimit="10"/>
<path d="M274.63 435.59H284.832V443.162H274.63V435.59Z" stroke="white" stroke-opacity="0.66" stroke-miterlimit="10"/>
<path d="M354.038 454.356H170.541" stroke="white" stroke-opacity="0.66" stroke-miterlimit="10"/>
<path d="M263.904 472.745V455.438" stroke="white" stroke-opacity="0.66" stroke-miterlimit="10"/>
<path d="M418.517 411.49H470.936V419.263H418.517V411.49Z" stroke="white" stroke-opacity="0.66" stroke-miterlimit="10"/>
<path d="M418.517 429.363H470.936V437.137H418.517V429.363Z" stroke="white" stroke-opacity="0.66" stroke-miterlimit="10"/>
<path d="M111.076 38.3598L191.631 22.6497L250.46 11.0401C251.165 10.8995 251.877 10.8029 252.593 10.7508C255.723 10.5118 264.391 10.0841 269.143 12.2727C275.03 14.977 277.873 19.1781 276.202 21.8572C274.531 24.5364 263.668 30.4858 253.865 33.819C244.062 37.1523 195.51 47.7305 188.625 48.2839C181.741 48.8373 173.285 49.2021 173.285 49.2021C173.285 49.2021 144.238 51.8687 133.151 50.8624C122.063 49.8562 105.925 44.8123 105.127 42.6489C104.329 40.4855 111.076 38.3598 111.076 38.3598Z" fill="white" stroke="black" stroke-linecap="round" stroke-linejoin="round"/>
<path d="M141.793 33.014C141.793 33.014 133.063 33.7184 129.097 31.5046C125.131 29.2909 109.828 6.71312 108.856 6.47414C106.241 6.44272 103.626 6.55188 101.023 6.80117L111.537 40.2213L143.078 33.2278L141.793 33.014Z" fill="white" stroke="black" stroke-linecap="round" stroke-linejoin="round"/>
<path d="M120.055 48.4223C120.055 48.4223 117.785 47.655 116.488 47.1644C115.191 46.6739 112.272 45.6048 110.639 44.7746C109.63 44.2479 108.798 43.4345 108.244 42.4351L68.2595 38.0453L72.3253 37.7183L115.34 40.5609C115.378 44.9884 120.055 48.4223 120.055 48.4223Z" fill="black" stroke="black" stroke-linecap="round" stroke-linejoin="round"/>
<path d="M50.126 23.6056L75.6308 25.7564L74.7827 25.442L152.669 30.2594L201.596 33.2782C201.596 33.2782 207.557 33.1146 205.524 35.1775L197.517 37.4164C197.517 37.4164 212.596 37.1396 234.783 31.2279C256.97 25.3162 264.416 24.071 270.714 20.0837C272.35 19.053 273.65 17.562 274.456 15.7946C276.576 17.9203 277.299 20.1843 276.252 21.8572C274.693 24.3728 265.164 29.6808 255.948 33.0895L256.372 32.9763L270.091 31.2405C270.091 31.2405 273.483 26.5237 273.558 27.4671C273.633 28.4104 275.503 33.014 274.256 33.1146C273.009 33.2153 258.043 34.7498 258.043 34.7498L258.392 39.1773C258.711 39.1811 259.022 39.274 259.291 39.4456C259.56 39.6172 259.777 39.8609 259.917 40.1494C260.057 40.4379 260.115 40.76 260.085 41.0798C260.054 41.3996 259.936 41.7045 259.744 41.9607C259.552 42.2168 259.293 42.4141 258.996 42.5306C258.699 42.6471 258.376 42.6782 258.062 42.6205C257.749 42.5627 257.458 42.4184 257.221 42.2036C256.984 41.9887 256.811 41.7118 256.721 41.4036C256.516 41.4978 256.297 41.5532 256.072 41.5672C256.002 41.5732 255.931 41.5732 255.86 41.5672C255.755 43.083 255.145 44.5184 254.128 45.6398C253.111 46.7611 251.748 47.5024 250.26 47.743C245.945 48.7367 233.486 50.3718 229.557 48.4725C226.714 47.0889 227.911 42.5482 228.784 40.1584C223.521 41.3533 218.021 42.5734 212.82 43.6803L213.144 47.265L209.777 48.5229L207.283 53.1642L209.366 53.8937C209.446 53.3766 209.692 52.9002 210.066 52.5369C210.439 52.1736 210.92 51.9434 211.436 51.8812C212.095 51.9021 212.724 52.1673 213.202 52.6263C213.679 53.0853 213.972 53.7058 214.025 54.369C214.077 55.0323 213.885 55.6918 213.486 56.2214C213.087 56.7509 212.508 57.1134 211.86 57.2395C211.447 57.2579 211.036 57.1651 210.67 56.9706C210.304 56.776 209.996 56.4868 209.777 56.1326L206.597 56.3842V56.5477C207.103 56.7187 207.546 57.0394 207.868 57.4679C208.191 57.8964 208.378 58.4129 208.405 58.9501C208.454 59.28 208.438 59.6165 208.357 59.9399C208.276 60.2634 208.133 60.5674 207.934 60.8343C207.736 61.1012 207.487 61.3256 207.201 61.4945C206.916 61.6633 206.6 61.7733 206.273 61.8179C205.64 61.8195 205.031 61.5788 204.568 61.1444C204.105 60.7101 203.822 60.1146 203.778 59.4784H203.541C203.382 59.8574 203.124 60.1859 202.794 60.4294C202.465 60.6729 202.077 60.8224 201.67 60.862C201.011 60.8411 200.382 60.5759 199.905 60.1169C199.427 59.6579 199.134 59.0374 199.082 58.3742C199.029 57.7109 199.221 57.0514 199.62 56.5219C200.02 55.9923 200.599 55.6298 201.246 55.5037C201.774 55.4877 202.293 55.6462 202.723 55.955C203.153 56.2639 203.471 56.7061 203.628 57.2143L204.813 56.8118L205.088 52.3466L206.909 48.3971L206.385 45.0387C197.842 46.7996 190.945 48.0952 188.65 48.2839C181.778 48.8373 173.31 49.2021 173.31 49.2021C173.31 49.2021 170.279 49.4788 165.827 49.8184L166.051 52.6485H168.371C168.507 52.2172 168.764 51.8351 169.112 51.5492C169.46 51.2632 169.883 51.0858 170.329 51.0385C170.988 51.0593 171.617 51.3246 172.095 51.7836C172.572 52.2426 172.865 52.863 172.918 53.5263C172.97 54.1896 172.778 54.849 172.379 55.3786C171.98 55.9082 171.401 56.2707 170.753 56.3968C170.306 56.4186 169.863 56.3119 169.474 56.0892C169.086 55.8665 168.768 55.5369 168.558 55.1389L166.276 55.5163V55.6043C166.652 55.837 166.969 56.1569 167.199 56.5375C167.429 56.9181 167.565 57.3484 167.598 57.7929C167.649 58.1237 167.634 58.4615 167.554 58.7865C167.474 59.1114 167.33 59.417 167.132 59.6852C166.933 59.9535 166.683 60.1791 166.397 60.3487C166.111 60.5184 165.794 60.6288 165.465 60.6733C164.992 60.6943 164.523 60.5712 164.121 60.3199C163.718 60.0686 163.4 59.7009 163.208 59.2646L161.374 59.4155C161.213 59.7995 160.954 60.1334 160.623 60.3832C160.292 60.6329 159.902 60.7895 159.491 60.8368C158.955 60.9503 158.397 60.8963 157.892 60.6819C157.388 60.4676 156.96 60.1032 156.665 59.6373C156.371 59.1714 156.225 58.6261 156.246 58.0741C156.267 57.5221 156.454 56.9897 156.783 56.5478C157.111 56.1058 157.566 55.7755 158.085 55.6006C158.605 55.4258 159.165 55.4149 159.691 55.5693C160.217 55.7237 160.683 56.0361 161.029 56.4648C161.374 56.8936 161.581 57.4183 161.624 57.969L162.871 58.1829L162.684 50.0951C153.23 50.7743 139.91 51.5039 133.188 50.9001C131.242 50.724 129.135 50.4221 126.952 50.0322C133.597 49.9842 140.234 49.5643 146.832 48.7744C156.161 47.3908 156.373 46.1079 156.373 46.1079C156.373 46.1079 154.802 46.2336 154.702 44.9632L154.452 41.8187C154.452 41.8187 150.199 43.7432 148.977 44.1582C147.755 44.5733 150.673 41.8187 150.673 41.8187L137.952 39.9823L133.774 42.8627L132.178 42.674L134.198 40.2842L122.038 38.4729H121.627L117.212 40.3722L115.341 40.5232L116.887 38.4729L117.336 37.1019L106.112 35.2403C106.112 35.2403 101.934 38.1082 99.7012 37.6554C97.4688 37.2025 99.8385 35.429 99.8385 35.429L95.3985 34.9888L91.9189 34.7875L91.6694 31.643L86.8428 29.8569L45.1747 24.6118L40.373 19.5806L50.126 23.6056ZM250.26 36.0076C250.26 36.0076 254.7 35.3913 255.698 38.4352H255.81C256.017 38.4036 256.227 38.4036 256.434 38.4352L256.16 34.9762L243.077 36.7875L241.83 37.0893L250.26 36.0076Z" fill="black" stroke="black" stroke-linecap="round" stroke-linejoin="round"/>
<path d="M164.243 34.385L174.632 34.4982C174.632 34.4982 173.484 35.8567 173.16 39.693C172.836 43.5293 170.666 44.6488 167.623 45.2148C164.58 45.7808 159.99 44.2463 160.002 40.4351C160.015 36.6239 161.1 34.2718 164.243 34.385Z" fill="white"/>
<path d="M270.253 13.4551L271.45 15.9833L269.105 16.2097L267.771 13.6563L270.253 13.4551Z" fill="black"/>
<path d="M259.802 17.1152L257.906 17.3039L258.929 14.3606L259.714 14.2977L259.802 17.1152Z" fill="black"/>
<path d="M263.942 13.9581L264.528 16.6624L260.575 17.0398L260.487 14.2474L263.942 13.9581Z" fill="black"/>
<path d="M264.728 13.8952L266.923 13.7191L268.282 16.2851L265.301 16.5869L264.728 13.8952Z" fill="black"/>
<path d="M271.076 13.3921H271.238C272.329 14.0434 273.342 14.82 274.256 15.7065L272.21 15.9077L271.076 13.3921Z" fill="black"/>
<path opacity="0.05" d="M671.981 25.0269C671.981 25.0269 667.242 10.0338 684.827 2.52461C702.412 -4.98454 730.798 5.93328 729.476 13.4424C728.154 20.9516 714.51 28.4356 724.038 29.1274C733.567 29.8192 739.591 15.4801 759.196 22.2974C778.802 29.1148 755.816 38.0452 760.543 38.0452C765.27 38.0452 778.116 34.5737 789.627 38.0452C801.139 41.5168 789.627 47.5921 746.35 51.0007C703.073 54.4094 713.263 45.4915 697.049 44.1205C680.836 42.7495 682.844 50.2586 648.41 44.1205C613.975 37.9824 625.96 16.8511 671.981 25.0269Z" fill="white"/>
<path opacity="0.05" d="M122.787 132.62C122.787 132.62 118.16 117.967 135.334 110.646C152.508 103.326 180.232 113.979 178.91 121.3C177.588 128.62 164.393 135.953 173.635 136.62C182.876 137.287 188.825 123.3 207.969 129.954C227.114 136.608 204.664 145.274 209.291 145.274C213.919 145.274 226.465 141.941 237.69 145.274C248.914 148.607 237.69 154.594 195.423 157.927C153.156 161.261 163.071 152.607 147.22 151.274C131.368 149.94 133.326 157.261 99.6522 151.248C65.9784 145.236 77.8765 124.633 122.787 132.62Z" fill="white"/>
<path opacity="0.05" d="M80.3708 95.9047C80.3708 95.9047 78.7619 90.798 84.7484 88.2321C90.7348 85.6661 100.425 89.4018 99.964 92.0055C99.5025 94.6092 94.888 97.1122 98.1182 97.3512C101.348 97.5902 103.419 92.6973 110.104 95.0243C116.788 97.3512 108.944 100.37 110.552 100.37C112.161 100.37 116.551 99.2128 120.53 100.37C124.508 101.527 120.53 103.628 105.776 104.785C91.0217 105.942 94.4888 102.923 88.9639 102.458C83.4389 101.993 84.1248 104.558 72.3764 102.458C60.628 100.357 64.7312 93.0747 80.3708 95.9047Z" fill="white" fill-opacity="0.94"/>
<path d="M350.833 113.061H367.795V495.386H350.833V113.061Z" fill="#C7C7C7" stroke="#263238" stroke-miterlimit="10"/>
<path d="M575.25 176.53C576.011 176.532 576.747 176.255 577.32 175.751C577.61 175.498 577.845 175.187 578.01 174.839C578.175 174.49 578.267 174.111 578.28 173.724C578.293 173.338 578.226 172.953 578.085 172.594C577.943 172.235 577.73 171.91 577.458 171.638L522.582 115.262C521.983 114.694 521.191 114.377 520.368 114.377C519.545 114.377 518.754 114.694 518.154 115.262L464.451 170.455C464.179 170.727 463.965 171.053 463.824 171.412C463.682 171.771 463.616 172.156 463.629 172.542C463.642 172.928 463.734 173.307 463.899 173.656C464.064 174.005 464.298 174.315 464.588 174.568C465.184 175.1 465.959 175.382 466.754 175.356C467.55 175.331 468.305 174.999 468.866 174.43L520.362 121.514L573.005 175.6C573.299 175.898 573.649 176.135 574.034 176.294C574.42 176.454 574.833 176.535 575.25 176.53Z" fill="#C7C7C7" stroke="#263238" stroke-miterlimit="10"/>
<path d="M463.615 176.53C464.376 176.53 465.111 176.253 465.686 175.751C465.975 175.498 466.21 175.187 466.375 174.839C466.54 174.49 466.632 174.11 466.645 173.724C466.658 173.338 466.591 172.953 466.45 172.594C466.309 172.235 466.095 171.91 465.823 171.638L410.947 115.262C410.351 114.692 409.561 114.374 408.74 114.374C407.918 114.374 407.128 114.692 406.532 115.262L352.829 170.455C352.559 170.729 352.348 171.056 352.209 171.415C352.069 171.774 352.005 172.159 352.019 172.545C352.033 172.93 352.125 173.309 352.29 173.657C352.455 174.005 352.689 174.315 352.978 174.568C353.574 175.1 354.349 175.382 355.144 175.356C355.94 175.331 356.695 174.999 357.256 174.43L408.752 121.514L461.383 175.6C461.676 175.896 462.024 176.13 462.407 176.29C462.79 176.45 463.201 176.531 463.615 176.53Z" fill="#C7C7C7" stroke="#263238" stroke-miterlimit="10"/>
<path d="M350.846 113.061H582.172V119.174H350.846V113.061Z" fill="#C7C7C7" stroke="#263238" stroke-miterlimit="10"/>
<path d="M350.846 171.7H582.172V177.813H350.846V171.7Z" fill="#C7C7C7" stroke="#263238" stroke-miterlimit="10"/>
<path d="M565.211 84.9742H768.688V207.12H565.211V84.9742Z" fill="white" stroke="#263238" stroke-miterlimit="10"/>
<path d="M578.131 92.3074H755.779C759.568 92.3074 762.639 95.4047 762.639 99.2253V192.882C762.639 196.703 759.568 199.8 755.779 199.8H578.131C574.343 199.8 571.272 196.703 571.272 192.882V99.2253C571.272 95.4047 574.343 92.3074 578.131 92.3074Z" fill="white" stroke="black" stroke-width="2" stroke-miterlimit="10"/>
<path d="M169.244 436.621H179.608L179.745 436.835C180.633 436.7 181.529 436.629 182.426 436.621C195.048 436.621 205.287 449.904 205.287 466.28C205.287 482.657 195.048 495.889 182.426 495.889C181.516 495.889 174.02 495.801 173.147 495.675L179.608 495.889H169.244C156.622 495.889 146.395 482.607 146.395 466.23C146.395 449.853 156.622 436.621 169.244 436.621Z" fill="#263238" stroke="#263238" stroke-linecap="round" stroke-linejoin="round"/>
<path d="M381.326 436.621H391.677L391.827 436.835C392.715 436.7 393.611 436.629 394.508 436.621C407.13 436.621 417.369 449.904 417.369 466.28C417.369 482.657 407.13 495.889 394.508 495.889C393.611 495.882 392.715 495.81 391.827 495.675L391.677 495.889H381.326C368.704 495.889 358.465 482.607 358.465 466.23C358.465 449.853 368.704 436.621 381.326 436.621Z" fill="#263238" stroke="#263238" stroke-linecap="round" stroke-linejoin="round"/>
<path d="M70.7168 437.489H75.7055L80.1455 406.044C80.4096 404.189 81.3281 402.492 82.7325 401.266C84.1368 400.039 85.9327 399.364 87.7906 399.365H115.615L160.838 350.977C163.258 348.381 166.18 346.314 169.423 344.901C172.667 343.488 176.162 342.761 179.695 342.763H299.561C302.146 342.766 304.703 343.296 307.08 344.321C309.457 345.345 311.604 346.843 313.392 348.725L519.276 436.344V473.362H210.65L133.175 472.796L75.743 469.022V468.758H70.9662C70.7185 468.76 70.4729 468.712 70.2437 468.617C70.0144 468.522 69.8062 468.382 69.6309 468.206C69.4557 468.029 69.317 467.819 69.223 467.588C69.1289 467.357 69.0814 467.109 69.083 466.859V439.187C69.078 438.967 69.1165 438.748 69.1963 438.543C69.276 438.338 69.3954 438.151 69.5474 437.993C69.6995 437.835 69.8811 437.709 70.0819 437.623C70.2827 437.536 70.4985 437.491 70.7168 437.489Z" fill="#D9D9D9" stroke="#263238" stroke-linecap="round" stroke-linejoin="round"/>
<path d="M158.406 467.664V472.985L133.126 472.796L75.6935 469.022V468.758H70.9667C70.6162 468.758 70.273 468.658 69.9771 468.469C69.6811 468.279 69.4446 468.009 69.2955 467.689L158.406 467.664Z" fill="#263238" stroke="#263238" stroke-linecap="round" stroke-linejoin="round"/>
<path d="M133.126 472.796C132.667 472.729 132.249 472.494 131.951 472.135C131.653 471.777 131.497 471.32 131.513 470.853C131.528 470.385 131.714 469.94 132.035 469.603C132.355 469.265 132.788 469.058 133.25 469.022H162.297L269.729 342.738H299.561C302.148 342.745 304.706 343.278 307.083 344.307C309.46 345.336 311.606 346.839 313.392 348.725L519.276 436.344V473.362H210.65L133.126 472.796Z" fill="#263238" stroke="#263238" stroke-linecap="round" stroke-linejoin="round"/>
<path d="M471.173 436.621H481.537L488.321 446.684C492.051 452.532 494.034 459.339 494.034 466.293C494.034 473.247 492.051 480.054 488.321 485.902L481.537 495.965H471.173C458.551 495.965 448.324 482.682 448.324 466.305C448.324 449.929 458.551 436.621 471.173 436.621Z" fill="#263238" stroke="#263238" stroke-linecap="round" stroke-linejoin="round"/>
<path d="M484.355 495.94C471.729 495.94 461.494 482.661 461.494 466.28C461.494 449.9 471.729 436.621 484.355 436.621C496.981 436.621 507.216 449.9 507.216 466.28C507.216 482.661 496.981 495.94 484.355 495.94Z" fill="#636363" stroke="#263238" stroke-linecap="round" stroke-linejoin="round"/>
<path d="M484.355 489.94C474.285 489.94 466.121 479.347 466.121 466.28C466.121 453.214 474.285 442.621 484.355 442.621C494.425 442.621 502.589 453.214 502.589 466.28C502.589 479.347 494.425 489.94 484.355 489.94Z" fill="white" stroke="#263238" stroke-linecap="round" stroke-linejoin="round"/>
<path d="M480.501 466.28C480.501 469.047 482.235 471.312 484.355 471.312C486.475 471.312 488.209 469.085 488.209 466.28C488.209 463.475 486.488 461.249 484.355 461.249C482.223 461.249 480.501 463.526 480.501 466.28Z" fill="white" stroke="#263238" stroke-linecap="round" stroke-linejoin="round"/>
<path d="M240.483 436.621H250.834L257.619 446.684C261.356 452.529 263.344 459.337 263.344 466.293C263.344 473.248 261.356 480.056 257.619 485.902L250.834 495.965H240.483C227.861 495.965 217.622 482.682 217.622 466.305C217.622 449.929 227.861 436.621 240.483 436.621Z" fill="#263238" stroke="#263238" stroke-linecap="round" stroke-linejoin="round"/>
<path d="M253.653 495.94C241.027 495.94 230.792 482.661 230.792 466.28C230.792 449.9 241.027 436.621 253.653 436.621C266.279 436.621 276.514 449.9 276.514 466.28C276.514 482.661 266.279 495.94 253.653 495.94Z" fill="#636363" stroke="#263238" stroke-linecap="round" stroke-linejoin="round"/>
<path d="M253.653 489.94C243.583 489.94 235.419 479.347 235.419 466.28C235.419 453.214 243.583 442.621 253.653 442.621C263.723 442.621 271.887 453.214 271.887 466.28C271.887 479.347 263.723 489.94 253.653 489.94Z" fill="white" stroke="#263238" stroke-linecap="round" stroke-linejoin="round"/>
<path d="M249.812 466.28C249.812 469.047 251.533 471.312 253.653 471.312C255.773 471.312 257.507 469.085 257.507 466.28C257.507 463.475 255.786 461.249 253.653 461.249C251.52 461.249 249.812 463.526 249.812 466.28Z" fill="white" stroke="#263238" stroke-linecap="round" stroke-linejoin="round"/>
<path d="M160.838 350.951C161.212 350.549 161.612 350.184 162.011 349.807H255.387V396.346H118.359L160.838 350.951Z" fill="#263238" stroke="#263238" stroke-linecap="round" stroke-linejoin="round"/>
<path d="M150.112 437.489H155.55L160.95 399.34H195.484L240.707 350.951C243.126 348.358 246.046 346.291 249.287 344.878C252.528 343.466 256.021 342.737 259.552 342.738H369.59C372.177 342.743 374.736 343.276 377.113 344.305C379.49 345.334 381.636 346.838 383.421 348.725L453.712 396.107L518.703 424.37L528.867 438.206C531.378 441.594 532.734 445.711 532.733 449.941V473.412H512.217V465.589C512.217 446.457 498.436 430.961 481.425 430.961C466.259 430.961 456.843 443.35 454.486 460.18L452.602 473.362H281.29V465.538C281.29 446.407 273.508 430.911 252.605 430.911C233.972 430.911 227.312 443.3 224.406 460.13L222.211 472.796L155.562 469.022V468.758H150.125L150.112 437.489Z" fill="#D9D9D9" stroke="#263238" stroke-linecap="round" stroke-linejoin="round"/>
<path d="M382.836 355.668L443.187 396.069H330.379V350.36H370.289C372.626 350.353 374.941 350.819 377.096 351.731C379.251 352.643 381.203 353.982 382.836 355.668Z" fill="#263238" stroke="#263238" stroke-linecap="round" stroke-linejoin="round"/>
<path d="M395.943 396.069L360.174 350.36H370.288C372.613 350.363 374.913 350.834 377.055 351.746C379.197 352.657 381.136 353.991 382.76 355.668L403.962 369.806L424.516 396.069H395.943Z" fill="white" stroke="#263238" stroke-linecap="round" stroke-linejoin="round"/>
<path d="M330.404 396.069V363.24L356.083 396.069H330.404Z" fill="white" stroke="#263238" stroke-linecap="round" stroke-linejoin="round"/>
<path d="M244.461 357.807L218.806 384.221C217.957 385.11 217.351 386.206 217.048 387.403C216.793 388.427 216.774 389.496 216.992 390.529C217.209 391.562 217.657 392.531 218.301 393.363C218.946 394.195 219.77 394.868 220.711 395.33C221.652 395.793 222.686 396.032 223.732 396.031H322.896V350.36H262.058C258.78 350.353 255.535 351.008 252.512 352.287C249.49 353.566 246.752 355.443 244.461 357.807Z" fill="#263238" stroke="#263238" stroke-linecap="round" stroke-linejoin="round"/>
<path d="M268.495 350.36H278.46L314.229 396.069H304.264L268.495 350.36Z" fill="white" stroke="#263238" stroke-linecap="round" stroke-linejoin="round"/>
<path d="M322.846 353.593V390.095L291.754 350.36H320.314L322.846 353.593Z" fill="white" stroke="#263238" stroke-linecap="round" stroke-linejoin="round"/>
<path d="M160.95 399.339H87.7783C85.9203 399.339 84.1244 400.014 82.7201 401.24C81.3158 402.467 80.3972 404.164 80.1331 406.018L75.6931 437.464H155.512L160.95 399.339Z" fill="#D9D9D9" stroke="#263238" stroke-linecap="round" stroke-linejoin="round"/>
<path d="M91.4825 416.546H126.191V430.923H91.4825V416.546Z" fill="white" stroke="#263238" stroke-linecap="round" stroke-linejoin="round"/>
<path d="M71.8763 443.376H220.577" stroke="#263238" stroke-width="2" stroke-linecap="round" stroke-linejoin="round"/>
<path d="M287.027 443.376H451.829" stroke="#263238" stroke-width="2" stroke-linecap="round" stroke-linejoin="round"/>
<path d="M506.543 443.376H525.4" stroke="#263238" stroke-width="2" stroke-linecap="round" stroke-linejoin="round"/>
<path d="M132.19 416.773H164.979C166.494 416.773 167.979 417.2 169.268 418.004C170.557 418.808 171.598 419.958 172.275 421.326L177.762 432.395C178.013 432.902 178.132 433.465 178.106 434.032C178.08 434.598 177.911 435.148 177.615 435.63C177.318 436.111 176.905 436.509 176.413 436.783C175.922 437.058 175.368 437.202 174.806 437.2H132.19V416.773Z" fill="white" stroke="#263238" stroke-linecap="round" stroke-linejoin="round"/>
<path d="M132.19 416.773H158.605L155.724 437.212H132.19V416.773Z" fill="#263238" stroke="#263238" stroke-linecap="round" stroke-linejoin="round"/>
<path d="M78.7361 416.773H86.7431L86.8428 437.212H75.8552L78.7361 416.773Z" fill="#263238" stroke="#263238" stroke-linecap="round" stroke-linejoin="round"/>
<path d="M435.978 386.548H452.029C453.407 386.548 454.523 387.674 454.523 389.063V401.994C454.523 403.383 453.407 404.509 452.029 404.509H435.978C434.6 404.509 433.484 403.383 433.484 401.994V389.063C433.484 387.674 434.6 386.548 435.978 386.548Z" fill="#263238" stroke="#263238" stroke-linecap="round" stroke-linejoin="round"/>
<path d="M333.098 404.509H353.34V412.672H333.098V404.509Z" fill="#263238" stroke="#263238" stroke-linecap="round" stroke-linejoin="round"/>
<path d="M328.246 401.239V463.287" stroke="#263238" stroke-linecap="round" stroke-linejoin="round"/>
<path d="M465.074 428.999C465.074 428.999 450.258 437.439 448.362 466.28H291.006" stroke="#263238" stroke-linecap="round" stroke-linejoin="round"/>
<path d="M216.537 441.25C216.537 441.25 224.282 420.835 250.211 420.835C268.283 420.835 276.938 430.42 281.266 437.979" stroke="#263238" stroke-linecap="round" stroke-linejoin="round"/>
<path d="M156.336 344.474H113.196" stroke="#263238" stroke-linecap="round" stroke-linejoin="round"/>
<path d="M32.291 400.421H26.9032" stroke="#263238" stroke-linecap="round" stroke-linejoin="round"/>
<path d="M76.2041 400.421H39.2253" stroke="#263238" stroke-linecap="round" stroke-linejoin="round"/>
<path d="M15.4043 374.158H0.999422" stroke="#263238" stroke-linecap="round" stroke-linejoin="round"/>
<path d="M132.627 374.158H33.9129" stroke="#263238" stroke-linecap="round" stroke-linejoin="round"/>
<path d="M63.1094 468.029H45.387" stroke="#263238" stroke-linecap="round" stroke-linejoin="round"/>
<path d="M794.067 495.713H3.05808" stroke="#263238" stroke-linecap="round" stroke-linejoin="round"/>
<path d="M811.814 495.713H804.494" stroke="#263238" stroke-linecap="round" stroke-linejoin="round"/>
<path d="M614.364 164.473V183.579H613.117V164.473H614.364Z" fill="black"/>
<path d="M617.682 183.579H616.547V164.473H618.168L623.855 180.611V164.473H624.99V183.579H623.606L617.682 166.548V183.579Z" fill="black"/>
<path d="M630.391 183.579V165.618H626.524V164.473H635.492V165.618H631.638V183.579H630.391Z" fill="black"/>
<path d="M637.113 183.579V164.473H638.36V182.434H644.309V183.579H637.113Z" fill="black"/>
<path d="M647.402 181.177V183.579H646.155V181.177H647.402Z" fill="black"/>
<path d="M655.584 179.353L654.636 183.579H653.501L657.592 164.435H659.4L663.628 183.579H662.381L661.433 179.353H655.584ZM655.771 178.259H661.333L658.54 165.894L655.771 178.259Z" fill="black"/>
<path d="M666.821 164.473V183.579H665.574V164.473H666.821Z" fill="black"/>
<path d="M672.932 164.473C675.838 164.473 676.998 166.083 676.998 168.787V170.448C676.998 172.686 676.137 173.969 674.266 174.41C676.212 174.85 676.998 176.233 676.998 178.309V181.29C676.935 182.082 677.095 182.875 677.459 183.579H676.212C675.877 182.866 675.735 182.076 675.8 181.29V178.284C675.8 175.768 674.416 175.039 672.259 175.039H670.275V183.579H669.028V164.473H672.932ZM672.234 173.894C674.454 173.894 675.751 173.265 675.751 170.699V168.863C675.751 166.825 674.965 165.592 672.907 165.592H670.226V173.894H672.234Z" fill="black"/>
<path d="M683.358 164.473C686.289 164.473 687.424 166.322 687.424 169.114V171.19C687.424 174.221 686.04 175.718 683.034 175.718H680.677V183.579H679.43V164.473H683.358ZM683.034 174.535C685.229 174.535 686.177 173.554 686.177 171.227V168.988C686.177 166.913 685.479 165.58 683.358 165.58H680.677V174.535H683.034Z" fill="black"/>
<path d="M689.27 169.139C689.27 166.347 690.517 164.309 693.41 164.309C696.304 164.309 697.601 166.347 697.601 169.139V178.925C697.601 181.705 696.354 183.755 693.41 183.755C690.467 183.755 689.27 181.705 689.27 178.925V169.139ZM690.517 179.001C690.517 181.076 691.34 182.598 693.423 182.598C695.505 182.598 696.366 181.076 696.366 179.001V169.051C696.366 166.976 695.53 165.454 693.423 165.454C691.315 165.454 690.517 166.976 690.517 169.051V179.001Z" fill="black"/>
<path d="M703.613 164.473C706.519 164.473 707.678 166.083 707.678 168.787V170.448C707.678 172.686 706.805 173.969 704.947 174.41C706.893 174.85 707.678 176.233 707.678 178.309V181.29C707.616 182.082 707.776 182.875 708.14 183.579H706.893C706.557 182.866 706.415 182.076 706.481 181.29V178.284C706.481 175.768 705.097 175.039 702.939 175.039H700.956V183.579H699.709V164.473H703.613ZM702.914 173.894C705.134 173.894 706.431 173.265 706.431 170.699V168.863C706.431 166.825 705.646 165.592 703.588 165.592H700.906V173.894H702.914Z" fill="black"/>
<path d="M713.39 183.579V165.618H709.523V164.473H718.478V165.618H714.637V183.579H713.39Z" fill="black"/>
<path d="M644.01 136.977H642.326L636.938 114.198V137.015H635.441V111.255H637.848L643.211 134.034L648.537 111.255H650.944V137.015H649.335V114.123L644.01 136.977Z" fill="black"/>
<path d="M655.533 111.255V137.015H653.85V111.255H655.533Z" fill="black"/>
<path d="M660.896 131.304L659.649 137.015H658.09L663.665 111.217H666.159L671.859 137.015H670.175L668.928 131.304H660.896ZM661.158 129.833H668.641L664.899 113.167L661.158 129.833Z" fill="black"/>
<path d="M682.934 136.977H681.288L675.887 114.198V137.015H674.391V111.255H676.798L682.161 134.034L687.486 111.255H689.893V137.015H688.297V114.123L682.934 136.977Z" fill="black"/>
<path d="M694.458 111.255V137.015H692.774V111.255H694.458Z" fill="black"/>
<path d="M598.974 121.254C598.974 122.789 598.974 124.198 598.974 125.594C599.164 126.824 599.117 128.079 598.837 129.292C598.376 130.286 597.091 130.902 596.168 131.682C596.069 131.77 595.944 131.82 595.881 131.921C595.768 132.062 595.694 132.231 595.669 132.411C595.669 133.267 595.669 134.122 595.669 135.053C597.266 134.575 598.725 134.097 600.222 133.707C600.717 133.581 601.235 133.581 601.731 133.707C603.215 134.072 604.687 134.537 606.183 134.965C606.532 132.449 606.457 132.197 604.612 130.701C604.175 130.348 603.726 130.009 603.364 129.631C603.174 129.485 603.042 129.276 602.99 129.04C602.99 126.525 602.99 123.934 602.99 121.242L617.956 125.896C617.956 124.877 617.956 124.009 617.956 123.141C617.996 122.868 617.945 122.59 617.812 122.349C617.679 122.108 617.471 121.918 617.221 121.808C612.743 119.141 608.303 116.437 603.826 113.77C603.515 113.671 603.247 113.467 603.068 113.192C602.888 112.917 602.808 112.588 602.841 112.261C602.841 108.89 602.841 105.519 602.841 102.199C602.882 101.778 602.793 101.354 602.585 100.987C602.377 100.619 602.061 100.326 601.681 100.148C601.365 100.018 601.021 99.9724 600.683 100.016C600.344 100.06 600.023 100.192 599.75 100.398C599.478 100.605 599.263 100.88 599.127 101.195C598.991 101.511 598.938 101.856 598.974 102.199C598.974 105.595 598.974 109.003 598.974 112.412C598.997 112.673 598.938 112.934 598.806 113.16C598.674 113.385 598.476 113.563 598.239 113.67C593.699 116.362 589.197 119.091 584.694 121.808C584.432 121.971 584.046 122.248 584.033 122.487C583.958 123.581 584.033 124.688 584.033 125.908L598.974 121.254Z" fill="black"/>
<path d="M598.974 121.254L584.008 125.959C584.008 124.701 584.008 123.632 584.008 122.537C584.008 122.298 584.407 122.022 584.669 121.858C589.171 119.141 593.673 116.412 598.213 113.72C598.45 113.614 598.649 113.435 598.781 113.21C598.913 112.985 598.971 112.723 598.949 112.462C598.949 109.054 598.949 105.645 598.949 102.249C598.906 101.897 598.956 101.54 599.095 101.215C599.235 100.89 599.458 100.608 599.742 100.399C600.025 100.19 600.359 100.061 600.709 100.026C601.059 99.9904 601.411 100.05 601.73 100.199C602.111 100.377 602.427 100.67 602.634 101.037C602.842 101.405 602.932 101.828 602.89 102.249C602.89 105.632 602.89 109.003 602.89 112.311C602.859 112.612 602.923 112.916 603.073 113.178C603.223 113.44 603.452 113.647 603.726 113.77C608.203 116.437 612.643 119.141 617.12 121.808C617.371 121.918 617.579 122.108 617.712 122.349C617.845 122.59 617.895 122.868 617.856 123.141C617.856 124.009 617.856 124.877 617.856 125.896L602.89 121.242C602.89 123.934 602.89 126.487 602.89 129.04C602.941 129.276 603.074 129.485 603.264 129.631C603.676 130.009 604.125 130.348 604.511 130.701C606.457 132.197 606.457 132.386 606.12 134.965C604.624 134.537 603.152 134.072 601.668 133.707C601.173 133.581 600.654 133.581 600.159 133.707C598.662 134.097 597.203 134.575 595.607 135.053C595.607 134.122 595.607 133.267 595.607 132.411C595.631 132.231 595.705 132.062 595.819 131.921C595.819 131.82 596.006 131.77 596.105 131.682C597.028 130.902 598.313 130.286 598.774 129.292C599.075 128.083 599.143 126.828 598.974 125.594C598.974 124.198 598.974 122.789 598.974 121.254Z" fill="black"/>
<path d="M732.659 187.856L754.584 191.302L751.167 169.19L745.791 174.598L740.403 169.165L732.621 177.001L738.021 182.447L732.659 187.856Z" fill="black"/>
</svg>
