<svg width="812" height="497" viewBox="0 0 812 497" fill="none" xmlns="http://www.w3.org/2000/svg">
<path d="M460.448 208.227H393.998V212.038H460.448V208.227Z" stroke="white" stroke-opacity="0.66" stroke-miterlimit="10"/>
<path d="M466.496 266.502H387.388V270.313H466.496V266.502Z" stroke="white" stroke-opacity="0.66" stroke-miterlimit="10"/>
<path d="M446.604 114.042H407.842V207.724H446.604V114.042Z" stroke="white" stroke-opacity="0.66" stroke-miterlimit="10"/>
<path d="M424.99 85.842H429.455C434.003 85.842 438.365 87.6642 441.581 90.9076C444.797 94.151 446.604 98.5501 446.604 103.137V114.193H407.842V103.137C407.842 98.5501 409.649 94.151 412.865 90.9076C416.081 87.6642 420.442 85.842 424.99 85.842Z" stroke="white" stroke-opacity="0.66" stroke-miterlimit="10"/>
<path d="M426.088 85.842H428.357C430.673 85.842 432.893 86.7697 434.531 88.4209C436.168 90.0721 437.088 92.3116 437.088 94.6467V114.231H417.407V94.6467C417.407 92.3203 418.32 90.0884 419.947 88.4386C421.573 86.7888 423.781 85.8553 426.088 85.842V85.842Z" stroke="white" stroke-opacity="0.66" stroke-miterlimit="10"/>
<path d="M446.604 136.381H407.842V140.444H446.604V136.381Z" stroke="white" stroke-opacity="0.66" stroke-miterlimit="10"/>
<path d="M460.448 199.083H393.998V207.963H460.448V199.083Z" stroke="white" stroke-opacity="0.66" stroke-miterlimit="10"/>
<path d="M457.991 212.026H396.455V266.602H457.991V212.026Z" stroke="white" stroke-opacity="0.66" stroke-miterlimit="10"/>
<path d="M457.991 270.426H396.455V475.047H457.991V270.426Z" stroke="white" stroke-opacity="0.66" stroke-miterlimit="10"/>
<path d="M410.36 220.151H403.812V229.296H410.36V220.151Z" stroke="white" stroke-opacity="0.66" stroke-miterlimit="10"/>
<path d="M429.492 220.151H422.944V229.296H429.492V220.151Z" stroke="white" stroke-opacity="0.66" stroke-miterlimit="10"/>
<path d="M448.624 220.151H442.076V229.296H448.624V220.151Z" stroke="white" stroke-opacity="0.66" stroke-miterlimit="10"/>
<path d="M410.36 246.05H403.812V255.194H410.36V246.05Z" stroke="white" stroke-opacity="0.66" stroke-miterlimit="10"/>
<path d="M410.36 273.722H403.812V282.866H410.36V273.722Z" stroke="white" stroke-opacity="0.66" stroke-miterlimit="10"/>
<path d="M429.492 246.05H422.944V255.194H429.492V246.05Z" stroke="white" stroke-opacity="0.66" stroke-miterlimit="10"/>
<path d="M429.492 273.722H422.944V282.866H429.492V273.722Z" stroke="white" stroke-opacity="0.66" stroke-miterlimit="10"/>
<path d="M448.624 246.05H442.076V255.194H448.624V246.05Z" stroke="white" stroke-opacity="0.66" stroke-miterlimit="10"/>
<path d="M448.624 273.722H442.076V282.866H448.624V273.722Z" stroke="white" stroke-opacity="0.66" stroke-miterlimit="10"/>
<path d="M410.36 294.287H403.812V303.431H410.36V294.287Z" stroke="white" stroke-opacity="0.66" stroke-miterlimit="10"/>
<path d="M429.492 294.287H422.944V303.431H429.492V294.287Z" stroke="white" stroke-opacity="0.66" stroke-miterlimit="10"/>
<path d="M448.624 294.287H442.076V303.431H448.624V294.287Z" stroke="white" stroke-opacity="0.66" stroke-miterlimit="10"/>
<path d="M410.36 314.852H403.812V323.996H410.36V314.852Z" stroke="white" stroke-opacity="0.66" stroke-miterlimit="10"/>
<path d="M429.492 314.852H422.944V323.996H429.492V314.852Z" stroke="white" stroke-opacity="0.66" stroke-miterlimit="10"/>
<path d="M448.624 314.852H442.076V323.996H448.624V314.852Z" stroke="white" stroke-opacity="0.66" stroke-miterlimit="10"/>
<path d="M410.36 335.417H403.812V344.562H410.36V335.417Z" stroke="white" stroke-opacity="0.66" stroke-miterlimit="10"/>
<path d="M429.492 335.417H422.944V344.562H429.492V335.417Z" stroke="white" stroke-opacity="0.66" stroke-miterlimit="10"/>
<path d="M448.624 335.417H442.076V344.562H448.624V335.417Z" stroke="white" stroke-opacity="0.66" stroke-miterlimit="10"/>
<path d="M410.36 355.97H403.812V365.114H410.36V355.97Z" stroke="white" stroke-opacity="0.66" stroke-miterlimit="10"/>
<path d="M429.492 355.97H422.944V365.114H429.492V355.97Z" stroke="white" stroke-opacity="0.66" stroke-miterlimit="10"/>
<path d="M448.624 355.97H442.076V365.114H448.624V355.97Z" stroke="white" stroke-opacity="0.66" stroke-miterlimit="10"/>
<path d="M410.36 376.535H403.812V385.68H410.36V376.535Z" stroke="white" stroke-opacity="0.66" stroke-miterlimit="10"/>
<path d="M429.492 376.535H422.944V385.68H429.492V376.535Z" stroke="white" stroke-opacity="0.66" stroke-miterlimit="10"/>
<path d="M448.624 376.535H442.076V385.68H448.624V376.535Z" stroke="white" stroke-opacity="0.66" stroke-miterlimit="10"/>
<path d="M410.36 397.101H403.812V406.245H410.36V397.101Z" stroke="white" stroke-opacity="0.66" stroke-miterlimit="10"/>
<path d="M429.492 397.101H422.944V406.245H429.492V397.101Z" stroke="white" stroke-opacity="0.66" stroke-miterlimit="10"/>
<path d="M448.624 397.101H442.076V406.245H448.624V397.101Z" stroke="white" stroke-opacity="0.66" stroke-miterlimit="10"/>
<path d="M410.36 417.666H403.812V426.81H410.36V417.666Z" stroke="white" stroke-opacity="0.66" stroke-miterlimit="10"/>
<path d="M429.492 417.666H422.944V426.81H429.492V417.666Z" stroke="white" stroke-opacity="0.66" stroke-miterlimit="10"/>
<path d="M448.624 417.666H442.076V426.81H448.624V417.666Z" stroke="white" stroke-opacity="0.66" stroke-miterlimit="10"/>
<path d="M410.36 438.231H403.812V447.375H410.36V438.231Z" stroke="white" stroke-opacity="0.66" stroke-miterlimit="10"/>
<path d="M429.492 438.231H422.944V447.375H429.492V438.231Z" stroke="white" stroke-opacity="0.66" stroke-miterlimit="10"/>
<path d="M448.624 438.231H442.076V447.375H448.624V438.231Z" stroke="white" stroke-opacity="0.66" stroke-miterlimit="10"/>
<path d="M396.454 244.528H387.699V266.615H396.454V244.528Z" stroke="white" stroke-opacity="0.66" stroke-miterlimit="10"/>
<path d="M394.247 248.075H389.907V266.602H394.247V248.075Z" stroke="white" stroke-opacity="0.66" stroke-miterlimit="10"/>
<path d="M464.226 248.075H459.886V266.602H464.226V248.075Z" stroke="white" stroke-opacity="0.66" stroke-miterlimit="10"/>
<path d="M391.89 234.692L386.228 244.591H397.564L391.89 234.692Z" stroke="white" stroke-opacity="0.66" stroke-miterlimit="10"/>
<path d="M399.56 195.762H393.748V207.724H399.56V195.762Z" stroke="white" stroke-opacity="0.66" stroke-miterlimit="10"/>
<path d="M396.529 179.537L392.775 195.788H400.283L396.529 179.537Z" stroke="white" stroke-opacity="0.66" stroke-miterlimit="10"/>
<path d="M414.663 195.762H408.852V207.724H414.663V195.762Z" stroke="white" stroke-opacity="0.66" stroke-miterlimit="10"/>
<path d="M411.633 179.537L407.866 195.788H415.387L411.633 179.537Z" stroke="white" stroke-opacity="0.66" stroke-miterlimit="10"/>
<path d="M429.767 195.762H423.955V207.724H429.767V195.762Z" stroke="white" stroke-opacity="0.66" stroke-miterlimit="10"/>
<path d="M426.736 179.537L422.97 195.788H430.49L426.736 179.537Z" stroke="white" stroke-opacity="0.66" stroke-miterlimit="10"/>
<path d="M444.87 195.762H439.059V207.724H444.87V195.762Z" stroke="white" stroke-opacity="0.66" stroke-miterlimit="10"/>
<path d="M441.839 179.537L438.085 195.788H445.593L441.839 179.537Z" stroke="white" stroke-opacity="0.66" stroke-miterlimit="10"/>
<path d="M459.973 195.762H454.161V207.724H459.973V195.762Z" stroke="white" stroke-opacity="0.66" stroke-miterlimit="10"/>
<path d="M456.942 179.537L453.188 195.788H460.697L456.942 179.537Z" stroke="white" stroke-opacity="0.66" stroke-miterlimit="10"/>
<path d="M466.434 244.528H457.679V266.615H466.434V244.528Z" stroke="white" stroke-opacity="0.66" stroke-miterlimit="10"/>
<path d="M461.869 234.692L456.207 244.591H467.544L461.869 234.692Z" stroke="white" stroke-opacity="0.66" stroke-miterlimit="10"/>
<path d="M417.906 114.017V136.494" stroke="white" stroke-opacity="0.66" stroke-miterlimit="10"/>
<path d="M421.436 114.017V136.494" stroke="white" stroke-opacity="0.66" stroke-miterlimit="10"/>
<path d="M417.906 140.419V207.712" stroke="white" stroke-opacity="0.66" stroke-miterlimit="10"/>
<path d="M421.436 140.419V207.712" stroke="white" stroke-opacity="0.66" stroke-miterlimit="10"/>
<path d="M433.01 114.017V136.494" stroke="white" stroke-opacity="0.66" stroke-miterlimit="10"/>
<path d="M436.539 114.017V136.494" stroke="white" stroke-opacity="0.66" stroke-miterlimit="10"/>
<path d="M433.01 140.419V207.712" stroke="white" stroke-opacity="0.66" stroke-miterlimit="10"/>
<path d="M436.539 140.419V207.712" stroke="white" stroke-opacity="0.66" stroke-miterlimit="10"/>
<path d="M431.001 76.2073H423.069V86.1063H431.001V76.2073Z" stroke="white" stroke-opacity="0.66" stroke-miterlimit="10"/>
<path d="M426.574 66.5598H427.484C428.414 66.5598 429.305 66.9322 429.962 67.595C430.62 68.2579 430.989 69.1569 430.989 70.0943V74.1696H423.069V70.0943C423.069 69.1569 423.439 68.2579 424.096 67.595C424.753 66.9322 425.644 66.5598 426.574 66.5598V66.5598Z" stroke="white" stroke-opacity="0.66" stroke-miterlimit="10"/>
<path d="M431.001 74.3834H423.069V76.2324H431.001V74.3834Z" stroke="white" stroke-opacity="0.66" stroke-miterlimit="10"/>
<path d="M427.035 66.5599V47.8436" stroke="white" stroke-opacity="0.66" stroke-miterlimit="10"/>
<path d="M420.612 55.8433H433.383" stroke="white" stroke-opacity="0.66" stroke-miterlimit="10"/>
<path d="M428.694 55.6546C428.694 55.3163 428.595 54.9855 428.408 54.7042C428.222 54.4229 427.957 54.2037 427.647 54.0742C427.337 53.9447 426.996 53.9108 426.667 53.9768C426.338 54.0428 426.036 54.2058 425.799 54.445C425.561 54.6842 425.4 54.989 425.334 55.3209C425.269 55.6527 425.302 55.9966 425.431 56.3092C425.559 56.6218 425.777 56.889 426.056 57.0769C426.335 57.2649 426.662 57.3652 426.998 57.3652C427.447 57.3619 427.876 57.1806 428.194 56.8606C428.511 56.5405 428.691 56.1073 428.694 55.6546V55.6546Z" stroke="white" stroke-opacity="0.66" stroke-miterlimit="10"/>
<path d="M396.455 258.112H457.43" stroke="white" stroke-opacity="0.66" stroke-miterlimit="10"/>
<path d="M272.386 425.301V344.071H282.426V212.001H291.218V102.609L296.868 102.584V74.7356H311.31V64.3838H316.873H321.013H331.452V74.7356H346.206V102.584L351.993 102.609V212.001H360.973V344.071H371.249V405.465" stroke="white" stroke-opacity="0.66" stroke-miterlimit="10"/>
<path d="M311.298 74.7356V210.844" stroke="white" stroke-opacity="0.66" stroke-miterlimit="10"/>
<path d="M331.452 74.7356V209.762" stroke="white" stroke-opacity="0.66" stroke-miterlimit="10"/>
<path d="M299.961 210.844H347.179" stroke="white" stroke-opacity="0.66" stroke-miterlimit="10"/>
<path d="M287.077 345.04H355.759" stroke="white" stroke-opacity="0.66" stroke-miterlimit="10"/>
<path d="M303.179 221.673H341.804" stroke="white" stroke-opacity="0.66" stroke-miterlimit="10"/>
<path d="M303.179 231.409H341.804" stroke="white" stroke-opacity="0.66" stroke-miterlimit="10"/>
<path d="M303.179 241.157H341.804" stroke="white" stroke-opacity="0.66" stroke-miterlimit="10"/>
<path d="M303.179 250.892H341.804" stroke="white" stroke-opacity="0.66" stroke-miterlimit="10"/>
<path d="M303.179 260.628H341.804" stroke="white" stroke-opacity="0.66" stroke-miterlimit="10"/>
<path d="M303.179 270.376H341.804" stroke="white" stroke-opacity="0.66" stroke-miterlimit="10"/>
<path d="M303.179 280.111H341.804" stroke="white" stroke-opacity="0.66" stroke-miterlimit="10"/>
<path d="M303.179 289.847H341.804" stroke="white" stroke-opacity="0.66" stroke-miterlimit="10"/>
<path d="M303.179 299.595H341.804" stroke="white" stroke-opacity="0.66" stroke-miterlimit="10"/>
<path d="M303.179 309.33H341.804" stroke="white" stroke-opacity="0.66" stroke-miterlimit="10"/>
<path d="M303.179 319.078H341.804" stroke="white" stroke-opacity="0.66" stroke-miterlimit="10"/>
<path d="M303.179 328.814H341.804" stroke="white" stroke-opacity="0.66" stroke-miterlimit="10"/>
<path d="M303.179 338.549H341.804" stroke="white" stroke-opacity="0.66" stroke-miterlimit="10"/>
<path d="M303.179 353.706H341.804" stroke="white" stroke-opacity="0.66" stroke-miterlimit="10"/>
<path d="M303.179 363.441H341.804" stroke="white" stroke-opacity="0.66" stroke-miterlimit="10"/>
<path d="M303.179 373.189H341.804" stroke="white" stroke-opacity="0.66" stroke-miterlimit="10"/>
<path d="M303.179 382.925H341.804" stroke="white" stroke-opacity="0.66" stroke-miterlimit="10"/>
<path d="M303.179 392.66H341.804" stroke="white" stroke-opacity="0.66" stroke-miterlimit="10"/>
<path d="M303.179 402.408H341.804" stroke="white" stroke-opacity="0.66" stroke-miterlimit="10"/>
<path d="M303.179 412.144H335.368" stroke="white" stroke-opacity="0.66" stroke-miterlimit="10"/>
<path d="M303.179 421.879H335.368" stroke="white" stroke-opacity="0.66" stroke-miterlimit="10"/>
<path d="M303.179 431.627H335.368" stroke="white" stroke-opacity="0.66" stroke-miterlimit="10"/>
<path d="M303.179 441.363H335.368" stroke="white" stroke-opacity="0.66" stroke-miterlimit="10"/>
<path d="M303.179 451.111H335.368" stroke="white" stroke-opacity="0.66" stroke-miterlimit="10"/>
<path d="M297.291 221.673H290.282" stroke="white" stroke-opacity="0.66" stroke-miterlimit="10"/>
<path d="M297.291 231.409H290.282" stroke="white" stroke-opacity="0.66" stroke-miterlimit="10"/>
<path d="M297.291 241.157H290.282" stroke="white" stroke-opacity="0.66" stroke-miterlimit="10"/>
<path d="M297.291 250.892H290.282" stroke="white" stroke-opacity="0.66" stroke-miterlimit="10"/>
<path d="M297.291 260.628H290.282" stroke="white" stroke-opacity="0.66" stroke-miterlimit="10"/>
<path d="M297.291 270.376H290.282" stroke="white" stroke-opacity="0.66" stroke-miterlimit="10"/>
<path d="M297.291 280.111H290.282" stroke="white" stroke-opacity="0.66" stroke-miterlimit="10"/>
<path d="M297.291 289.847H290.282" stroke="white" stroke-opacity="0.66" stroke-miterlimit="10"/>
<path d="M297.291 299.595H290.282" stroke="white" stroke-opacity="0.66" stroke-miterlimit="10"/>
<path d="M297.291 309.33H290.282" stroke="white" stroke-opacity="0.66" stroke-miterlimit="10"/>
<path d="M297.291 319.078H290.282" stroke="white" stroke-opacity="0.66" stroke-miterlimit="10"/>
<path d="M297.291 328.814H290.282" stroke="white" stroke-opacity="0.66" stroke-miterlimit="10"/>
<path d="M297.291 338.549H290.282" stroke="white" stroke-opacity="0.66" stroke-miterlimit="10"/>
<path d="M354.687 221.673H347.678" stroke="white" stroke-opacity="0.66" stroke-miterlimit="10"/>
<path d="M354.687 231.409H347.678" stroke="white" stroke-opacity="0.66" stroke-miterlimit="10"/>
<path d="M354.687 241.157H347.678" stroke="white" stroke-opacity="0.66" stroke-miterlimit="10"/>
<path d="M354.687 250.892H347.678" stroke="white" stroke-opacity="0.66" stroke-miterlimit="10"/>
<path d="M354.687 260.628H347.678" stroke="white" stroke-opacity="0.66" stroke-miterlimit="10"/>
<path d="M354.687 270.376H347.678" stroke="white" stroke-opacity="0.66" stroke-miterlimit="10"/>
<path d="M354.687 280.111H347.678" stroke="white" stroke-opacity="0.66" stroke-miterlimit="10"/>
<path d="M354.687 289.847H347.678" stroke="white" stroke-opacity="0.66" stroke-miterlimit="10"/>
<path d="M354.687 299.595H347.678" stroke="white" stroke-opacity="0.66" stroke-miterlimit="10"/>
<path d="M354.687 309.33H347.678" stroke="white" stroke-opacity="0.66" stroke-miterlimit="10"/>
<path d="M354.687 319.078H347.678" stroke="white" stroke-opacity="0.66" stroke-miterlimit="10"/>
<path d="M354.687 328.814H347.678" stroke="white" stroke-opacity="0.66" stroke-miterlimit="10"/>
<path d="M354.687 338.549H347.678" stroke="white" stroke-opacity="0.66" stroke-miterlimit="10"/>
<path d="M297.291 353.706H290.282" stroke="white" stroke-opacity="0.66" stroke-miterlimit="10"/>
<path d="M297.291 363.441H290.282" stroke="white" stroke-opacity="0.66" stroke-miterlimit="10"/>
<path d="M297.291 373.189H290.282" stroke="white" stroke-opacity="0.66" stroke-miterlimit="10"/>
<path d="M297.291 382.925H290.282" stroke="white" stroke-opacity="0.66" stroke-miterlimit="10"/>
<path d="M297.291 392.66H290.282" stroke="white" stroke-opacity="0.66" stroke-miterlimit="10"/>
<path d="M297.291 402.408H290.282" stroke="white" stroke-opacity="0.66" stroke-miterlimit="10"/>
<path d="M297.291 412.144H290.282" stroke="white" stroke-opacity="0.66" stroke-miterlimit="10"/>
<path d="M297.291 421.879H290.282" stroke="white" stroke-opacity="0.66" stroke-miterlimit="10"/>
<path d="M297.291 431.627H290.282" stroke="white" stroke-opacity="0.66" stroke-miterlimit="10"/>
<path d="M297.291 441.363H290.282" stroke="white" stroke-opacity="0.66" stroke-miterlimit="10"/>
<path d="M297.291 451.111H290.282" stroke="white" stroke-opacity="0.66" stroke-miterlimit="10"/>
<path d="M282.288 353.706H275.279" stroke="white" stroke-opacity="0.66" stroke-miterlimit="10"/>
<path d="M282.288 363.441H275.279" stroke="white" stroke-opacity="0.66" stroke-miterlimit="10"/>
<path d="M282.288 373.189H275.279" stroke="white" stroke-opacity="0.66" stroke-miterlimit="10"/>
<path d="M282.288 382.925H275.279" stroke="white" stroke-opacity="0.66" stroke-miterlimit="10"/>
<path d="M282.288 392.66H275.279" stroke="white" stroke-opacity="0.66" stroke-miterlimit="10"/>
<path d="M282.288 402.408H275.279" stroke="white" stroke-opacity="0.66" stroke-miterlimit="10"/>
<path d="M282.288 412.144H275.279" stroke="white" stroke-opacity="0.66" stroke-miterlimit="10"/>
<path d="M282.288 421.879H275.279" stroke="white" stroke-opacity="0.66" stroke-miterlimit="10"/>
<path d="M354.687 353.706H347.678" stroke="white" stroke-opacity="0.66" stroke-miterlimit="10"/>
<path d="M354.687 363.441H347.678" stroke="white" stroke-opacity="0.66" stroke-miterlimit="10"/>
<path d="M354.687 373.189H347.678" stroke="white" stroke-opacity="0.66" stroke-miterlimit="10"/>
<path d="M354.687 382.925H347.678" stroke="white" stroke-opacity="0.66" stroke-miterlimit="10"/>
<path d="M354.687 392.66H347.678" stroke="white" stroke-opacity="0.66" stroke-miterlimit="10"/>
<path d="M354.687 402.408H347.678" stroke="white" stroke-opacity="0.66" stroke-miterlimit="10"/>
<path d="M367.558 353.706H360.549" stroke="white" stroke-opacity="0.66" stroke-miterlimit="10"/>
<path d="M367.558 363.441H360.549" stroke="white" stroke-opacity="0.66" stroke-miterlimit="10"/>
<path d="M367.558 373.189H360.549" stroke="white" stroke-opacity="0.66" stroke-miterlimit="10"/>
<path d="M367.558 382.925H360.549" stroke="white" stroke-opacity="0.66" stroke-miterlimit="10"/>
<path d="M367.558 392.66H360.549" stroke="white" stroke-opacity="0.66" stroke-miterlimit="10"/>
<path d="M367.558 402.408H360.549" stroke="white" stroke-opacity="0.66" stroke-miterlimit="10"/>
<path d="M295.67 119.941H307.468" stroke="white" stroke-opacity="0.66" stroke-miterlimit="10"/>
<path d="M295.67 128.595H307.468" stroke="white" stroke-opacity="0.66" stroke-miterlimit="10"/>
<path d="M295.67 137.261H307.468" stroke="white" stroke-opacity="0.66" stroke-miterlimit="10"/>
<path d="M295.67 145.915H307.468" stroke="white" stroke-opacity="0.66" stroke-miterlimit="10"/>
<path d="M295.67 154.569H307.468" stroke="white" stroke-opacity="0.66" stroke-miterlimit="10"/>
<path d="M295.67 163.235H307.468" stroke="white" stroke-opacity="0.66" stroke-miterlimit="10"/>
<path d="M295.67 171.889H307.468" stroke="white" stroke-opacity="0.66" stroke-miterlimit="10"/>
<path d="M295.67 180.543H307.468" stroke="white" stroke-opacity="0.66" stroke-miterlimit="10"/>
<path d="M295.67 189.209H307.468" stroke="white" stroke-opacity="0.66" stroke-miterlimit="10"/>
<path d="M295.67 197.863H307.468" stroke="white" stroke-opacity="0.66" stroke-miterlimit="10"/>
<path d="M295.67 206.517H307.468" stroke="white" stroke-opacity="0.66" stroke-miterlimit="10"/>
<path d="M333.223 119.941H345.033" stroke="white" stroke-opacity="0.66" stroke-miterlimit="10"/>
<path d="M333.223 128.595H345.033" stroke="white" stroke-opacity="0.66" stroke-miterlimit="10"/>
<path d="M333.223 137.261H345.033" stroke="white" stroke-opacity="0.66" stroke-miterlimit="10"/>
<path d="M333.223 145.915H345.033" stroke="white" stroke-opacity="0.66" stroke-miterlimit="10"/>
<path d="M333.223 154.569H345.033" stroke="white" stroke-opacity="0.66" stroke-miterlimit="10"/>
<path d="M333.223 163.235H345.033" stroke="white" stroke-opacity="0.66" stroke-miterlimit="10"/>
<path d="M333.223 171.889H345.033" stroke="white" stroke-opacity="0.66" stroke-miterlimit="10"/>
<path d="M333.223 180.543H345.033" stroke="white" stroke-opacity="0.66" stroke-miterlimit="10"/>
<path d="M333.223 189.209H345.033" stroke="white" stroke-opacity="0.66" stroke-miterlimit="10"/>
<path d="M333.223 197.863H345.033" stroke="white" stroke-opacity="0.66" stroke-miterlimit="10"/>
<path d="M333.223 206.517H345.033" stroke="white" stroke-opacity="0.66" stroke-miterlimit="10"/>
<path d="M131.479 473.55V344.071H145.598V212.001H157.945V102.609L165.877 102.584V74.7356H186.156V64.3838H193.988H199.8H214.454V74.7356H235.207V102.584L243.326 102.609V212.001H255.948V344.071H270.378V425.301" stroke="white" stroke-opacity="0.66" stroke-miterlimit="10"/>
<path d="M186.156 74.7356V210.844" stroke="white" stroke-opacity="0.66" stroke-miterlimit="10"/>
<path d="M214.454 74.7356V209.762" stroke="white" stroke-opacity="0.66" stroke-miterlimit="10"/>
<path d="M170.217 210.844H236.554" stroke="white" stroke-opacity="0.66" stroke-miterlimit="10"/>
<path d="M152.133 345.04H248.614" stroke="white" stroke-opacity="0.66" stroke-miterlimit="10"/>
<path d="M174.744 221.673H229.021" stroke="white" stroke-opacity="0.66" stroke-miterlimit="10"/>
<path d="M174.744 231.409H229.021" stroke="white" stroke-opacity="0.66" stroke-miterlimit="10"/>
<path d="M174.744 241.157H229.021" stroke="white" stroke-opacity="0.66" stroke-miterlimit="10"/>
<path d="M174.744 250.892H229.021" stroke="white" stroke-opacity="0.66" stroke-miterlimit="10"/>
<path d="M174.744 260.628H229.021" stroke="white" stroke-opacity="0.66" stroke-miterlimit="10"/>
<path d="M174.744 270.376H229.021" stroke="white" stroke-opacity="0.66" stroke-miterlimit="10"/>
<path d="M174.744 280.111H229.021" stroke="white" stroke-opacity="0.66" stroke-miterlimit="10"/>
<path d="M174.744 289.847H229.021" stroke="white" stroke-opacity="0.66" stroke-miterlimit="10"/>
<path d="M174.744 299.595H229.021" stroke="white" stroke-opacity="0.66" stroke-miterlimit="10"/>
<path d="M174.744 309.33H229.021" stroke="white" stroke-opacity="0.66" stroke-miterlimit="10"/>
<path d="M174.744 319.078H229.021" stroke="white" stroke-opacity="0.66" stroke-miterlimit="10"/>
<path d="M174.744 328.814H229.021" stroke="white" stroke-opacity="0.66" stroke-miterlimit="10"/>
<path d="M174.744 338.549H229.021" stroke="white" stroke-opacity="0.66" stroke-miterlimit="10"/>
<path d="M174.744 353.706H229.021" stroke="white" stroke-opacity="0.66" stroke-miterlimit="10"/>
<path d="M174.744 363.441H229.021" stroke="white" stroke-opacity="0.66" stroke-miterlimit="10"/>
<path d="M174.744 373.189H229.021" stroke="white" stroke-opacity="0.66" stroke-miterlimit="10"/>
<path d="M174.744 382.925H229.021" stroke="white" stroke-opacity="0.66" stroke-miterlimit="10"/>
<path d="M174.744 392.66H229.021" stroke="white" stroke-opacity="0.66" stroke-miterlimit="10"/>
<path d="M174.744 402.408H229.021" stroke="white" stroke-opacity="0.66" stroke-miterlimit="10"/>
<path d="M174.744 412.144H229.021" stroke="white" stroke-opacity="0.66" stroke-miterlimit="10"/>
<path d="M174.744 421.879H229.021" stroke="white" stroke-opacity="0.66" stroke-miterlimit="10"/>
<path d="M166.475 221.673H156.623" stroke="white" stroke-opacity="0.66" stroke-miterlimit="10"/>
<path d="M166.475 231.409H156.623" stroke="white" stroke-opacity="0.66" stroke-miterlimit="10"/>
<path d="M166.475 241.157H156.623" stroke="white" stroke-opacity="0.66" stroke-miterlimit="10"/>
<path d="M166.475 250.892H156.623" stroke="white" stroke-opacity="0.66" stroke-miterlimit="10"/>
<path d="M166.475 260.628H156.623" stroke="white" stroke-opacity="0.66" stroke-miterlimit="10"/>
<path d="M166.475 270.376H156.623" stroke="white" stroke-opacity="0.66" stroke-miterlimit="10"/>
<path d="M166.475 280.111H156.623" stroke="white" stroke-opacity="0.66" stroke-miterlimit="10"/>
<path d="M166.475 289.847H156.623" stroke="white" stroke-opacity="0.66" stroke-miterlimit="10"/>
<path d="M166.475 299.595H156.623" stroke="white" stroke-opacity="0.66" stroke-miterlimit="10"/>
<path d="M166.475 309.33H156.623" stroke="white" stroke-opacity="0.66" stroke-miterlimit="10"/>
<path d="M166.475 319.078H156.623" stroke="white" stroke-opacity="0.66" stroke-miterlimit="10"/>
<path d="M166.475 328.814H156.623" stroke="white" stroke-opacity="0.66" stroke-miterlimit="10"/>
<path d="M166.475 338.549H156.623" stroke="white" stroke-opacity="0.66" stroke-miterlimit="10"/>
<path d="M247.105 221.673H237.265" stroke="white" stroke-opacity="0.66" stroke-miterlimit="10"/>
<path d="M247.105 231.409H237.265" stroke="white" stroke-opacity="0.66" stroke-miterlimit="10"/>
<path d="M247.105 241.157H237.265" stroke="white" stroke-opacity="0.66" stroke-miterlimit="10"/>
<path d="M247.105 250.892H237.265" stroke="white" stroke-opacity="0.66" stroke-miterlimit="10"/>
<path d="M247.105 260.628H237.265" stroke="white" stroke-opacity="0.66" stroke-miterlimit="10"/>
<path d="M247.105 270.376H237.265" stroke="white" stroke-opacity="0.66" stroke-miterlimit="10"/>
<path d="M247.105 280.111H237.265" stroke="white" stroke-opacity="0.66" stroke-miterlimit="10"/>
<path d="M247.105 289.847H237.265" stroke="white" stroke-opacity="0.66" stroke-miterlimit="10"/>
<path d="M247.105 299.595H237.265" stroke="white" stroke-opacity="0.66" stroke-miterlimit="10"/>
<path d="M247.105 309.33H237.265" stroke="white" stroke-opacity="0.66" stroke-miterlimit="10"/>
<path d="M247.105 319.078H237.265" stroke="white" stroke-opacity="0.66" stroke-miterlimit="10"/>
<path d="M247.105 328.814H237.265" stroke="white" stroke-opacity="0.66" stroke-miterlimit="10"/>
<path d="M247.105 338.549H237.265" stroke="white" stroke-opacity="0.66" stroke-miterlimit="10"/>
<path d="M166.475 353.706H156.623" stroke="white" stroke-opacity="0.66" stroke-miterlimit="10"/>
<path d="M166.475 363.441H156.623" stroke="white" stroke-opacity="0.66" stroke-miterlimit="10"/>
<path d="M166.475 373.189H156.623" stroke="white" stroke-opacity="0.66" stroke-miterlimit="10"/>
<path d="M166.475 382.925H156.623" stroke="white" stroke-opacity="0.66" stroke-miterlimit="10"/>
<path d="M166.475 392.66H156.623" stroke="white" stroke-opacity="0.66" stroke-miterlimit="10"/>
<path d="M166.475 402.408H156.623" stroke="white" stroke-opacity="0.66" stroke-miterlimit="10"/>
<path d="M166.475 412.144H156.623" stroke="white" stroke-opacity="0.66" stroke-miterlimit="10"/>
<path d="M166.475 421.879H156.623" stroke="white" stroke-opacity="0.66" stroke-miterlimit="10"/>
<path d="M166.475 431.627H156.623" stroke="white" stroke-opacity="0.66" stroke-miterlimit="10"/>
<path d="M166.475 441.363H156.623" stroke="white" stroke-opacity="0.66" stroke-miterlimit="10"/>
<path d="M166.475 451.111H156.623" stroke="white" stroke-opacity="0.66" stroke-miterlimit="10"/>
<path d="M166.475 460.847H156.623" stroke="white" stroke-opacity="0.66" stroke-miterlimit="10"/>
<path d="M166.475 470.582H156.623" stroke="white" stroke-opacity="0.66" stroke-miterlimit="10"/>
<path d="M145.398 353.706H135.545" stroke="white" stroke-opacity="0.66" stroke-miterlimit="10"/>
<path d="M145.398 363.441H135.545" stroke="white" stroke-opacity="0.66" stroke-miterlimit="10"/>
<path d="M145.398 373.189H135.545" stroke="white" stroke-opacity="0.66" stroke-miterlimit="10"/>
<path d="M145.398 382.925H135.545" stroke="white" stroke-opacity="0.66" stroke-miterlimit="10"/>
<path d="M145.398 392.66H135.545" stroke="white" stroke-opacity="0.66" stroke-miterlimit="10"/>
<path d="M145.398 402.408H135.545" stroke="white" stroke-opacity="0.66" stroke-miterlimit="10"/>
<path d="M145.398 412.144H135.545" stroke="white" stroke-opacity="0.66" stroke-miterlimit="10"/>
<path d="M145.398 421.879H135.545" stroke="white" stroke-opacity="0.66" stroke-miterlimit="10"/>
<path d="M145.398 431.627H135.545" stroke="white" stroke-opacity="0.66" stroke-miterlimit="10"/>
<path d="M145.398 441.363H135.545" stroke="white" stroke-opacity="0.66" stroke-miterlimit="10"/>
<path d="M145.398 451.111H135.545" stroke="white" stroke-opacity="0.66" stroke-miterlimit="10"/>
<path d="M145.398 460.847H135.545" stroke="white" stroke-opacity="0.66" stroke-miterlimit="10"/>
<path d="M145.398 470.582H135.545" stroke="white" stroke-opacity="0.66" stroke-miterlimit="10"/>
<path d="M247.105 353.706H237.265" stroke="white" stroke-opacity="0.66" stroke-miterlimit="10"/>
<path d="M247.105 363.441H237.265" stroke="white" stroke-opacity="0.66" stroke-miterlimit="10"/>
<path d="M247.105 373.189H237.265" stroke="white" stroke-opacity="0.66" stroke-miterlimit="10"/>
<path d="M247.105 382.925H237.265" stroke="white" stroke-opacity="0.66" stroke-miterlimit="10"/>
<path d="M247.105 392.66H237.265" stroke="white" stroke-opacity="0.66" stroke-miterlimit="10"/>
<path d="M247.105 402.408H237.265" stroke="white" stroke-opacity="0.66" stroke-miterlimit="10"/>
<path d="M247.105 412.144H237.265" stroke="white" stroke-opacity="0.66" stroke-miterlimit="10"/>
<path d="M247.105 421.879H237.265" stroke="white" stroke-opacity="0.66" stroke-miterlimit="10"/>
<path d="M265.201 353.706H255.349" stroke="white" stroke-opacity="0.66" stroke-miterlimit="10"/>
<path d="M265.201 363.441H255.349" stroke="white" stroke-opacity="0.66" stroke-miterlimit="10"/>
<path d="M265.201 373.189H255.349" stroke="white" stroke-opacity="0.66" stroke-miterlimit="10"/>
<path d="M265.201 382.925H255.349" stroke="white" stroke-opacity="0.66" stroke-miterlimit="10"/>
<path d="M265.201 392.66H255.349" stroke="white" stroke-opacity="0.66" stroke-miterlimit="10"/>
<path d="M265.201 402.408H255.349" stroke="white" stroke-opacity="0.66" stroke-miterlimit="10"/>
<path d="M265.201 412.144H255.349" stroke="white" stroke-opacity="0.66" stroke-miterlimit="10"/>
<path d="M265.201 421.879H255.349" stroke="white" stroke-opacity="0.66" stroke-miterlimit="10"/>
<path d="M164.193 119.941H180.78" stroke="white" stroke-opacity="0.66" stroke-miterlimit="10"/>
<path d="M164.193 128.595H180.78" stroke="white" stroke-opacity="0.66" stroke-miterlimit="10"/>
<path d="M164.193 137.261H180.78" stroke="white" stroke-opacity="0.66" stroke-miterlimit="10"/>
<path d="M164.193 145.915H180.78" stroke="white" stroke-opacity="0.66" stroke-miterlimit="10"/>
<path d="M164.193 154.569H180.78" stroke="white" stroke-opacity="0.66" stroke-miterlimit="10"/>
<path d="M164.193 163.235H180.78" stroke="white" stroke-opacity="0.66" stroke-miterlimit="10"/>
<path d="M164.193 171.889H180.78" stroke="white" stroke-opacity="0.66" stroke-miterlimit="10"/>
<path d="M164.193 180.543H180.78" stroke="white" stroke-opacity="0.66" stroke-miterlimit="10"/>
<path d="M164.193 189.209H180.78" stroke="white" stroke-opacity="0.66" stroke-miterlimit="10"/>
<path d="M164.193 197.863H180.78" stroke="white" stroke-opacity="0.66" stroke-miterlimit="10"/>
<path d="M164.193 206.517H180.78" stroke="white" stroke-opacity="0.66" stroke-miterlimit="10"/>
<path d="M216.961 119.941H233.536" stroke="white" stroke-opacity="0.66" stroke-miterlimit="10"/>
<path d="M216.961 128.595H233.536" stroke="white" stroke-opacity="0.66" stroke-miterlimit="10"/>
<path d="M216.961 137.261H233.536" stroke="white" stroke-opacity="0.66" stroke-miterlimit="10"/>
<path d="M216.961 145.915H233.536" stroke="white" stroke-opacity="0.66" stroke-miterlimit="10"/>
<path d="M216.961 154.569H233.536" stroke="white" stroke-opacity="0.66" stroke-miterlimit="10"/>
<path d="M216.961 163.235H233.536" stroke="white" stroke-opacity="0.66" stroke-miterlimit="10"/>
<path d="M216.961 171.889H233.536" stroke="white" stroke-opacity="0.66" stroke-miterlimit="10"/>
<path d="M216.961 180.543H233.536" stroke="white" stroke-opacity="0.66" stroke-miterlimit="10"/>
<path d="M216.961 189.209H233.536" stroke="white" stroke-opacity="0.66" stroke-miterlimit="10"/>
<path d="M216.961 197.863H233.536" stroke="white" stroke-opacity="0.66" stroke-miterlimit="10"/>
<path d="M216.961 206.517H233.536" stroke="white" stroke-opacity="0.66" stroke-miterlimit="10"/>
<path d="M165.876 102.584H184.06" stroke="white" stroke-opacity="0.66" stroke-miterlimit="10"/>
<path d="M235.208 102.584H215.19" stroke="white" stroke-opacity="0.66" stroke-miterlimit="10"/>
<path d="M187.291 85.3138H213.045" stroke="white" stroke-opacity="0.66" stroke-miterlimit="10"/>
<path d="M629.389 420.383V250.892H471.646V395.34" stroke="white" stroke-opacity="0.66" stroke-miterlimit="10"/>
<path d="M629.39 211.925H575.736V249.798H629.39V211.925Z" stroke="white" stroke-opacity="0.66" stroke-miterlimit="10"/>
<path d="M525.3 211.925H471.646V249.798H525.3V211.925Z" stroke="white" stroke-opacity="0.66" stroke-miterlimit="10"/>
<path d="M498.473 211.925H471.646V249.798H498.473V211.925Z" stroke="white" stroke-opacity="0.66" stroke-miterlimit="10"/>
<path d="M626.172 234.654H578.954V250.892H626.172V234.654Z" stroke="white" stroke-opacity="0.66" stroke-miterlimit="10"/>
<path d="M590.752 215.183H578.954V227.082H590.752V215.183Z" stroke="white" stroke-opacity="0.66" stroke-miterlimit="10"/>
<path d="M610.083 215.183H595.055V227.082H610.083V215.183Z" stroke="white" stroke-opacity="0.66" stroke-miterlimit="10"/>
<path d="M626.172 215.183H614.374V227.082H626.172V215.183Z" stroke="white" stroke-opacity="0.66" stroke-miterlimit="10"/>
<path d="M501.691 257.383V395.893" stroke="white" stroke-opacity="0.66" stroke-miterlimit="10"/>
<path d="M514.575 257.383V395.893" stroke="white" stroke-opacity="0.66" stroke-miterlimit="10"/>
<path d="M548.909 257.383V421.502" stroke="white" stroke-opacity="0.66" stroke-miterlimit="10"/>
<path d="M561.793 257.383V421.502" stroke="white" stroke-opacity="0.66" stroke-miterlimit="10"/>
<path d="M596.128 257.383V421.502" stroke="white" stroke-opacity="0.66" stroke-miterlimit="10"/>
<path d="M609.011 257.383V421.502" stroke="white" stroke-opacity="0.66" stroke-miterlimit="10"/>
<path d="M493.111 258.464H486.102" stroke="white" stroke-opacity="0.66" stroke-miterlimit="10"/>
<path d="M493.111 266.98H486.102" stroke="white" stroke-opacity="0.66" stroke-miterlimit="10"/>
<path d="M493.111 275.495H486.102" stroke="white" stroke-opacity="0.66" stroke-miterlimit="10"/>
<path d="M493.111 283.998H486.102" stroke="white" stroke-opacity="0.66" stroke-miterlimit="10"/>
<path d="M493.111 292.513H486.102" stroke="white" stroke-opacity="0.66" stroke-miterlimit="10"/>
<path d="M493.111 301.029H486.102" stroke="white" stroke-opacity="0.66" stroke-miterlimit="10"/>
<path d="M493.111 309.532H486.102" stroke="white" stroke-opacity="0.66" stroke-miterlimit="10"/>
<path d="M493.111 318.047H486.102" stroke="white" stroke-opacity="0.66" stroke-miterlimit="10"/>
<path d="M493.111 326.562H486.102" stroke="white" stroke-opacity="0.66" stroke-miterlimit="10"/>
<path d="M493.111 335.078H486.102" stroke="white" stroke-opacity="0.66" stroke-miterlimit="10"/>
<path d="M493.111 343.581H486.102" stroke="white" stroke-opacity="0.66" stroke-miterlimit="10"/>
<path d="M493.111 352.096H486.102" stroke="white" stroke-opacity="0.66" stroke-miterlimit="10"/>
<path d="M493.111 360.611H486.102" stroke="white" stroke-opacity="0.66" stroke-miterlimit="10"/>
<path d="M493.111 366.284H486.102" stroke="white" stroke-opacity="0.66" stroke-miterlimit="10"/>
<path d="M493.111 374.787H486.102" stroke="white" stroke-opacity="0.66" stroke-miterlimit="10"/>
<path d="M493.111 383.302H486.102" stroke="white" stroke-opacity="0.66" stroke-miterlimit="10"/>
<path d="M493.111 391.818H486.102" stroke="white" stroke-opacity="0.66" stroke-miterlimit="10"/>
<path d="M534.966 258.464H527.957" stroke="white" stroke-opacity="0.66" stroke-miterlimit="10"/>
<path d="M534.966 266.98H527.957" stroke="white" stroke-opacity="0.66" stroke-miterlimit="10"/>
<path d="M534.966 275.495H527.957" stroke="white" stroke-opacity="0.66" stroke-miterlimit="10"/>
<path d="M534.966 283.998H527.957" stroke="white" stroke-opacity="0.66" stroke-miterlimit="10"/>
<path d="M534.966 292.513H527.957" stroke="white" stroke-opacity="0.66" stroke-miterlimit="10"/>
<path d="M534.966 301.029H527.957" stroke="white" stroke-opacity="0.66" stroke-miterlimit="10"/>
<path d="M534.966 309.532H527.957" stroke="white" stroke-opacity="0.66" stroke-miterlimit="10"/>
<path d="M534.966 318.047H527.957" stroke="white" stroke-opacity="0.66" stroke-miterlimit="10"/>
<path d="M534.966 326.562H527.957" stroke="white" stroke-opacity="0.66" stroke-miterlimit="10"/>
<path d="M534.966 335.078H527.957" stroke="white" stroke-opacity="0.66" stroke-miterlimit="10"/>
<path d="M534.966 343.581H527.957" stroke="white" stroke-opacity="0.66" stroke-miterlimit="10"/>
<path d="M534.966 352.096H527.957" stroke="white" stroke-opacity="0.66" stroke-miterlimit="10"/>
<path d="M534.966 360.611H527.957" stroke="white" stroke-opacity="0.66" stroke-miterlimit="10"/>
<path d="M534.966 366.284H527.957" stroke="white" stroke-opacity="0.66" stroke-miterlimit="10"/>
<path d="M534.966 374.787H527.957" stroke="white" stroke-opacity="0.66" stroke-miterlimit="10"/>
<path d="M534.966 383.302H527.957" stroke="white" stroke-opacity="0.66" stroke-miterlimit="10"/>
<path d="M534.966 391.818H527.957" stroke="white" stroke-opacity="0.66" stroke-miterlimit="10"/>
<path d="M582.184 258.464H575.175" stroke="white" stroke-opacity="0.66" stroke-miterlimit="10"/>
<path d="M582.184 266.98H575.175" stroke="white" stroke-opacity="0.66" stroke-miterlimit="10"/>
<path d="M582.184 275.495H575.175" stroke="white" stroke-opacity="0.66" stroke-miterlimit="10"/>
<path d="M582.184 283.998H575.175" stroke="white" stroke-opacity="0.66" stroke-miterlimit="10"/>
<path d="M582.184 292.513H575.175" stroke="white" stroke-opacity="0.66" stroke-miterlimit="10"/>
<path d="M582.184 301.029H575.175" stroke="white" stroke-opacity="0.66" stroke-miterlimit="10"/>
<path d="M582.184 309.532H575.175" stroke="white" stroke-opacity="0.66" stroke-miterlimit="10"/>
<path d="M582.184 318.047H575.175" stroke="white" stroke-opacity="0.66" stroke-miterlimit="10"/>
<path d="M582.184 326.562H575.175" stroke="white" stroke-opacity="0.66" stroke-miterlimit="10"/>
<path d="M582.184 335.078H575.175" stroke="white" stroke-opacity="0.66" stroke-miterlimit="10"/>
<path d="M582.184 343.581H575.175" stroke="white" stroke-opacity="0.66" stroke-miterlimit="10"/>
<path d="M582.184 352.096H575.175" stroke="white" stroke-opacity="0.66" stroke-miterlimit="10"/>
<path d="M582.184 360.611H575.175" stroke="white" stroke-opacity="0.66" stroke-miterlimit="10"/>
<path d="M582.184 366.284H575.175" stroke="white" stroke-opacity="0.66" stroke-miterlimit="10"/>
<path d="M582.184 374.787H575.175" stroke="white" stroke-opacity="0.66" stroke-miterlimit="10"/>
<path d="M582.184 383.302H575.175" stroke="white" stroke-opacity="0.66" stroke-miterlimit="10"/>
<path d="M582.184 391.818H575.175" stroke="white" stroke-opacity="0.66" stroke-miterlimit="10"/>
<path d="M582.184 400.333H575.175" stroke="white" stroke-opacity="0.66" stroke-miterlimit="10"/>
<path d="M582.184 408.836H575.175" stroke="white" stroke-opacity="0.66" stroke-miterlimit="10"/>
<path d="M582.184 417.351H575.175" stroke="white" stroke-opacity="0.66" stroke-miterlimit="10"/>
<path d="M619.737 258.464H612.728" stroke="white" stroke-opacity="0.66" stroke-miterlimit="10"/>
<path d="M619.737 266.98H612.728" stroke="white" stroke-opacity="0.66" stroke-miterlimit="10"/>
<path d="M619.737 275.495H612.728" stroke="white" stroke-opacity="0.66" stroke-miterlimit="10"/>
<path d="M619.737 283.998H612.728" stroke="white" stroke-opacity="0.66" stroke-miterlimit="10"/>
<path d="M619.737 292.513H612.728" stroke="white" stroke-opacity="0.66" stroke-miterlimit="10"/>
<path d="M619.737 301.029H612.728" stroke="white" stroke-opacity="0.66" stroke-miterlimit="10"/>
<path d="M619.737 309.532H612.728" stroke="white" stroke-opacity="0.66" stroke-miterlimit="10"/>
<path d="M619.737 318.047H612.728" stroke="white" stroke-opacity="0.66" stroke-miterlimit="10"/>
<path d="M619.737 326.562H612.728" stroke="white" stroke-opacity="0.66" stroke-miterlimit="10"/>
<path d="M619.737 335.078H612.728" stroke="white" stroke-opacity="0.66" stroke-miterlimit="10"/>
<path d="M619.737 343.581H612.728" stroke="white" stroke-opacity="0.66" stroke-miterlimit="10"/>
<path d="M619.737 352.096H612.728" stroke="white" stroke-opacity="0.66" stroke-miterlimit="10"/>
<path d="M619.737 360.611H612.728" stroke="white" stroke-opacity="0.66" stroke-miterlimit="10"/>
<path d="M619.737 366.284H612.728" stroke="white" stroke-opacity="0.66" stroke-miterlimit="10"/>
<path d="M619.737 374.787H612.728" stroke="white" stroke-opacity="0.66" stroke-miterlimit="10"/>
<path d="M619.737 383.302H612.728" stroke="white" stroke-opacity="0.66" stroke-miterlimit="10"/>
<path d="M619.737 391.818H612.728" stroke="white" stroke-opacity="0.66" stroke-miterlimit="10"/>
<path d="M619.737 400.333H612.728" stroke="white" stroke-opacity="0.66" stroke-miterlimit="10"/>
<path d="M619.737 408.836H612.728" stroke="white" stroke-opacity="0.66" stroke-miterlimit="10"/>
<path d="M619.737 417.351H612.728" stroke="white" stroke-opacity="0.66" stroke-miterlimit="10"/>
<path d="M145.435 279.03H105.725V396.987H85.3465V284.438H10.229" stroke="white" stroke-opacity="0.66" stroke-miterlimit="10"/>
<path d="M156.161 132.935H127.189L134.71 149.16H112.173L118.609 156.733" stroke="white" stroke-opacity="0.66" stroke-miterlimit="10"/>
<path d="M156.011 157.261H112.248L118.247 164.732" stroke="white" stroke-opacity="0.66" stroke-miterlimit="10"/>
<path d="M156.011 164.732H112.248L118.247 172.216" stroke="white" stroke-opacity="0.66" stroke-miterlimit="10"/>
<path d="M156.011 172.216H112.248L118.247 179.688" stroke="white" stroke-opacity="0.66" stroke-miterlimit="10"/>
<path d="M156.011 179.688H112.248L118.247 187.159" stroke="white" stroke-opacity="0.66" stroke-miterlimit="10"/>
<path d="M156.011 187.159H112.248L118.247 194.63" stroke="white" stroke-opacity="0.66" stroke-miterlimit="10"/>
<path d="M156.011 194.63H112.248L118.247 202.102" stroke="white" stroke-opacity="0.66" stroke-miterlimit="10"/>
<path d="M156.011 202.102H112.248L118.247 209.586" stroke="white" stroke-opacity="0.66" stroke-miterlimit="10"/>
<path d="M156.011 209.586H112.248L118.247 217.057" stroke="white" stroke-opacity="0.66" stroke-miterlimit="10"/>
<path d="M145.373 217.057H112.248L118.247 224.529" stroke="white" stroke-opacity="0.66" stroke-miterlimit="10"/>
<path d="M145.373 224.529H112.248L118.247 232" stroke="white" stroke-opacity="0.66" stroke-miterlimit="10"/>
<path d="M145.373 232H112.248L118.247 239.471" stroke="white" stroke-opacity="0.66" stroke-miterlimit="10"/>
<path d="M145.373 239.471H112.248L118.247 246.943" stroke="white" stroke-opacity="0.66" stroke-miterlimit="10"/>
<path d="M145.672 246.943H112.248L118.247 254.427" stroke="white" stroke-opacity="0.66" stroke-miterlimit="10"/>
<path d="M145.672 254.427H112.248L118.247 261.898" stroke="white" stroke-opacity="0.66" stroke-miterlimit="10"/>
<path d="M145.959 261.898H112.248L118.247 269.37" stroke="white" stroke-opacity="0.66" stroke-miterlimit="10"/>
<path d="M145.672 269.37H112.248L118.247 276.841" stroke="white" stroke-opacity="0.66" stroke-miterlimit="10"/>
<path d="M397.614 405.654H336.44V458.683H286.005V426.219H171.189V477.085" stroke="white" stroke-opacity="0.66" stroke-miterlimit="10"/>
<path d="M457.703 395.906H543.546V420.798H652.999V438.118H676.608V474.909" stroke="white" stroke-opacity="0.66" stroke-miterlimit="10"/>
<path d="M629.39 358.033H688.418" stroke="white" stroke-opacity="0.66" stroke-miterlimit="10"/>
<path d="M457.791 406.735H542.474" stroke="white" stroke-opacity="0.66" stroke-miterlimit="10"/>
<path d="M470.462 411.062H460.26V418.634H470.462V411.062Z" stroke="white" stroke-opacity="0.66" stroke-miterlimit="10"/>
<path d="M493.036 411.062H482.834V418.634H493.036V411.062Z" stroke="white" stroke-opacity="0.66" stroke-miterlimit="10"/>
<path d="M515.61 411.062H505.408V418.634H515.61V411.062Z" stroke="white" stroke-opacity="0.66" stroke-miterlimit="10"/>
<path d="M538.183 411.062H527.981V418.634H538.183V411.062Z" stroke="white" stroke-opacity="0.66" stroke-miterlimit="10"/>
<path d="M457.791 431.263H542.474" stroke="white" stroke-opacity="0.66" stroke-miterlimit="10"/>
<path d="M470.462 435.59H460.26V443.162H470.462V435.59Z" stroke="white" stroke-opacity="0.66" stroke-miterlimit="10"/>
<path d="M493.036 435.59H482.834V443.162H493.036V435.59Z" stroke="white" stroke-opacity="0.66" stroke-miterlimit="10"/>
<path d="M515.61 435.59H505.408V443.162H515.61V435.59Z" stroke="white" stroke-opacity="0.66" stroke-miterlimit="10"/>
<path d="M538.183 435.59H527.981V443.162H538.183V435.59Z" stroke="white" stroke-opacity="0.66" stroke-miterlimit="10"/>
<path d="M458.776 454.356H642.273" stroke="white" stroke-opacity="0.66" stroke-miterlimit="10"/>
<path d="M548.909 472.745V455.438" stroke="white" stroke-opacity="0.66" stroke-miterlimit="10"/>
<path d="M394.297 411.49H341.878V419.263H394.297V411.49Z" stroke="white" stroke-opacity="0.66" stroke-miterlimit="10"/>
<path d="M394.297 429.363H341.878V437.137H394.297V429.363Z" stroke="white" stroke-opacity="0.66" stroke-miterlimit="10"/>
<path d="M701.739 38.3598L621.183 22.6497L562.354 11.0401C561.65 10.8995 560.938 10.8029 560.221 10.7508C557.091 10.5118 548.423 10.0841 543.671 12.2727C537.785 14.977 534.941 19.1781 536.612 21.8572C538.284 24.5364 549.147 30.4858 558.949 33.819C568.752 37.1523 617.305 47.7305 624.189 48.2839C631.074 48.8373 639.529 49.2021 639.529 49.2021C639.529 49.2021 668.576 51.8687 679.664 50.8624C690.751 49.8562 706.889 44.8123 707.688 42.6489C708.486 40.4855 701.739 38.3598 701.739 38.3598Z" fill="white" stroke="black" stroke-linecap="round" stroke-linejoin="round"/>
<path d="M671.021 33.014C671.021 33.014 679.751 33.7184 683.717 31.5046C687.683 29.2909 702.986 6.71312 703.959 6.47414C706.574 6.44272 709.188 6.55188 711.791 6.80117L701.277 40.2213L669.736 33.2278L671.021 33.014Z" fill="white" stroke="black" stroke-linecap="round" stroke-linejoin="round"/>
<path d="M692.76 48.4223C692.76 48.4223 695.03 47.655 696.327 47.1644C697.624 46.6739 700.542 45.6048 702.176 44.7746C703.184 44.2479 704.017 43.4345 704.57 42.4351L744.555 38.0453L740.489 37.7183L697.474 40.5609C697.437 44.9884 692.76 48.4223 692.76 48.4223Z" fill="black" stroke="black" stroke-linecap="round" stroke-linejoin="round"/>
<path d="M762.688 23.6056L737.184 25.7564L738.032 25.442L660.146 30.2594L611.219 33.2782C611.219 33.2782 605.257 33.1146 607.29 35.1775L615.297 37.4164C615.297 37.4164 600.219 37.1396 578.031 31.2279C555.844 25.3162 548.399 24.071 542.1 20.0837C540.465 19.053 539.164 17.562 538.359 15.7946C536.239 17.9203 535.515 20.1843 536.563 21.8572C538.122 24.3728 547.65 29.6808 556.867 33.0895L556.443 32.9763L542.724 31.2405C542.724 31.2405 539.332 26.5237 539.257 27.4671C539.182 28.4104 537.311 33.014 538.558 33.1146C539.806 33.2153 554.772 34.7498 554.772 34.7498L554.422 39.1773C554.104 39.1811 553.793 39.274 553.523 39.4456C553.254 39.6172 553.037 39.8609 552.897 40.1494C552.757 40.4379 552.699 40.76 552.73 41.0798C552.76 41.3996 552.878 41.7045 553.071 41.9607C553.263 42.2168 553.522 42.4141 553.819 42.5306C554.116 42.6471 554.439 42.6782 554.752 42.6205C555.065 42.5627 555.357 42.4184 555.594 42.2036C555.83 41.9887 556.004 41.7118 556.094 41.4036C556.298 41.4978 556.518 41.5532 556.742 41.5672C556.813 41.5732 556.884 41.5732 556.954 41.5672C557.059 43.083 557.67 44.5184 558.686 45.6398C559.703 46.7611 561.066 47.5024 562.554 47.743C566.869 48.7367 579.329 50.3718 583.257 48.4725C586.101 47.0889 584.903 42.5482 584.03 40.1584C589.293 41.3533 594.794 42.5734 599.994 43.6803L599.67 47.265L603.037 48.5229L605.532 53.1642L603.449 53.8937C603.368 53.3766 603.123 52.9002 602.749 52.5369C602.375 52.1736 601.894 51.9434 601.379 51.8812C600.719 51.9021 600.091 52.1673 599.613 52.6263C599.135 53.0853 598.842 53.7058 598.79 54.369C598.737 55.0323 598.929 55.6918 599.328 56.2214C599.728 56.7509 600.307 57.1134 600.955 57.2395C601.368 57.2579 601.779 57.1651 602.145 56.9706C602.511 56.776 602.819 56.4868 603.037 56.1326L606.218 56.3842V56.5477C605.712 56.7187 605.269 57.0394 604.946 57.4679C604.624 57.8964 604.437 58.4129 604.409 58.9501C604.36 59.28 604.376 59.6165 604.457 59.9399C604.538 60.2634 604.682 60.5674 604.88 60.8343C605.079 61.1012 605.328 61.3256 605.613 61.4945C605.898 61.6633 606.214 61.7733 606.542 61.8179C607.174 61.8195 607.784 61.5788 608.247 61.1444C608.71 60.7101 608.992 60.1146 609.036 59.4784H609.273C609.433 59.8574 609.691 60.1859 610.02 60.4294C610.349 60.6729 610.738 60.8224 611.144 60.862C611.803 60.8411 612.432 60.5759 612.91 60.1169C613.387 59.6579 613.68 59.0374 613.733 58.3742C613.785 57.7109 613.594 57.0514 613.194 56.5219C612.795 55.9923 612.216 55.6298 611.568 55.5037C611.04 55.4877 610.522 55.6462 610.092 55.955C609.662 56.2639 609.344 56.7061 609.186 57.2143L608.001 56.8118L607.727 52.3466L605.906 48.3971L606.43 45.0387C614.973 46.7996 621.87 48.0952 624.165 48.2839C631.037 48.8373 639.505 49.2021 639.505 49.2021C639.505 49.2021 642.535 49.4788 646.988 49.8184L646.763 52.6485H644.444C644.308 52.2172 644.05 51.8351 643.703 51.5492C643.355 51.2632 642.932 51.0858 642.486 51.0385C641.826 51.0593 641.198 51.3246 640.72 51.7836C640.242 52.2426 639.949 52.863 639.897 53.5263C639.844 54.1896 640.036 54.849 640.435 55.3786C640.835 55.9082 641.414 56.2707 642.062 56.3968C642.508 56.4186 642.951 56.3119 643.34 56.0892C643.729 55.8665 644.047 55.5369 644.257 55.1389L646.539 55.5163V55.6043C646.162 55.837 645.845 56.1569 645.616 56.5375C645.386 56.9181 645.249 57.3484 645.217 57.7929C645.166 58.1237 645.181 58.4615 645.261 58.7865C645.341 59.1114 645.484 59.417 645.683 59.6852C645.882 59.9535 646.131 60.1791 646.417 60.3487C646.704 60.5184 647.021 60.6288 647.35 60.6733C647.823 60.6943 648.291 60.5712 648.694 60.3199C649.096 60.0686 649.414 59.7009 649.607 59.2646L651.44 59.4155C651.601 59.7995 651.86 60.1334 652.191 60.3832C652.522 60.6329 652.913 60.7895 653.324 60.8368C653.86 60.9503 654.417 60.8963 654.922 60.6819C655.427 60.4676 655.855 60.1032 656.149 59.6373C656.443 59.1714 656.59 58.6261 656.569 58.0741C656.548 57.5221 656.361 56.9897 656.032 56.5478C655.703 56.1058 655.249 55.7755 654.729 55.6006C654.21 55.4258 653.65 55.4149 653.124 55.5693C652.598 55.7237 652.131 56.0361 651.786 56.4648C651.441 56.8936 651.233 57.4183 651.191 57.969L649.944 58.1829L650.131 50.0951C659.584 50.7743 672.904 51.5039 679.626 50.9001C681.572 50.724 683.68 50.4221 685.862 50.0322C679.218 49.9842 672.581 49.5643 665.982 48.7744C656.653 47.3908 656.442 46.1079 656.442 46.1079C656.442 46.1079 658.013 46.2336 658.113 44.9632L658.362 41.8187C658.362 41.8187 662.615 43.7432 663.837 44.1582C665.059 44.5733 662.141 41.8187 662.141 41.8187L674.862 39.9823L679.04 42.8627L680.637 42.674L678.616 40.2842L690.776 38.4729H691.188L695.603 40.3722L697.474 40.5232L695.927 38.4729L695.478 37.1019L706.703 35.2403C706.703 35.2403 710.881 38.1082 713.113 37.6554C715.346 37.2025 712.976 35.429 712.976 35.429L717.416 34.9888L720.896 34.7875L721.145 31.643L725.972 29.8569L767.64 24.6118L772.441 19.5806L762.688 23.6056ZM562.554 36.0076C562.554 36.0076 558.114 35.3913 557.116 38.4352H557.004C556.797 38.4036 556.587 38.4036 556.381 38.4352L556.655 34.9762L569.738 36.7875L570.985 37.0893L562.554 36.0076Z" fill="black" stroke="black" stroke-linecap="round" stroke-linejoin="round"/>
<path d="M648.572 34.385L638.183 34.4982C638.183 34.4982 639.33 35.8567 639.654 39.693C639.979 43.5293 642.149 44.6488 645.192 45.2148C648.235 45.7808 652.824 44.2463 652.812 40.4351C652.8 36.6239 651.715 34.2718 648.572 34.385Z" fill="white"/>
<path d="M542.562 13.4551L541.364 15.9833L543.709 16.2097L545.043 13.6563L542.562 13.4551Z" fill="black"/>
<path d="M553.013 17.1152L554.908 17.3039L553.886 14.3606L553.1 14.2977L553.013 17.1152Z" fill="black"/>
<path d="M548.872 13.9581L548.286 16.6624L552.24 17.0398L552.327 14.2474L548.872 13.9581Z" fill="black"/>
<path d="M548.087 13.8952L545.892 13.7191L544.532 16.2851L547.513 16.5869L548.087 13.8952Z" fill="black"/>
<path d="M541.739 13.3921H541.577C540.485 14.0434 539.473 14.82 538.559 15.7065L540.604 15.9077L541.739 13.3921Z" fill="black"/>
<path opacity="0.05" d="M140.833 25.0269C140.833 25.0269 145.573 10.0338 127.987 2.52461C110.402 -4.98454 82.0164 5.93328 83.3385 13.4424C84.6605 20.9516 98.3046 28.4356 88.7761 29.1274C79.2477 29.8192 73.2239 15.4801 53.6182 22.2974C34.0126 29.1148 56.9981 38.0452 52.2713 38.0452C47.5445 38.0452 34.6986 34.5737 23.1871 38.0452C11.6757 41.5168 23.1871 47.5921 66.4642 51.0007C109.741 54.4094 99.5518 45.4915 115.765 44.1205C131.978 42.7495 129.97 50.2586 164.405 44.1205C198.839 37.9824 186.854 16.8511 140.833 25.0269Z" fill="white"/>
<path opacity="0.05" d="M690.027 132.62C690.027 132.62 694.654 117.967 677.481 110.646C660.307 103.326 632.582 113.979 633.904 121.3C635.226 128.62 648.421 135.953 639.18 136.62C629.938 137.287 623.989 123.3 604.845 129.954C585.701 136.608 608.15 145.274 603.523 145.274C598.896 145.274 586.349 141.941 575.125 145.274C563.9 148.607 575.125 154.594 617.392 157.927C659.658 161.261 649.743 152.607 665.595 151.274C681.447 149.94 679.489 157.261 713.162 151.248C746.836 145.236 734.938 124.633 690.027 132.62Z" fill="white"/>
<path opacity="0.05" d="M732.444 95.9047C732.444 95.9047 734.053 90.798 728.066 88.2321C722.08 85.6661 712.389 89.4018 712.85 92.0055C713.312 94.6092 717.926 97.1122 714.696 97.3512C711.466 97.5902 709.396 92.6973 702.711 95.0243C696.026 97.3512 703.871 100.37 702.262 100.37C700.653 100.37 696.263 99.2128 692.285 100.37C688.306 101.527 692.285 103.628 707.039 104.785C721.793 105.942 718.326 102.923 723.851 102.458C729.376 101.993 728.69 104.558 740.438 102.458C752.186 100.357 748.083 93.0747 732.444 95.9047Z" fill="white" fill-opacity="0.94"/>
<path d="M461.981 113.061H445.02V495.386H461.981V113.061Z" fill="#C7C7C7" stroke="#263238" stroke-miterlimit="10"/>
<path d="M237.564 176.53C236.803 176.532 236.068 176.255 235.494 175.751C235.204 175.498 234.97 175.187 234.805 174.839C234.64 174.49 234.548 174.111 234.535 173.724C234.522 173.338 234.588 172.953 234.73 172.594C234.871 172.235 235.085 171.91 235.357 171.638L290.233 115.262C290.832 114.694 291.624 114.377 292.446 114.377C293.269 114.377 294.061 114.694 294.66 115.262L348.363 170.455C348.636 170.727 348.849 171.053 348.991 171.412C349.132 171.771 349.198 172.156 349.186 172.542C349.173 172.928 349.081 173.307 348.916 173.656C348.751 174.005 348.516 174.315 348.226 174.568C347.63 175.1 346.855 175.382 346.06 175.356C345.265 175.331 344.509 174.999 343.948 174.43L292.453 121.514L239.809 175.6C239.516 175.898 239.166 176.135 238.78 176.294C238.395 176.454 237.981 176.535 237.564 176.53Z" fill="#C7C7C7" stroke="#263238" stroke-miterlimit="10"/>
<path d="M349.199 176.53C348.439 176.53 347.704 176.253 347.129 175.751C346.839 175.498 346.604 175.187 346.439 174.839C346.274 174.49 346.182 174.11 346.17 173.724C346.157 173.338 346.223 172.953 346.364 172.594C346.506 172.235 346.719 171.91 346.992 171.638L401.867 115.262C402.463 114.692 403.253 114.374 404.075 114.374C404.896 114.374 405.687 114.692 406.282 115.262L459.986 170.455C460.255 170.729 460.467 171.056 460.606 171.415C460.745 171.774 460.81 172.159 460.796 172.545C460.782 172.93 460.689 173.309 460.524 173.657C460.359 174.005 460.125 174.315 459.836 174.568C459.24 175.1 458.465 175.382 457.67 175.356C456.875 175.331 456.119 174.999 455.558 174.43L404.062 121.514L351.432 175.6C351.139 175.896 350.791 176.13 350.408 176.29C350.024 176.45 349.614 176.531 349.199 176.53Z" fill="#C7C7C7" stroke="#263238" stroke-miterlimit="10"/>
<path d="M461.969 113.061H230.643V119.174H461.969V113.061Z" fill="#C7C7C7" stroke="#263238" stroke-miterlimit="10"/>
<path d="M461.969 171.7H230.643V177.813H461.969V171.7Z" fill="#C7C7C7" stroke="#263238" stroke-miterlimit="10"/>
<path d="M247.604 84.9742H44.1274V207.12H247.604V84.9742Z" fill="white" stroke="#263238" stroke-miterlimit="10"/>
<path d="M234.684 92.3074H57.0357C53.2474 92.3074 50.1763 95.4047 50.1763 99.2253V192.882C50.1763 196.703 53.2474 199.8 57.0357 199.8H234.684C238.472 199.8 241.543 196.703 241.543 192.882V99.2253C241.543 95.4047 238.472 92.3074 234.684 92.3074Z" fill="white" stroke="black" stroke-width="2" stroke-miterlimit="10"/>
<path d="M92.4928 164.468V183.574H91.2456V164.468H92.4928Z" fill="black"/>
<path d="M95.8107 183.574H94.6758V164.468H96.2971L101.984 180.606V164.468H103.119V183.574H101.735L95.8107 166.543V183.574Z" fill="black"/>
<path d="M108.519 183.574V165.613H104.653V164.468H113.62V165.613H109.766V183.574H108.519Z" fill="black"/>
<path d="M115.242 183.574V164.468H116.489V182.43H122.438V183.574H115.242Z" fill="black"/>
<path d="M125.531 181.172V183.574H124.284V181.172H125.531Z" fill="black"/>
<path d="M133.712 179.348L132.764 183.574H131.629L135.72 164.43H137.529L141.756 183.574H140.509L139.561 179.348H133.712ZM133.899 178.254H139.462L136.668 165.889L133.899 178.254Z" fill="black"/>
<path d="M144.949 164.468V183.574H143.702V164.468H144.949Z" fill="black"/>
<path d="M151.06 164.468C153.966 164.468 155.126 166.078 155.126 168.782V170.443C155.126 172.682 154.266 173.965 152.395 174.405C154.34 174.845 155.126 176.229 155.126 178.304V181.285C155.064 182.077 155.224 182.87 155.588 183.574H154.34C154.005 182.861 153.863 182.071 153.929 181.285V178.279C153.929 175.763 152.545 175.034 150.387 175.034H148.404V183.574H147.157V164.468H151.06ZM150.362 173.889C152.582 173.889 153.879 173.26 153.879 170.694V168.858C153.879 166.82 153.093 165.587 151.035 165.587H148.354V173.889H150.362Z" fill="black"/>
<path d="M161.487 164.468C164.418 164.468 165.553 166.317 165.553 169.109V171.185C165.553 174.216 164.168 175.713 161.162 175.713H158.805V183.574H157.558V164.468H161.487ZM161.162 174.531C163.357 174.531 164.305 173.549 164.305 171.222V168.984C164.305 166.908 163.607 165.575 161.487 165.575H158.805V174.531H161.162Z" fill="black"/>
<path d="M167.398 169.135C167.398 166.342 168.646 164.305 171.539 164.305C174.433 164.305 175.73 166.342 175.73 169.135V178.92C175.73 181.7 174.482 183.75 171.539 183.75C168.596 183.75 167.398 181.7 167.398 178.92V169.135ZM168.646 178.996C168.646 181.071 169.469 182.593 171.552 182.593C173.634 182.593 174.495 181.071 174.495 178.996V169.047C174.495 166.971 173.659 165.449 171.552 165.449C169.444 165.449 168.646 166.971 168.646 169.047V178.996Z" fill="black"/>
<path d="M181.741 164.468C184.647 164.468 185.807 166.078 185.807 168.782V170.443C185.807 172.682 184.934 173.965 183.076 174.405C185.021 174.845 185.807 176.229 185.807 178.304V181.285C185.744 182.077 185.904 182.87 186.268 183.574H185.021C184.686 182.861 184.544 182.071 184.61 181.285V178.279C184.61 175.763 183.225 175.034 181.068 175.034H179.085V183.574H177.837V164.468H181.741ZM181.043 173.889C183.263 173.889 184.56 173.26 184.56 170.694V168.858C184.56 166.82 183.774 165.587 181.716 165.587H179.035V173.889H181.043Z" fill="black"/>
<path d="M191.519 183.574V165.613H187.652V164.468H196.607V165.613H192.766V183.574H191.519Z" fill="black"/>
<path d="M122.138 136.972H120.455L115.067 114.193V137.01H113.57V111.25H115.977L121.34 134.029L126.666 111.25H129.073V137.01H127.464V114.118L122.138 136.972Z" fill="black"/>
<path d="M133.662 111.25V137.01H131.979V111.25H133.662Z" fill="black"/>
<path d="M139.025 131.3L137.778 137.01H136.219L141.794 111.212H144.288L149.988 137.01H148.304L147.057 131.3H139.025ZM139.287 129.828H146.77L143.028 113.162L139.287 129.828Z" fill="black"/>
<path d="M161.063 136.972H159.416L154.016 114.193V137.01H152.52V111.25H154.927L160.289 134.029L165.615 111.25H168.022V137.01H166.426V114.118L161.063 136.972Z" fill="black"/>
<path d="M172.587 111.25V137.01H170.903V111.25H172.587Z" fill="black"/>
<path d="M77.1029 121.25C77.1029 122.784 77.1029 124.193 77.1029 125.589C77.2923 126.819 77.2457 128.075 76.9657 129.287C76.5042 130.281 75.2196 130.897 74.2967 131.677C74.1969 131.765 74.0722 131.815 74.0099 131.916C73.896 132.057 73.8227 132.226 73.7978 132.406C73.7978 133.262 73.7978 134.117 73.7978 135.048C75.3942 134.57 76.8534 134.092 78.35 133.702C78.8453 133.576 79.3638 133.576 79.8591 133.702C81.3433 134.067 82.8149 134.532 84.3115 134.96C84.6607 132.444 84.5859 132.193 82.7401 130.696C82.3036 130.344 81.8546 130.004 81.4929 129.627C81.3028 129.48 81.1702 129.271 81.1188 129.035C81.1188 126.52 81.1188 123.929 81.1188 121.237L96.0849 125.891C96.0849 124.872 96.0849 124.004 96.0849 123.136C96.1241 122.863 96.0733 122.585 95.9403 122.344C95.8074 122.103 95.5996 121.913 95.349 121.803C90.8717 119.136 86.4317 116.432 81.9544 113.766C81.6434 113.666 81.3757 113.462 81.1963 113.187C81.0169 112.912 80.9367 112.584 80.9691 112.256C80.9691 108.885 80.9691 105.514 80.9691 102.194C81.0107 101.773 80.9213 101.349 80.7135 100.982C80.5057 100.615 80.1896 100.322 79.8092 100.143C79.4935 100.013 79.1496 99.9675 78.8112 100.011C78.4729 100.055 78.1515 100.187 77.8787 100.393C77.606 100.6 77.391 100.875 77.255 101.19C77.119 101.506 77.0666 101.852 77.1029 102.194C77.1029 105.59 77.1029 108.998 77.1029 112.407C77.1252 112.668 77.0664 112.929 76.9345 113.155C76.8026 113.38 76.6042 113.559 76.367 113.665C71.8273 116.357 67.325 119.086 62.8227 121.803C62.5608 121.967 62.1741 122.243 62.1617 122.482C62.0868 123.577 62.1617 124.683 62.1617 125.903L77.1029 121.25Z" fill="black"/>
<path d="M77.1028 121.25L62.1367 125.954C62.1367 124.696 62.1367 123.627 62.1367 122.533C62.1367 122.294 62.5358 122.017 62.7977 121.853C67.3 119.136 71.8023 116.407 76.3421 113.715C76.5792 113.609 76.7776 113.431 76.9095 113.205C77.0414 112.98 77.1003 112.718 77.0779 112.457C77.0779 109.049 77.0779 105.64 77.0779 102.244C77.0344 101.892 77.085 101.535 77.2244 101.21C77.3637 100.885 77.5868 100.603 77.8705 100.394C78.1542 100.185 78.4881 100.056 78.8378 100.021C79.1874 99.9855 79.5401 100.045 79.8591 100.194C80.2395 100.372 80.5555 100.665 80.7634 101.032C80.9712 101.4 81.0605 101.823 81.019 102.244C81.019 105.628 81.019 108.998 81.019 112.307C80.9877 112.608 81.0518 112.911 81.2019 113.173C81.352 113.435 81.5804 113.642 81.8546 113.766C86.3319 116.432 90.7719 119.136 95.2493 121.803C95.4998 121.913 95.7076 122.103 95.8405 122.344C95.9735 122.585 96.0243 122.863 95.9851 123.136C95.9851 124.004 95.9851 124.872 95.9851 125.891L81.019 121.237C81.019 123.929 81.019 126.482 81.019 129.035C81.0704 129.271 81.203 129.48 81.3931 129.627C81.8047 130.004 82.2537 130.344 82.6403 130.696C84.5859 132.193 84.5859 132.381 84.2492 134.96C82.7526 134.532 81.2809 134.067 79.7967 133.702C79.3014 133.576 78.783 133.576 78.2877 133.702C76.791 134.092 75.3319 134.57 73.7355 135.048C73.7355 134.117 73.7355 133.262 73.7355 132.406C73.7603 132.226 73.8337 132.057 73.9475 131.916C73.9475 131.815 74.1346 131.765 74.2343 131.677C75.1572 130.897 76.4418 130.281 76.9033 129.287C77.2041 128.079 77.2719 126.823 77.1028 125.589C77.1028 124.193 77.1028 122.784 77.1028 121.25Z" fill="black"/>
<path d="M210.787 187.851L232.713 191.297L229.296 169.185L223.92 174.593L218.532 169.16L210.75 176.996L216.15 182.442L210.787 187.851Z" fill="black"/>
<path d="M643.571 436.621H633.207L633.07 436.835C632.182 436.7 631.286 436.629 630.388 436.621C617.767 436.621 607.527 449.904 607.527 466.28C607.527 482.657 617.767 495.889 630.388 495.889C631.299 495.889 638.794 495.801 639.667 495.675L633.207 495.889H643.571C656.192 495.889 666.419 482.607 666.419 466.23C666.419 449.853 656.192 436.621 643.571 436.621Z" fill="#263238" stroke="#263238" stroke-linecap="round" stroke-linejoin="round"/>
<path d="M431.489 436.621H421.137L420.988 436.835C420.1 436.7 419.204 436.629 418.306 436.621C405.685 436.621 395.445 449.904 395.445 466.28C395.445 482.657 405.685 495.889 418.306 495.889C419.204 495.882 420.1 495.81 420.988 495.675L421.137 495.889H431.489C444.11 495.889 454.349 482.607 454.349 466.23C454.349 449.853 444.11 436.621 431.489 436.621Z" fill="#263238" stroke="#263238" stroke-linecap="round" stroke-linejoin="round"/>
<path d="M742.098 437.489H737.109L732.669 406.044C732.405 404.189 731.486 402.492 730.082 401.266C728.678 400.039 726.882 399.364 725.024 399.365H697.199L651.977 350.977C649.556 348.381 646.634 346.314 643.391 344.901C640.148 343.488 636.652 342.761 633.119 342.763H513.253C510.668 342.766 508.111 343.296 505.734 344.321C503.358 345.345 501.211 346.843 499.422 348.725L293.538 436.344V473.362H602.164L679.639 472.796L737.071 469.022V468.758H741.848C742.096 468.76 742.342 468.712 742.571 468.617C742.8 468.522 743.008 468.382 743.184 468.206C743.359 468.029 743.497 467.819 743.591 467.588C743.686 467.357 743.733 467.109 743.731 466.859V439.187C743.736 438.967 743.698 438.748 743.618 438.543C743.538 438.338 743.419 438.151 743.267 437.993C743.115 437.835 742.933 437.709 742.733 437.623C742.532 437.536 742.316 437.491 742.098 437.489Z" fill="#D9D9D9" stroke="#263238" stroke-linecap="round" stroke-linejoin="round"/>
<path d="M654.408 467.664V472.985L679.688 472.796L737.121 469.022V468.758H741.848C742.198 468.758 742.541 468.658 742.837 468.469C743.133 468.279 743.37 468.009 743.519 467.689L654.408 467.664Z" fill="#263238" stroke="#263238" stroke-linecap="round" stroke-linejoin="round"/>
<path d="M679.689 472.796C680.148 472.729 680.566 472.494 680.863 472.135C681.161 471.777 681.317 471.32 681.302 470.853C681.286 470.385 681.1 469.94 680.78 469.603C680.459 469.265 680.026 469.058 679.564 469.022H650.517L543.086 342.738H513.253C510.667 342.745 508.108 343.278 505.731 344.307C503.355 345.336 501.208 346.839 499.422 348.725L293.538 436.344V473.362H602.164L679.689 472.796Z" fill="#263238" stroke="#263238" stroke-linecap="round" stroke-linejoin="round"/>
<path d="M341.642 436.621H331.278L324.493 446.684C320.763 452.532 318.78 459.339 318.78 466.293C318.78 473.247 320.763 480.054 324.493 485.902L331.278 495.965H341.642C354.263 495.965 364.49 482.682 364.49 466.305C364.49 449.929 354.263 436.621 341.642 436.621Z" fill="#263238" stroke="#263238" stroke-linecap="round" stroke-linejoin="round"/>
<path d="M328.459 495.94C341.085 495.94 351.32 482.661 351.32 466.28C351.32 449.9 341.085 436.621 328.459 436.621C315.834 436.621 305.599 449.9 305.599 466.28C305.599 482.661 315.834 495.94 328.459 495.94Z" fill="#636363" stroke="#263238" stroke-linecap="round" stroke-linejoin="round"/>
<path d="M328.459 489.94C338.53 489.94 346.693 479.347 346.693 466.28C346.693 453.214 338.53 442.621 328.459 442.621C318.389 442.621 310.226 453.214 310.226 466.28C310.226 479.347 318.389 489.94 328.459 489.94Z" fill="white" stroke="#263238" stroke-linecap="round" stroke-linejoin="round"/>
<path d="M332.313 466.28C332.313 469.048 330.579 471.312 328.459 471.312C326.339 471.312 324.605 469.085 324.605 466.28C324.605 463.475 326.327 461.249 328.459 461.249C330.592 461.249 332.313 463.526 332.313 466.28Z" fill="white" stroke="#263238" stroke-linecap="round" stroke-linejoin="round"/>
<path d="M572.332 436.621H561.98L555.195 446.684C551.458 452.529 549.471 459.337 549.471 466.293C549.471 473.248 551.458 480.056 555.195 485.902L561.98 495.965H572.332C584.953 495.965 595.192 482.682 595.192 466.305C595.192 449.929 584.953 436.621 572.332 436.621Z" fill="#263238" stroke="#263238" stroke-linecap="round" stroke-linejoin="round"/>
<path d="M559.162 495.94C571.787 495.94 582.022 482.661 582.022 466.28C582.022 449.9 571.787 436.621 559.162 436.621C546.536 436.621 536.301 449.9 536.301 466.28C536.301 482.661 546.536 495.94 559.162 495.94Z" fill="#636363" stroke="#263238" stroke-linecap="round" stroke-linejoin="round"/>
<path d="M559.161 489.94C569.232 489.94 577.395 479.347 577.395 466.28C577.395 453.214 569.232 442.621 559.161 442.621C549.091 442.621 540.928 453.214 540.928 466.28C540.928 479.347 549.091 489.94 559.161 489.94Z" fill="white" stroke="#263238" stroke-linecap="round" stroke-linejoin="round"/>
<path d="M563.003 466.28C563.003 469.048 561.282 471.312 559.161 471.312C557.041 471.312 555.308 469.085 555.308 466.28C555.308 463.475 557.029 461.249 559.161 461.249C561.294 461.249 563.003 463.526 563.003 466.28Z" fill="white" stroke="#263238" stroke-linecap="round" stroke-linejoin="round"/>
<path d="M651.976 350.951C651.602 350.549 651.203 350.184 650.804 349.807H557.428V396.346H694.455L651.976 350.951Z" fill="#263238" stroke="#263238" stroke-linecap="round" stroke-linejoin="round"/>
<path d="M662.702 437.489H657.265L651.864 399.34H617.33L572.107 350.951C569.688 348.358 566.769 346.291 563.528 344.878C560.287 343.466 556.793 342.737 553.263 342.738H443.224C440.638 342.743 438.079 343.276 435.702 344.305C433.325 345.334 431.179 346.838 429.393 348.725L359.102 396.107L294.112 424.37L283.947 438.206C281.436 441.594 280.08 445.711 280.081 449.941V473.412H300.597V465.589C300.597 446.457 314.378 430.961 331.39 430.961C346.556 430.961 355.972 443.35 358.329 460.18L360.212 473.362H531.524V465.538C531.524 446.407 539.307 430.911 560.209 430.911C578.842 430.911 585.502 443.3 588.408 460.13L590.603 472.796L657.252 469.022V468.758H662.69L662.702 437.489Z" fill="#D9D9D9" stroke="#263238" stroke-linecap="round" stroke-linejoin="round"/>
<path d="M429.979 355.668L369.628 396.069H482.435V350.36H442.525C440.188 350.353 437.874 350.819 435.718 351.731C433.563 352.643 431.611 353.982 429.979 355.668Z" fill="#263238" stroke="#263238" stroke-linecap="round" stroke-linejoin="round"/>
<path d="M416.872 396.069L452.641 350.36H442.526C440.202 350.363 437.901 350.834 435.759 351.746C433.618 352.657 431.678 353.991 430.054 355.668L408.852 369.806L388.299 396.069H416.872Z" fill="white" stroke="#263238" stroke-linecap="round" stroke-linejoin="round"/>
<path d="M482.411 396.069V363.24L456.731 396.069H482.411Z" fill="white" stroke="#263238" stroke-linecap="round" stroke-linejoin="round"/>
<path d="M568.354 357.807L594.008 384.221C594.858 385.11 595.464 386.206 595.767 387.403C596.021 388.427 596.04 389.496 595.823 390.529C595.606 391.562 595.158 392.531 594.513 393.363C593.869 394.195 593.044 394.868 592.103 395.33C591.162 395.793 590.129 396.032 589.082 396.031H489.919V350.36H550.756C554.034 350.353 557.28 351.008 560.302 352.287C563.325 353.566 566.063 355.443 568.354 357.807Z" fill="#263238" stroke="#263238" stroke-linecap="round" stroke-linejoin="round"/>
<path d="M544.32 350.36H534.355L498.586 396.069H508.551L544.32 350.36Z" fill="white" stroke="#263238" stroke-linecap="round" stroke-linejoin="round"/>
<path d="M489.969 353.593V390.095L521.061 350.36H492.501L489.969 353.593Z" fill="white" stroke="#263238" stroke-linecap="round" stroke-linejoin="round"/>
<path d="M651.864 399.339H725.036C726.894 399.339 728.69 400.014 730.094 401.24C731.499 402.467 732.417 404.164 732.681 406.018L737.121 437.464H657.302L651.864 399.339Z" fill="#D9D9D9" stroke="#263238" stroke-linecap="round" stroke-linejoin="round"/>
<path d="M721.332 416.546H686.623V430.923H721.332V416.546Z" fill="white" stroke="#263238" stroke-linecap="round" stroke-linejoin="round"/>
<path d="M740.938 443.376H592.237" stroke="#263238" stroke-width="2" stroke-linecap="round" stroke-linejoin="round"/>
<path d="M525.787 443.376H360.985" stroke="#263238" stroke-width="2" stroke-linecap="round" stroke-linejoin="round"/>
<path d="M306.271 443.376H287.414" stroke="#263238" stroke-width="2" stroke-linecap="round" stroke-linejoin="round"/>
<path d="M680.624 416.773H647.836C646.32 416.773 644.835 417.2 643.546 418.004C642.258 418.808 641.217 419.958 640.54 421.326L635.052 432.395C634.801 432.902 634.683 433.465 634.709 434.032C634.734 434.598 634.904 435.148 635.2 435.63C635.496 436.111 635.91 436.509 636.401 436.783C636.893 437.058 637.446 437.202 638.008 437.2H680.624V416.773Z" fill="white" stroke="#263238" stroke-linecap="round" stroke-linejoin="round"/>
<path d="M680.624 416.773H654.209L657.09 437.212H680.624V416.773Z" fill="#263238" stroke="#263238" stroke-linecap="round" stroke-linejoin="round"/>
<path d="M734.078 416.773H726.071L725.972 437.212H736.959L734.078 416.773Z" fill="#263238" stroke="#263238" stroke-linecap="round" stroke-linejoin="round"/>
<path d="M376.837 386.548H360.785C359.408 386.548 358.291 387.674 358.291 389.063V401.994C358.291 403.383 359.408 404.509 360.785 404.509H376.837C378.214 404.509 379.331 403.383 379.331 401.994V389.063C379.331 387.674 378.214 386.548 376.837 386.548Z" fill="#263238" stroke="#263238" stroke-linecap="round" stroke-linejoin="round"/>
<path d="M479.716 404.509H459.475V412.672H479.716V404.509Z" fill="#263238" stroke="#263238" stroke-linecap="round" stroke-linejoin="round"/>
<path d="M484.568 401.239V463.287" stroke="#263238" stroke-linecap="round" stroke-linejoin="round"/>
<path d="M347.74 428.999C347.74 428.999 362.557 437.439 364.452 466.28H521.809" stroke="#263238" stroke-linecap="round" stroke-linejoin="round"/>
<path d="M596.277 441.25C596.277 441.25 588.532 420.835 562.604 420.835C544.532 420.835 535.877 430.42 531.549 437.979" stroke="#263238" stroke-linecap="round" stroke-linejoin="round"/>
<path d="M656.479 344.474H699.618" stroke="#263238" stroke-linecap="round" stroke-linejoin="round"/>
<path d="M780.523 400.421H785.911" stroke="#263238" stroke-linecap="round" stroke-linejoin="round"/>
<path d="M736.61 400.421H773.589" stroke="#263238" stroke-linecap="round" stroke-linejoin="round"/>
<path d="M797.41 374.158H811.815" stroke="#263238" stroke-linecap="round" stroke-linejoin="round"/>
<path d="M680.188 374.158H778.902" stroke="#263238" stroke-linecap="round" stroke-linejoin="round"/>
<path d="M749.705 468.029H767.427" stroke="#263238" stroke-linecap="round" stroke-linejoin="round"/>
<path d="M18.7471 495.713H809.756" stroke="#263238" stroke-linecap="round" stroke-linejoin="round"/>
<path d="M1 495.713H8.32093" stroke="#263238" stroke-linecap="round" stroke-linejoin="round"/>
</svg>
