<svg width="40" height="44" viewBox="0 0 40 44" fill="none" xmlns="http://www.w3.org/2000/svg">
<path d="M15.5556 0H2.22222C0.993333 0 0 1.09267 0 2.44444V17.1111C0 18.4629 0.993333 19.5556 2.22222 19.5556H15.5556C16.7844 19.5556 17.7778 18.4629 17.7778 17.1111V2.44444C17.7778 1.09267 16.7844 0 15.5556 0ZM37.7778 0H24.4444C23.2156 0 22.2222 1.09267 22.2222 2.44444V17.1111C22.2222 18.4629 23.2156 19.5556 24.4444 19.5556H37.7778C39.0067 19.5556 40 18.4629 40 17.1111V2.44444C40 1.09267 39.0067 0 37.7778 0ZM15.5556 24.4444H2.22222C0.993333 24.4444 0 25.5371 0 26.8889V41.5556C0 42.9073 0.993333 44 2.22222 44H15.5556C16.7844 44 17.7778 42.9073 17.7778 41.5556V26.8889C17.7778 25.5371 16.7844 24.4444 15.5556 24.4444ZM33.3333 26.8889H28.8889V31.7778H24.4444V36.6667H28.8889V41.5556H33.3333V36.6667H37.7778V31.7778H33.3333V26.8889Z" fill="#FF6612"/>
</svg>
