<svg width="52" height="49" viewBox="0 0 52 49" fill="none" xmlns="http://www.w3.org/2000/svg">
<path d="M2.05628 30.6491C2.19698 30.648 2.30994 30.5497 2.30859 30.4297C2.30724 30.3097 2.19209 30.2133 2.05139 30.2144C1.91069 30.2156 1.79773 30.3138 1.79908 30.4339C1.80043 30.5539 1.91558 30.6503 2.05628 30.6491Z" fill="white"/>
<path d="M2.0636 31.3026C2.2043 31.3015 2.31727 31.2032 2.31592 31.0832C2.31457 30.9631 2.19941 30.8668 2.05871 30.8679C1.91801 30.8691 1.80505 30.9673 1.8064 31.0874C1.80775 31.2074 1.92291 31.3038 2.0636 31.3026Z" fill="white"/>
<path d="M2.07117 31.9561C2.21187 31.955 2.32484 31.8567 2.32348 31.7367C2.32213 31.6167 2.20698 31.5203 2.06628 31.5214C1.92558 31.5226 1.81262 31.6208 1.81397 31.7409C1.81532 31.8609 1.93047 31.9573 2.07117 31.9561Z" fill="white"/>
<path d="M1.33899 29.8836C1.47969 29.8824 1.59266 29.7842 1.59131 29.6641C1.58996 29.5441 1.4748 29.4477 1.3341 29.4489C1.1934 29.45 1.08044 29.5483 1.08179 29.6683C1.08314 29.7884 1.1983 29.8847 1.33899 29.8836Z" fill="white"/>
<path d="M1.34461 30.5371C1.48531 30.5359 1.59827 30.4377 1.59692 30.3177C1.59557 30.1976 1.48042 30.1013 1.33972 30.1024C1.19902 30.1036 1.08606 30.2018 1.08741 30.3218C1.08876 30.4419 1.20391 30.5383 1.34461 30.5371Z" fill="white"/>
<path d="M1.35193 31.1906C1.49263 31.1894 1.6056 31.0912 1.60425 30.9712C1.6029 30.8511 1.48774 30.7547 1.34704 30.7559C1.20634 30.757 1.09338 30.8553 1.09473 30.9753C1.09608 31.0954 1.21124 31.1917 1.35193 31.1906Z" fill="white"/>
<path d="M2.96058 31.7621C3.10128 31.761 3.21424 31.6628 3.21289 31.5427C3.21154 31.4227 3.09638 31.3263 2.95569 31.3274C2.81499 31.3286 2.70202 31.4268 2.70337 31.5469C2.70472 31.6669 2.81988 31.7633 2.96058 31.7621Z" fill="white"/>
<path d="M2.9679 32.4157C3.1086 32.4145 3.22156 32.3163 3.22021 32.1962C3.21886 32.0762 3.10371 31.9798 2.96301 31.981C2.82231 31.9821 2.70935 32.0804 2.7107 32.2004C2.71205 32.3204 2.8272 32.4168 2.9679 32.4157Z" fill="white"/>
<path d="M6.18433 39.481V43.9476C6.18433 44.9743 6.66237 45.9589 7.5133 46.6849C8.36423 47.4108 9.51834 47.8187 10.7217 47.8187H41.1577C42.3611 47.8187 43.5152 47.4108 44.3661 46.6849C45.2171 45.9589 45.6951 44.9743 45.6951 43.9476V39.481" fill="#32ADAA"/>
<path d="M41.1579 48.1248H10.7237C9.42528 48.124 8.18027 47.6837 7.26197 46.9005C6.34367 46.1174 5.82711 45.0553 5.82568 43.9476V39.481H6.54334V43.9476C6.54477 44.8927 6.98547 45.7987 7.76879 46.467C8.55212 47.1353 9.61413 47.5113 10.7219 47.5125H41.1579C42.2657 47.5113 43.3277 47.1353 44.111 46.467C44.8944 45.7987 45.3351 44.8927 45.3365 43.9476V39.481H46.0541V43.9476C46.0527 45.0551 45.5364 46.1169 44.6185 46.9C43.7006 47.6831 42.456 48.1236 41.1579 48.1248Z" fill="#264575"/>
<path d="M44.4053 24.2078H45.7168C47.1919 24.2078 48.6066 24.7078 49.6496 25.5977C50.6927 26.4875 51.2787 27.6945 51.2787 28.953V32.3985L44.4053 33.5527" fill="#32ADAA"/>
<path d="M48.8009 32.8149V37.1529C48.8009 38.0545 48.3811 38.9192 47.6338 39.5568C46.8865 40.1943 45.873 40.5525 44.8161 40.5525H44.4053V28.8382L48.8009 32.8149Z" fill="#32ADAA"/>
<path d="M5.83091 24.3609C4.35581 24.3609 2.94113 24.8608 1.89808 25.7507C0.855024 26.6406 0.269043 27.8476 0.269043 29.106V32.5516L2.75035 32.968V37.3059C2.75035 38.2076 3.17018 39.0723 3.91748 39.7098C4.66478 40.3474 5.67833 40.7056 6.73517 40.7056H7.14244V24.3609H5.83091Z" fill="#32ADAA"/>
<path d="M4.54451 37.459V33.121L2.06319 32.7047V29.2591C2.06333 28.072 2.58503 26.928 3.52533 26.053C4.46563 25.1779 5.75623 24.6354 7.14244 24.5324V24.514H5.83091C4.35581 24.514 2.94113 25.0139 1.89808 25.9038C0.855024 26.7937 0.269043 28.0006 0.269043 29.2591V31.8873C0.26898 32.1176 0.36271 32.3408 0.534201 32.5186C0.705692 32.6965 0.944288 32.818 1.20918 32.8624L2.75035 33.121V37.459C2.75035 38.3606 3.17018 39.2254 3.91748 39.8629C4.66478 40.5005 5.67833 40.8587 6.73517 40.8587H7.14244V40.6474C6.37979 40.4056 5.72211 39.9706 5.25772 39.4006C4.79332 38.8307 4.54445 38.1531 4.54451 37.459Z" fill="#0FCBC9"/>
<path d="M47.1862 37.459V33.121L49.6675 32.7047V29.2591C49.6674 28.072 49.1457 26.928 48.2054 26.053C47.2651 25.1779 45.9745 24.6354 44.5883 24.5324V24.514H45.8998C47.3749 24.514 48.7896 25.0139 49.8327 25.9038C50.8757 26.7937 51.4617 28.0006 51.4617 29.2591V31.5766C51.4606 31.8945 51.3307 32.2023 51.0939 32.4478C50.8572 32.6933 50.5282 32.8614 50.1627 32.9236L48.9804 33.1226V37.4605C48.9804 38.3622 48.5606 39.2269 47.8133 39.8645C47.066 40.502 46.0524 40.8602 44.9956 40.8602H44.5847V40.649C45.3483 40.4076 46.007 39.9725 46.4721 39.4022C46.9372 38.8319 47.1864 38.1538 47.1862 37.459Z" fill="#0FCBC9"/>
<path d="M33.0356 5.11254H31.4101C25.4894 0.794471 20.2379 5.11254 20.2379 5.11254H18.738C18.738 5.11254 25.4625 -6.08137 33.0356 5.11254Z" fill="#0FDAD7"/>
<path d="M31.4101 4.50026C25.4894 0.182191 20.2379 4.50026 20.2379 4.50026H19.1507C18.8816 4.87221 18.738 5.11253 18.738 5.11253H20.2379C20.2379 5.11253 25.4912 0.794465 31.4101 5.11253H33.0356C32.8921 4.89976 32.7486 4.69771 32.605 4.50026H31.4101Z" fill="#0FCBC9"/>
<path d="M32.4903 5.26561H33.0285C25.4554 -5.92829 18.731 5.26561 18.731 5.26561H19.2548C20.9342 3.01091 26.3866 -2.95264 32.4903 5.26561Z" fill="#6EF9F2"/>
<path d="M44.6635 18.1861V38.6223C44.6643 39.6084 44.4372 40.585 43.9951 41.4962C43.553 42.4073 42.9046 43.2351 42.0871 43.9323C41.2704 44.6298 40.3004 45.1831 39.2327 45.5606C38.1651 45.938 37.0207 46.1321 35.865 46.1319H16.0917C14.9357 46.1323 13.7909 45.9383 12.7229 45.5609C11.655 45.1834 10.6847 44.63 9.86775 43.9323C9.05013 43.2355 8.40157 42.4079 7.95917 41.4971C7.51678 40.5862 7.28923 39.6098 7.28955 38.6239V18.1861" fill="#0FDAD7"/>
<path d="M41.8718 7.03507C43.7704 9.79472 44.7713 12.9366 44.7712 16.1365V18.3958H7.17651V16.1365C7.17914 12.9359 8.18315 9.79397 10.0848 7.03507" fill="#0FDAD7"/>
<path d="M15.2359 46.4135C14.3104 46.354 13.4019 46.169 12.5446 45.8655C10.937 45.2966 9.56305 44.334 8.59615 43.0994C7.62925 41.8647 7.11278 40.4133 7.11196 38.9285V18.702H7.0061V16.4427C7.00683 13.2453 8.00772 10.106 9.90545 7.34888H13.0291L12.9178 7.54022C10.6694 11.7922 9.50734 16.4038 9.50894 21.0684V29.1719C9.50807 35.2608 11.4908 41.2302 15.2359 46.4135Z" fill="#0FCBC9"/>
<path d="M36.6096 46.4135C37.5351 46.354 38.4436 46.169 39.3008 45.8655C40.9085 45.2966 42.2824 44.334 43.2493 43.0994C44.2162 41.8647 44.7327 40.4133 44.7335 38.9285V18.702H44.8394V16.4427C44.8387 13.2453 43.8378 10.106 41.94 7.34888H38.8164L38.9223 7.54787C41.1707 11.7999 42.3328 16.4114 42.3312 21.0761V29.1795C42.332 35.2655 40.3512 41.2319 36.6096 46.4135Z" fill="#0FCBC9"/>
<path d="M42.177 7.89686L41.4324 8.59791C39.4334 10.4816 36.994 11.9872 34.2714 13.0175C31.5488 14.0479 28.6034 14.5802 25.625 14.5802C22.6466 14.5802 19.7012 14.0479 16.9786 13.0175C14.256 11.9872 11.8166 10.4816 9.81763 8.59791L9.23633 8.05299C9.45402 7.6795 9.68666 7.31264 9.93425 6.95242H41.5723C41.7852 7.26264 41.9868 7.57745 42.177 7.89686Z" fill="#0FCBC9"/>
<path d="M7.09049 33.9308L0.897076 32.8914C0.644679 32.8489 0.417344 32.7331 0.253778 32.5637C0.0902126 32.3943 0.000529672 32.1818 0 31.9623L0 29.106C0.00189913 27.7871 0.616844 26.5227 1.70996 25.5902C2.80307 24.6576 4.2851 24.1329 5.83099 24.1313H7.14252V24.5905H5.83099C4.42771 24.5917 3.0823 25.0679 2.09003 25.9144C1.09775 26.761 0.53967 27.9088 0.538245 29.106V31.9623C0.538551 32.0753 0.584622 32.1847 0.668654 32.272C0.752686 32.3593 0.869512 32.4192 0.999342 32.4414L7.19275 33.4807L7.09049 33.9308Z" fill="#264575"/>
<path d="M7.14241 40.9352H6.73513C5.60736 40.934 4.52618 40.5512 3.72872 39.8709C2.93126 39.1905 2.48263 38.2681 2.4812 37.3059V32.968H3.01945V37.3059C3.0204 38.1464 3.41217 38.9523 4.1088 39.5466C4.80542 40.1409 5.74996 40.4752 6.73513 40.476H7.14241V40.9352Z" fill="#264575"/>
<path d="M44.459 33.9308L44.355 33.4807L50.1896 32.5011C50.4207 32.4622 50.629 32.3561 50.7788 32.2009C50.9286 32.0457 51.0108 31.8511 51.0113 31.65V29.106C51.0099 27.9088 50.4518 26.761 49.4595 25.9144C48.4672 25.0679 47.1218 24.5917 45.7185 24.5905H44.407V24.1313H45.7185C47.2644 24.1329 48.7465 24.6576 49.8396 25.5902C50.9327 26.5227 51.5476 27.7871 51.5495 29.106V31.65C51.5489 31.9575 51.4235 32.2554 51.1945 32.4929C50.9655 32.7304 50.6472 32.8928 50.2936 32.9526L44.459 33.9308Z" fill="#264575"/>
<path d="M44.8143 40.9352H44.407V40.476H44.8143C45.7994 40.4752 46.744 40.1409 47.4406 39.5466C48.1372 38.9523 48.529 38.1464 48.5299 37.3059V32.968H49.0682V37.3059C49.0668 38.2681 48.6181 39.1905 47.8207 39.8709C47.0232 40.5512 45.942 40.934 44.8143 40.9352Z" fill="#264575"/>
<path d="M33.5003 5.43705H18.3003L18.5012 5.10336C19.0667 4.20952 19.7453 3.3713 20.525 2.60375C22.2169 0.939891 24.0559 0.0413789 25.8357 0.00158106C28.4462 -0.0596464 30.9419 1.65778 33.2635 5.09111L33.5003 5.43705ZM19.1974 4.97784H32.5638C30.4198 1.93178 28.1681 0.413336 25.8555 0.460787C22.5148 0.532729 19.9437 3.89105 19.1974 4.97784Z" fill="#264575"/>
<path d="M31.2345 5.38195C28.8554 3.64462 26.3149 3.115 23.6829 3.80687C22.4801 4.12731 21.3699 4.66034 20.4247 5.37123L20.0515 5.0406C20.1053 4.99621 25.5524 0.629167 31.5843 5.03142L31.2345 5.38195Z" fill="#264575"/>
<path d="M44.9812 18.702H6.67603V16.1365C6.67714 12.8823 7.69531 9.68723 9.62561 6.88049L10.2446 7.18662C8.37886 9.89963 7.39476 12.988 7.39369 16.1335V18.0866H44.2635V16.1365C44.2612 12.9931 43.2771 9.90702 41.4126 7.19581L42.0316 6.88967C43.9619 9.69641 44.98 12.8915 44.9812 16.1457V18.702Z" fill="#264575"/>
<path d="M35.7144 46.6875H15.9429C13.5161 46.6875 11.1887 45.865 9.47275 44.401C7.75676 42.937 6.79272 40.9514 6.79272 38.881V18.4417H7.51039V38.881C7.51039 40.789 8.39881 42.6189 9.98021 43.9681C11.5616 45.3173 13.7065 46.0752 15.9429 46.0752H35.7144C37.9509 46.0752 40.0957 45.3173 41.6771 43.9681C43.2585 42.6189 44.147 40.789 44.147 38.881V18.4417H44.8646V38.881C44.8646 40.9514 43.9006 42.937 42.1846 44.401C40.4686 45.865 38.1412 46.6875 35.7144 46.6875Z" fill="#264575"/>
<path d="M46.0738 30.4913L50.0963 26.2942C50.2596 26.1243 49.9761 25.8794 49.8111 26.0508L45.7868 30.2479C45.6235 30.4178 45.907 30.6627 46.0721 30.4913H46.0738Z" fill="#264575"/>
<path d="M47.2777 28.1402L49.6603 25.7462C49.8272 25.5778 49.5437 25.3329 49.3751 25.5028L46.9924 27.8968C46.8256 28.0652 47.1091 28.3101 47.2777 28.1402Z" fill="#264575"/>
<path d="M36.9595 32.8179H14.5326C13.9616 32.8179 13.414 33.0115 13.0102 33.3559C12.6065 33.7004 12.3796 34.1676 12.3796 34.6548V34.9961C12.5464 34.6676 12.8221 34.3879 13.1727 34.1913C13.5233 33.9947 13.9336 33.8898 14.3532 33.8894H36.7801C37.3511 33.8894 37.8987 34.083 38.3025 34.4274C38.7062 34.7719 38.9331 35.2391 38.9331 35.7263V42.7322C39.0514 42.502 39.1125 42.2534 39.1125 42.0021V34.6548C39.1125 34.1676 38.8857 33.7004 38.4819 33.3559C38.0781 33.0115 37.5305 32.8179 36.9595 32.8179Z" fill="#6EF9F2"/>
<path d="M36.9596 42.1551H14.5327C13.9617 42.1551 13.4141 41.9616 13.0103 41.6171C12.6066 41.2727 12.3797 40.8055 12.3797 40.3183V33.9047C12.3205 34.0736 12.2902 34.2489 12.29 34.4252V41.7725C12.29 42.2596 12.5169 42.7268 12.9206 43.0713C13.3244 43.4158 13.872 43.6093 14.443 43.6093H36.8699C37.4409 43.6093 37.9885 43.4158 38.3923 43.0713C38.7961 42.7268 39.0229 42.2596 39.0229 41.7725V40.8387C38.8913 41.2186 38.6194 41.5521 38.2475 41.7893C37.8757 42.0265 37.4239 42.1549 36.9596 42.1551Z" fill="#0FCBC9"/>
<path opacity="0.35" d="M37.6772 37.1039C37.6772 36.5966 37.1952 36.1854 36.6007 36.1854C36.0061 36.1854 35.5242 36.5966 35.5242 37.1039V38.3284C35.5242 38.8356 36.0061 39.2468 36.6007 39.2468C37.1952 39.2468 37.6772 38.8356 37.6772 38.3284V37.1039Z" fill="white"/>
<path d="M36.9596 43.9154H14.5327C13.8906 43.9146 13.2751 43.6966 12.8211 43.3093C12.367 42.9219 12.1115 42.3968 12.1106 41.849V34.5017C12.1115 33.9539 12.367 33.4288 12.8211 33.0414C13.2751 32.6541 13.8906 32.4361 14.5327 32.4353H36.9596C37.6017 32.4361 38.2172 32.6541 38.6712 33.0414C39.1253 33.4288 39.3807 33.9539 39.3817 34.5017V41.849C39.3807 42.3968 39.1253 42.9219 38.6712 43.3093C38.2172 43.6966 37.6017 43.9146 36.9596 43.9154ZM14.5327 32.8945C14.0332 32.8949 13.5543 33.0644 13.2011 33.3657C12.8479 33.667 12.6493 34.0756 12.6488 34.5017V41.849C12.6493 42.2751 12.8479 42.6837 13.2011 42.985C13.5543 43.2864 14.0332 43.4558 14.5327 43.4562H36.9596C37.4591 43.4558 37.938 43.2864 38.2912 42.985C38.6443 42.6837 38.843 42.2751 38.8435 41.849V34.5017C38.843 34.0756 38.6443 33.667 38.2912 33.3657C37.938 33.0644 37.4591 32.8949 36.9596 32.8945H14.5327Z" fill="#264575"/>
<path d="M16.1473 35.7262L15.2234 37.5034C15.168 37.6094 15.1447 37.7256 15.1554 37.8414C15.1661 37.9571 15.2105 38.0688 15.2847 38.1661C15.3589 38.2635 15.4604 38.3434 15.58 38.3988C15.6997 38.4541 15.8336 38.4831 15.9697 38.483C16.0957 38.4832 16.22 38.4584 16.3329 38.4108C16.4459 38.3631 16.5443 38.2938 16.6206 38.2083C16.6969 38.1227 16.7489 38.0233 16.7726 37.9177C16.7964 37.8122 16.7911 37.7033 16.7574 37.5998L16.1473 35.7262Z" fill="white"/>
<path d="M16.7413 37.5524C16.686 37.6894 16.582 37.8084 16.4437 37.8926C16.3054 37.9769 16.1397 38.0222 15.9698 38.0223C15.8013 38.0232 15.6367 37.9795 15.4985 37.8973C15.3603 37.8151 15.2555 37.6983 15.1983 37.5631C15.1571 37.6677 15.1456 37.7791 15.1648 37.8882C15.1839 37.9974 15.2332 38.101 15.3086 38.1907C15.3839 38.2804 15.4831 38.3535 15.5981 38.4041C15.7131 38.4547 15.8405 38.4812 15.9698 38.4815C16.0958 38.4816 16.2201 38.4569 16.333 38.4093C16.4459 38.3616 16.5444 38.2923 16.6207 38.2067C16.697 38.1212 16.749 38.0218 16.7727 37.9162C16.7965 37.8106 16.7912 37.7018 16.7574 37.5983L16.7413 37.5524Z" fill="#E8EFEF"/>
<path d="M36.0625 35.6497H35.3448V35.1905H36.0625V35.6497ZM34.4477 35.6497H33.5506V35.1905H34.4477V35.6497ZM32.6536 35.6497H31.7565V35.1905H32.6536V35.6497ZM30.8594 35.6497H29.9623V35.1905H30.8594V35.6497ZM29.0653 35.6497H28.1682V35.1905H29.0653V35.6497ZM27.2711 35.6497H26.374V35.1905H27.2711V35.6497ZM25.477 35.6497H24.5799V35.1905H25.477V35.6497ZM23.6828 35.6497H22.7857V35.1905H23.6828V35.6497ZM21.8887 35.6497H20.9916V35.1905H21.8887V35.6497ZM20.0945 35.6497H19.1974V35.1905H20.0945V35.6497ZM18.3004 35.6497H17.4033V35.1905H18.3004V35.6497ZM16.5062 35.6497H15.6091V35.1905H16.5062V35.6497Z" fill="#264575"/>
<path d="M28.1538 15.5977V32.7414H33.1918V15.5977" fill="#DB9464"/>
<path d="M33.1917 19.0265V32.7414H31.8174L33.1917 19.0265Z" fill="#E4AE88"/>
<path d="M28.1538 15.5977V16.5161H33.1918V15.5977" fill="#C68254"/>
<path d="M33.461 32.8179H27.8848V15.4446H28.423V32.3587H32.9227V15.4446H33.461V32.8179Z" fill="#264575"/>
<path d="M33.9094 14.9089H27.271V15.215H33.9094V14.9089Z" fill="#6EF9F2"/>
<path d="M28.9756 31.0577H28.7961V30.2923H28.9756V31.0577ZM28.9756 29.3739H28.7961V28.6086H28.9756V29.3739ZM28.9756 27.6902H28.7961V26.9248H28.9756V27.6902ZM28.9756 26.0064H28.7961V25.2411H28.9756V26.0064ZM28.9756 24.3226H28.7961V23.5573H28.9756V24.3226ZM28.9756 22.6389H28.7961V21.8735H28.9756V22.6389ZM28.9756 20.9551H28.7961V20.1898H28.9756V20.9551ZM28.9756 19.2714H28.7961V18.506H28.9756V19.2714ZM28.9756 17.5876H28.7961V16.8223H28.9756V17.5876Z" fill="#BC754D"/>
<path d="M32.4741 30.9046H32.2947V30.1392H32.4741V30.9046ZM32.4741 29.2208H32.2947V28.4555H32.4741V29.2208ZM32.4741 27.5371H32.2947V26.7717H32.4741V27.5371ZM32.4741 25.8533H32.2947V25.088H32.4741V25.8533ZM32.4741 24.1696H32.2947V23.4042H32.4741V24.1696ZM32.4741 22.4858H32.2947V21.7205H32.4741V22.4858ZM32.4741 20.8021H32.2947V20.0367H32.4741V20.8021ZM32.4741 19.1183H32.2947V18.353H32.4741V19.1183ZM32.4741 17.4345H32.2947V16.6692H32.4741V17.4345Z" fill="#BC754D"/>
<path d="M29.8725 29.6035H29.5137V32.5118H29.8725V29.6035Z" fill="#264575"/>
<path d="M30.6799 28.6086H30.321V31.5169H30.6799V28.6086Z" fill="#264575"/>
<path d="M33.9094 15.2151H27.271V15.6743H33.9094V15.2151Z" fill="#264575"/>
<path d="M30.5454 26.4656C30.8179 26.4656 31.0388 26.2771 31.0388 26.0447C31.0388 25.8122 30.8179 25.6237 30.5454 25.6237C30.2729 25.6237 30.052 25.8122 30.052 26.0447C30.052 26.2771 30.2729 26.4656 30.5454 26.4656Z" fill="#264575"/>
<path d="M30.5454 24.7053C30.8179 24.7053 31.0388 24.5169 31.0388 24.2844C31.0388 24.0519 30.8179 23.8634 30.5454 23.8634C30.2729 23.8634 30.052 24.0519 30.052 24.2844C30.052 24.5169 30.2729 24.7053 30.5454 24.7053Z" fill="#264575"/>
<path d="M30.5454 22.945C30.8179 22.945 31.0388 22.7566 31.0388 22.5241C31.0388 22.2916 30.8179 22.1031 30.5454 22.1031C30.2729 22.1031 30.052 22.2916 30.052 22.5241C30.052 22.7566 30.2729 22.945 30.5454 22.945Z" fill="#264575"/>
<path d="M33.5505 19.9005V22.7843C33.5505 23.1777 33.3819 23.5068 32.9351 23.5496C32.9854 23.4547 32.8329 23.3491 32.8329 23.2435V20.6658C32.8319 20.4599 32.7356 20.2625 32.5649 20.1169C32.3941 19.9712 32.1629 19.8891 31.9214 19.8882H28.9001C28.6587 19.8891 28.4274 19.9712 28.2567 20.1169C28.0859 20.2625 27.9896 20.4599 27.9887 20.6658V23.2435C27.989 23.349 28.0153 23.4533 28.0658 23.5496C27.8473 23.5256 27.6463 23.4348 27.5002 23.2941C27.3541 23.1534 27.2727 22.9723 27.271 22.7843V19.9005C27.2719 19.6945 27.3683 19.4972 27.539 19.3515C27.7097 19.2059 27.941 19.1237 28.1824 19.1229H32.6391C32.8805 19.1237 33.1118 19.2059 33.2825 19.3515C33.4533 19.4972 33.5496 19.6945 33.5505 19.9005Z" fill="white"/>
<path d="M33.7299 19.9005V22.7843C33.7282 22.9723 33.6468 23.1534 33.5007 23.2941C33.3546 23.4348 33.1536 23.5256 32.9351 23.5497C32.9856 23.4533 33.0119 23.349 33.0122 23.2435V20.6658C33.0118 20.5141 32.9595 20.3658 32.8616 20.2391C32.7638 20.1123 32.6247 20.0128 32.4614 19.9525C32.6485 19.694 32.798 19.4169 32.9064 19.1275C33.1315 19.1465 33.3403 19.236 33.4925 19.3788C33.6446 19.5216 33.7292 19.7075 33.7299 19.9005Z" fill="#E8EFEF"/>
<path d="M28.2705 23.8114L27.953 23.7777C27.4147 23.7211 27.1797 23.1976 27.1797 22.7062V19.8194C27.1802 19.5727 27.2952 19.3362 27.4997 19.1617C27.7042 18.9873 27.9814 18.8891 28.2705 18.8887H32.7272C33.0164 18.8891 33.2936 18.9873 33.498 19.1617C33.7025 19.3362 33.8176 19.5727 33.818 19.8194V22.7032C33.818 23.1976 33.5794 23.7211 33.0448 23.7747L32.7272 23.8083L32.8528 23.5711C32.842 23.5101 32.8246 23.4502 32.8008 23.392C32.7684 23.3172 32.7484 23.2389 32.7416 23.1593V20.5847C32.7416 20.4191 32.6644 20.2602 32.5272 20.1431C32.3899 20.026 32.2037 19.9602 32.0095 19.9602H28.99C28.7958 19.9602 28.6097 20.026 28.4724 20.1431C28.3351 20.2602 28.258 20.4191 28.258 20.5847V23.1624C28.2511 23.2419 28.2312 23.3202 28.1988 23.3951C28.1749 23.4532 28.1575 23.5132 28.1467 23.5741L28.2705 23.8114ZM28.9918 19.6495H32.0131C32.3023 19.6499 32.5795 19.7481 32.7839 19.9225C32.9884 20.0969 33.1035 20.3334 33.104 20.5801V23.1578C33.1144 23.2062 33.1294 23.2538 33.1488 23.3002C33.1614 23.3354 33.1739 23.369 33.1847 23.4027C33.3749 23.2711 33.4628 22.9711 33.4628 22.6986V19.8194C33.4628 19.7374 33.4439 19.6562 33.4071 19.5804C33.3703 19.5046 33.3164 19.4358 33.2484 19.3778C33.1804 19.3198 33.0997 19.2738 33.0109 19.2424C32.9221 19.211 32.8269 19.1949 32.7308 19.1949H28.2723C28.0782 19.1949 27.892 19.2607 27.7547 19.3778C27.6174 19.4949 27.5403 19.6537 27.5403 19.8194V22.7032C27.5403 22.9772 27.6282 23.2757 27.8184 23.4073C27.8292 23.3736 27.8417 23.34 27.8543 23.3047C27.8737 23.2584 27.8887 23.2108 27.8991 23.1624V20.5847C27.8996 20.338 28.0147 20.1015 28.2192 19.9271C28.4236 19.7526 28.7008 19.6545 28.99 19.6541L28.9918 19.6495Z" fill="#264575"/>
<path d="M30.7697 20.4959V17.4345C30.7697 17.3736 30.7413 17.3152 30.6909 17.2722C30.6404 17.2291 30.5719 17.2049 30.5006 17.2049C30.4292 17.2049 30.3607 17.2291 30.3103 17.2722C30.2598 17.3152 30.2314 17.3736 30.2314 17.4345V20.4959C30.2314 20.5568 30.2598 20.6152 30.3103 20.6583C30.3607 20.7013 30.4292 20.7255 30.5006 20.7255C30.5719 20.7255 30.6404 20.7013 30.6909 20.6583C30.7413 20.6152 30.7697 20.5568 30.7697 20.4959Z" fill="#264575"/>
<path d="M16.8506 15.5977V32.7414H21.8886V15.5977" fill="#DB9464"/>
<path d="M21.8887 19.0265V32.7414H20.5144L21.8887 19.0265Z" fill="#E4AE88"/>
<path d="M16.8506 15.5977V16.5161H21.8886V15.5977" fill="#C68254"/>
<path d="M22.1578 32.8179H16.5815V15.4446H17.1198V32.3587H21.6195V15.4446H22.1578V32.8179Z" fill="#264575"/>
<path d="M22.6064 14.9089H15.968V15.215H22.6064V14.9089Z" fill="#6EF9F2"/>
<path d="M17.6723 31.0577H17.4929V30.2923H17.6723V31.0577ZM17.6723 29.3739H17.4929V28.6086H17.6723V29.3739ZM17.6723 27.6902H17.4929V26.9248H17.6723V27.6902ZM17.6723 26.0064H17.4929V25.2411H17.6723V26.0064ZM17.6723 24.3226H17.4929V23.5573H17.6723V24.3226ZM17.6723 22.6389H17.4929V21.8735H17.6723V22.6389ZM17.6723 20.9551H17.4929V20.1898H17.6723V20.9551ZM17.6723 19.2714H17.4929V18.506H17.6723V19.2714ZM17.6723 17.5876H17.4929V16.8223H17.6723V17.5876Z" fill="#BC754D"/>
<path d="M21.1711 30.9046H20.9917V30.1392H21.1711V30.9046ZM21.1711 29.2208H20.9917V28.4555H21.1711V29.2208ZM21.1711 27.5371H20.9917V26.7717H21.1711V27.5371ZM21.1711 25.8533H20.9917V25.088H21.1711V25.8533ZM21.1711 24.1696H20.9917V23.4042H21.1711V24.1696ZM21.1711 22.4858H20.9917V21.7205H21.1711V22.4858ZM21.1711 20.8021H20.9917V20.0367H21.1711V20.8021ZM21.1711 19.1183H20.9917V18.353H21.1711V19.1183ZM21.1711 17.4345H20.9917V16.6692H21.1711V17.4345Z" fill="#BC754D"/>
<path d="M18.5695 29.6035H18.2107V32.5118H18.5695V29.6035Z" fill="#264575"/>
<path d="M19.3769 28.6086H19.0181V31.5169H19.3769V28.6086Z" fill="#264575"/>
<path d="M22.6064 15.2151H15.968V15.6743H22.6064V15.2151Z" fill="#264575"/>
<path d="M19.2422 26.4656C19.5147 26.4656 19.7356 26.2771 19.7356 26.0447C19.7356 25.8122 19.5147 25.6237 19.2422 25.6237C18.9697 25.6237 18.7488 25.8122 18.7488 26.0447C18.7488 26.2771 18.9697 26.4656 19.2422 26.4656Z" fill="#264575"/>
<path d="M19.2422 24.7053C19.5147 24.7053 19.7356 24.5169 19.7356 24.2844C19.7356 24.0519 19.5147 23.8634 19.2422 23.8634C18.9697 23.8634 18.7488 24.0519 18.7488 24.2844C18.7488 24.5169 18.9697 24.7053 19.2422 24.7053Z" fill="#264575"/>
<path d="M19.2422 22.945C19.5147 22.945 19.7356 22.7566 19.7356 22.5241C19.7356 22.2916 19.5147 22.1031 19.2422 22.1031C18.9697 22.1031 18.7488 22.2916 18.7488 22.5241C18.7488 22.7566 18.9697 22.945 19.2422 22.945Z" fill="#264575"/>
<path d="M22.2475 19.9005V22.7843C22.2475 23.1777 22.0789 23.5068 21.6322 23.5496C21.6824 23.4547 21.5299 23.3491 21.5299 23.2435V20.6658C21.5289 20.4599 21.4326 20.2625 21.2619 20.1169C21.0912 19.9712 20.8599 19.8891 20.6185 19.8882H17.5971C17.3557 19.8891 17.1244 19.9712 16.9537 20.1169C16.783 20.2625 16.6866 20.4599 16.6857 20.6658V23.2435C16.686 23.349 16.7123 23.4533 16.7628 23.5496C16.5443 23.5256 16.3434 23.4348 16.1972 23.2941C16.0511 23.1534 15.9697 22.9723 15.968 22.7843V19.9005C15.969 19.6945 16.0653 19.4972 16.236 19.3515C16.4067 19.2059 16.638 19.1237 16.8794 19.1229H21.3361C21.5776 19.1237 21.8088 19.2059 21.9796 19.3515C22.1503 19.4972 22.2466 19.6945 22.2475 19.9005Z" fill="white"/>
<path d="M22.4269 19.9005V22.7843C22.4253 22.9723 22.3438 23.1534 22.1977 23.2941C22.0516 23.4348 21.8506 23.5256 21.6321 23.5497C21.6826 23.4533 21.7089 23.349 21.7093 23.2435V20.6658C21.7088 20.5141 21.6565 20.3658 21.5586 20.2391C21.4608 20.1123 21.3217 20.0128 21.1584 19.9525C21.3455 19.694 21.495 19.4169 21.6034 19.1275C21.8285 19.1465 22.0373 19.236 22.1895 19.3788C22.3416 19.5216 22.4262 19.7075 22.4269 19.9005Z" fill="#E8EFEF"/>
<path d="M16.9673 23.8114L16.6497 23.7777C16.1115 23.7211 15.8765 23.1976 15.8765 22.7062V19.8194C15.8769 19.5727 15.992 19.3362 16.1965 19.1617C16.401 18.9873 16.6781 18.8891 16.9673 18.8887H21.424C21.7131 18.8891 21.9903 18.9873 22.1948 19.1617C22.3993 19.3362 22.5144 19.5727 22.5148 19.8194V22.7032C22.5148 23.1976 22.2762 23.7211 21.7415 23.7747L21.424 23.8083L21.5496 23.5711C21.5388 23.5101 21.5214 23.4502 21.4975 23.392C21.4651 23.3172 21.4452 23.2389 21.4383 23.1593V20.5847C21.4383 20.4191 21.3612 20.2602 21.2239 20.1431C21.0867 20.026 20.9005 19.9602 20.7063 19.9602H17.6868C17.4926 19.9602 17.3064 20.026 17.1692 20.1431C17.0319 20.2602 16.9548 20.4191 16.9548 20.5847V23.1624C16.9479 23.2419 16.9279 23.3202 16.8955 23.3951C16.8717 23.4532 16.8543 23.5132 16.8435 23.5741L16.9673 23.8114ZM17.6886 19.6495H20.7099C20.9991 19.6499 21.2763 19.7481 21.4807 19.9225C21.6852 20.0969 21.8003 20.3334 21.8008 20.5801V23.1578C21.8112 23.2062 21.8262 23.2538 21.8456 23.3002C21.8582 23.3354 21.8707 23.369 21.8815 23.4027C22.0717 23.2711 22.1596 22.9711 22.1596 22.6986V19.8194C22.1596 19.6537 22.0825 19.4949 21.9452 19.3778C21.8079 19.2607 21.6217 19.1949 21.4276 19.1949H16.9691C16.775 19.1949 16.5888 19.2607 16.4515 19.3778C16.3142 19.4949 16.2371 19.6537 16.2371 19.8194V22.7032C16.2371 22.9772 16.325 23.2757 16.5152 23.4073C16.5259 23.3736 16.5385 23.34 16.5511 23.3047C16.5705 23.2584 16.5855 23.2108 16.5959 23.1624V20.5847C16.5964 20.338 16.7115 20.1015 16.9159 19.9271C17.1204 19.7526 17.3976 19.6545 17.6868 19.6541L17.6886 19.6495Z" fill="#264575"/>
<path d="M19.4665 20.4959V17.4345C19.4665 17.3736 19.4381 17.3152 19.3876 17.2722C19.3372 17.2291 19.2687 17.2049 19.1973 17.2049C19.126 17.2049 19.0575 17.2291 19.007 17.2722C18.9566 17.3152 18.9282 17.3736 18.9282 17.4345V20.4959C18.9282 20.5568 18.9566 20.6152 19.007 20.6583C19.0575 20.7013 19.126 20.7255 19.1973 20.7255C19.2687 20.7255 19.3372 20.7013 19.3876 20.6583C19.4381 20.6152 19.4665 20.5568 19.4665 20.4959Z" fill="#264575"/>
<path d="M15.9679 38.6346C15.8018 38.6348 15.6382 38.5996 15.492 38.5322C15.3459 38.4647 15.2219 38.3671 15.1313 38.2482C15.0407 38.1294 14.9863 37.9931 14.9733 37.8518C14.9602 37.7104 14.9888 37.5686 15.0565 37.4391L16.185 35.2747L16.9278 37.557C16.9674 37.6828 16.9725 37.8147 16.9429 37.9425C16.9133 38.0704 16.8496 38.1907 16.7569 38.2942C16.6641 38.3977 16.5448 38.4817 16.408 38.5396C16.2712 38.5976 16.1207 38.628 15.9679 38.6284V38.6346ZM16.1061 36.1855L15.3884 37.5631C15.345 37.6459 15.3265 37.7368 15.3348 37.8273C15.3431 37.9178 15.3778 38.0051 15.4358 38.0812C15.4938 38.1573 15.5732 38.2198 15.6668 38.263C15.7604 38.3062 15.8651 38.3287 15.9715 38.3284C16.0699 38.3285 16.167 38.3091 16.2551 38.2718C16.3432 38.2345 16.42 38.1802 16.4794 38.1134C16.5389 38.0465 16.5794 37.9688 16.5977 37.8863C16.616 37.8039 16.6117 37.7189 16.5851 37.6381L16.1061 36.1855Z" fill="#264575"/>
<path d="M8.87342 16.2606C9.01412 16.2595 9.12708 16.1612 9.12573 16.0412C9.12438 15.9211 9.00923 15.8248 8.86853 15.8259C8.72783 15.8271 8.61486 15.9253 8.61622 16.0454C8.61757 16.1654 8.73272 16.2618 8.87342 16.2606Z" fill="white"/>
<path d="M8.88074 16.9141C9.02144 16.913 9.13441 16.8147 9.13305 16.6947C9.1317 16.5747 9.01655 16.4783 8.87585 16.4794C8.73515 16.4806 8.62219 16.5788 8.62354 16.6989C8.62489 16.8189 8.74004 16.9153 8.88074 16.9141Z" fill="white"/>
<path d="M8.88807 17.5676C9.02877 17.5665 9.14173 17.4683 9.14038 17.3482C9.13903 17.2282 9.02387 17.1318 8.88318 17.133C8.74248 17.1341 8.62951 17.2323 8.63086 17.3524C8.63221 17.4724 8.74737 17.5688 8.88807 17.5676Z" fill="white"/>
<path d="M8.15613 15.4951C8.29683 15.4939 8.4098 15.3957 8.40845 15.2756C8.40709 15.1556 8.29194 15.0592 8.15124 15.0604C8.01054 15.0615 7.89758 15.1598 7.89893 15.2798C7.90028 15.3998 8.01543 15.4962 8.15613 15.4951Z" fill="white"/>
<path d="M8.16346 16.1486C8.30416 16.1474 8.41712 16.0492 8.41577 15.9291C8.41442 15.8091 8.29926 15.7127 8.15857 15.7139C8.01787 15.715 7.9049 15.8133 7.90625 15.9333C7.9076 16.0534 8.02276 16.1497 8.16346 16.1486Z" fill="white"/>
<path d="M8.17078 16.8021C8.31148 16.8009 8.42444 16.7027 8.42309 16.5826C8.42174 16.4626 8.30659 16.3662 8.16589 16.3674C8.02519 16.3685 7.91223 16.4668 7.91358 16.5868C7.91493 16.7068 8.03008 16.8032 8.17078 16.8021Z" fill="white"/>
<path d="M36.3251 37.9956C36.4658 37.9944 36.5787 37.8962 36.5774 37.7761C36.576 37.6561 36.4609 37.5597 36.3202 37.5609C36.1795 37.562 36.0665 37.6603 36.0679 37.7803C36.0692 37.9003 36.1844 37.9967 36.3251 37.9956Z" fill="white"/>
<path d="M36.3324 38.6491C36.4731 38.6479 36.5861 38.5497 36.5847 38.4296C36.5834 38.3096 36.4682 38.2132 36.3275 38.2144C36.1868 38.2155 36.0738 38.3138 36.0752 38.4338C36.0766 38.5538 36.1917 38.6502 36.3324 38.6491Z" fill="white"/>
<path d="M36.3397 39.3026C36.4804 39.3014 36.5934 39.2032 36.592 39.0832C36.5907 38.9631 36.4755 38.8667 36.3348 38.8679C36.1941 38.869 36.0812 38.9673 36.0825 39.0873C36.0839 39.2074 36.199 39.3037 36.3397 39.3026Z" fill="white"/>
<path d="M35.6058 37.23C35.7465 37.2288 35.8595 37.1306 35.8582 37.0106C35.8568 36.8905 35.7416 36.7942 35.6009 36.7953C35.4603 36.7965 35.3473 36.8947 35.3486 37.0147C35.35 37.1348 35.4651 37.2312 35.6058 37.23Z" fill="white"/>
<path d="M35.6132 37.8835C35.7539 37.8824 35.8668 37.7841 35.8655 37.6641C35.8641 37.5441 35.749 37.4477 35.6083 37.4488C35.4676 37.45 35.3546 37.5482 35.356 37.6683C35.3573 37.7883 35.4725 37.8847 35.6132 37.8835Z" fill="white"/>
<path d="M35.6207 38.537C35.7614 38.5359 35.8744 38.4376 35.873 38.3176C35.8717 38.1976 35.7565 38.1012 35.6158 38.1023C35.4751 38.1035 35.3622 38.2017 35.3635 38.3218C35.3649 38.4418 35.48 38.5382 35.6207 38.537Z" fill="white"/>
<path d="M49.2426 29.577C49.3833 29.5758 49.4962 29.4776 49.4949 29.3576C49.4935 29.2375 49.3784 29.1412 49.2377 29.1423C49.097 29.1435 48.984 29.2417 48.9854 29.3617C48.9867 29.4818 49.1019 29.5782 49.2426 29.577Z" fill="white"/>
<path d="M49.2501 30.2305C49.3908 30.2293 49.5038 30.1311 49.5024 30.0111C49.5011 29.891 49.3859 29.7946 49.2452 29.7958C49.1045 29.7969 48.9916 29.8952 48.9929 30.0152C48.9943 30.1353 49.1094 30.2316 49.2501 30.2305Z" fill="white"/>
<path d="M49.2574 30.884C49.3981 30.8829 49.5111 30.7846 49.5098 30.6646C49.5084 30.5445 49.3933 30.4482 49.2526 30.4493C49.1119 30.4505 48.9989 30.5487 49.0002 30.6687C49.0016 30.7888 49.1167 30.8852 49.2574 30.884Z" fill="white"/>
<path d="M12.6488 12.0159C12.7895 12.0148 12.9025 11.9165 12.9011 11.7965C12.8998 11.6764 12.7846 11.5801 12.6439 11.5812C12.5032 11.5824 12.3903 11.6806 12.3916 11.8007C12.393 11.9207 12.5081 12.0171 12.6488 12.0159Z" fill="white"/>
<path d="M12.6544 12.6694C12.7951 12.6683 12.9081 12.57 12.9067 12.45C12.9054 12.33 12.7902 12.2336 12.6495 12.2347C12.5088 12.2359 12.3959 12.3341 12.3972 12.4542C12.3986 12.5742 12.5137 12.6706 12.6544 12.6694Z" fill="white"/>
<path d="M41.5275 11.9738C41.6682 11.9726 41.7811 11.8744 41.7798 11.7544C41.7784 11.6343 41.6633 11.5379 41.5226 11.5391C41.3819 11.5402 41.2689 11.6385 41.2703 11.7585C41.2716 11.8786 41.3868 11.9749 41.5275 11.9738Z" fill="#32ADAA"/>
<path d="M41.5331 12.6273C41.6738 12.6262 41.7867 12.5279 41.7854 12.4079C41.784 12.2879 41.6689 12.1915 41.5282 12.1926C41.3875 12.1938 41.2745 12.292 41.2759 12.4121C41.2772 12.5321 41.3924 12.6285 41.5331 12.6273Z" fill="#32ADAA"/>
<path d="M41.5404 13.2808C41.6811 13.2797 41.7941 13.1814 41.7927 13.0614C41.7914 12.9414 41.6762 12.845 41.5355 12.8461C41.3948 12.8473 41.2819 12.9455 41.2832 13.0656C41.2846 13.1856 41.3997 13.282 41.5404 13.2808Z" fill="#32ADAA"/>
<path d="M41.5267 9.83095C41.6674 9.82979 41.7804 9.73155 41.7791 9.61151C41.7777 9.49147 41.6625 9.3951 41.5218 9.39625C41.3811 9.3974 41.2682 9.49565 41.2695 9.61569C41.2709 9.73572 41.386 9.8321 41.5267 9.83095Z" fill="#32ADAA"/>
<path d="M41.5341 10.4845C41.6748 10.4833 41.7877 10.3851 41.7864 10.265C41.785 10.145 41.6699 10.0486 41.5292 10.0498C41.3885 10.0509 41.2755 10.1492 41.2769 10.2692C41.2782 10.3892 41.3934 10.4856 41.5341 10.4845Z" fill="#32ADAA"/>
<path d="M41.5414 11.138C41.6821 11.1368 41.795 11.0386 41.7937 10.9185C41.7923 10.7985 41.6772 10.7021 41.5365 10.7033C41.3958 10.7044 41.2828 10.8027 41.2842 10.9227C41.2855 11.0428 41.4007 11.1391 41.5414 11.138Z" fill="#32ADAA"/>
<path d="M41.1683 31.8732C41.309 31.8721 41.422 31.7738 41.4207 31.6538C41.4193 31.5337 41.3041 31.4374 41.1634 31.4385C41.0228 31.4397 40.9098 31.5379 40.9111 31.658C40.9125 31.778 41.0276 31.8744 41.1683 31.8732Z" fill="#32ADAA"/>
<path d="M41.1757 32.5267C41.3164 32.5256 41.4293 32.4273 41.428 32.3073C41.4266 32.1873 41.3115 32.0909 41.1708 32.092C41.0301 32.0932 40.9171 32.1914 40.9185 32.3115C40.9198 32.4315 41.035 32.5279 41.1757 32.5267Z" fill="#32ADAA"/>
<path d="M41.183 33.1803C41.3237 33.1791 41.4367 33.0809 41.4353 32.9608C41.4339 32.8408 41.3188 32.7444 41.1781 32.7456C41.0374 32.7467 40.9244 32.845 40.9258 32.965C40.9271 33.085 41.0423 33.1814 41.183 33.1803Z" fill="#32ADAA"/>
<path d="M40.4511 31.1077C40.5918 31.1065 40.7047 31.0083 40.7034 30.8882C40.702 30.7682 40.5869 30.6718 40.4462 30.673C40.3055 30.6741 40.1925 30.7724 40.1939 30.8924C40.1952 31.0124 40.3104 31.1088 40.4511 31.1077Z" fill="#32ADAA"/>
<path d="M40.4584 31.7612C40.5991 31.76 40.712 31.6618 40.7107 31.5417C40.7093 31.4217 40.5942 31.3253 40.4535 31.3265C40.3128 31.3276 40.1998 31.4259 40.2012 31.5459C40.2025 31.6659 40.3177 31.7623 40.4584 31.7612Z" fill="#32ADAA"/>
<path d="M40.4657 32.4147C40.6064 32.4136 40.7194 32.3153 40.718 32.1953C40.7167 32.0752 40.6015 31.9789 40.4608 31.98C40.3201 31.9812 40.2071 32.0794 40.2085 32.1994C40.2099 32.3195 40.325 32.4159 40.4657 32.4147Z" fill="#32ADAA"/>
<path d="M43.3212 35.3928C43.4619 35.3917 43.5748 35.2934 43.5735 35.1734C43.5721 35.0534 43.457 34.957 43.3163 34.9581C43.1756 34.9593 43.0626 35.0575 43.064 35.1776C43.0653 35.2976 43.1805 35.394 43.3212 35.3928Z" fill="#32ADAA"/>
<path d="M43.3287 36.0464C43.4694 36.0452 43.5824 35.947 43.5811 35.8269C43.5797 35.7069 43.4645 35.6105 43.3238 35.6117C43.1832 35.6128 43.0702 35.7111 43.0715 35.8311C43.0729 35.9511 43.188 36.0475 43.3287 36.0464Z" fill="#32ADAA"/>
<path d="M43.3361 36.6999C43.4768 36.6987 43.5897 36.6005 43.5884 36.4804C43.587 36.3604 43.4719 36.264 43.3312 36.2652C43.1905 36.2663 43.0775 36.3646 43.0789 36.4846C43.0802 36.6047 43.1954 36.701 43.3361 36.6999Z" fill="#32ADAA"/>
<path d="M42.6041 34.6273C42.7448 34.6261 42.8578 34.5279 42.8564 34.4078C42.8551 34.2878 42.7399 34.1914 42.5992 34.1926C42.4585 34.1937 42.3456 34.292 42.3469 34.412C42.3483 34.532 42.4634 34.6284 42.6041 34.6273Z" fill="#32ADAA"/>
<path d="M42.6115 35.2808C42.7522 35.2796 42.8651 35.1814 42.8638 35.0614C42.8624 34.9413 42.7473 34.8449 42.6066 34.8461C42.4659 34.8472 42.3529 34.9455 42.3543 35.0655C42.3556 35.1856 42.4708 35.2819 42.6115 35.2808Z" fill="#32ADAA"/>
<path d="M42.6188 35.9343C42.7595 35.9331 42.8724 35.8349 42.8711 35.7149C42.8697 35.5948 42.7546 35.4985 42.6139 35.4996C42.4732 35.5008 42.3602 35.599 42.3616 35.719C42.3629 35.8391 42.4781 35.9355 42.6188 35.9343Z" fill="#32ADAA"/>
<path d="M38.1193 41.2105C38.26 41.2093 38.3729 41.1111 38.3716 40.991C38.3702 40.871 38.2551 40.7746 38.1144 40.7758C37.9737 40.7769 37.8607 40.8752 37.8621 40.9952C37.8634 41.1152 37.9786 41.2116 38.1193 41.2105Z" fill="#32ADAA"/>
<path d="M38.1268 41.864C38.2675 41.8628 38.3805 41.7646 38.3791 41.6446C38.3778 41.5245 38.2626 41.4281 38.1219 41.4293C37.9812 41.4304 37.8683 41.5287 37.8696 41.6487C37.871 41.7688 37.9861 41.8651 38.1268 41.864Z" fill="#32ADAA"/>
<path d="M38.1322 42.5175C38.2729 42.5163 38.3859 42.4181 38.3845 42.298C38.3832 42.178 38.268 42.0816 38.1273 42.0828C37.9866 42.0839 37.8737 42.1822 37.875 42.3022C37.8764 42.4222 37.9915 42.5186 38.1322 42.5175Z" fill="#32ADAA"/>
<path d="M37.4003 40.4449C37.541 40.4437 37.6539 40.3455 37.6526 40.2254C37.6512 40.1054 37.5361 40.009 37.3954 40.0102C37.2547 40.0113 37.1417 40.1096 37.1431 40.2296C37.1444 40.3497 37.2596 40.446 37.4003 40.4449Z" fill="#32ADAA"/>
<path d="M37.4076 41.0984C37.5483 41.0973 37.6613 40.999 37.6599 40.879C37.6586 40.759 37.5434 40.6626 37.4027 40.6637C37.262 40.6649 37.149 40.7631 37.1504 40.8832C37.1517 41.0032 37.2669 41.0996 37.4076 41.0984Z" fill="#32ADAA"/>
<path d="M37.4149 41.752C37.5556 41.7508 37.6686 41.6526 37.6672 41.5325C37.6659 41.4125 37.5507 41.3161 37.41 41.3173C37.2693 41.3184 37.1564 41.4167 37.1577 41.5367C37.1591 41.6567 37.2742 41.7531 37.4149 41.752Z" fill="#32ADAA"/>
<path d="M42.7836 15.4947C42.9243 15.4935 43.0372 15.3953 43.0359 15.2752C43.0345 15.1552 42.9194 15.0588 42.7787 15.06C42.638 15.0611 42.525 15.1594 42.5264 15.2794C42.5277 15.3994 42.6429 15.4958 42.7836 15.4947Z" fill="#32ADAA"/>
<path d="M42.7889 16.1482C42.9296 16.147 43.0426 16.0488 43.0413 15.9288C43.0399 15.8087 42.9248 15.7123 42.7841 15.7135C42.6434 15.7146 42.5304 15.8129 42.5317 15.9329C42.5331 16.053 42.6482 16.1493 42.7889 16.1482Z" fill="#32ADAA"/>
<path d="M42.7963 16.8017C42.937 16.8005 43.0499 16.7023 43.0486 16.5822C43.0472 16.4622 42.9321 16.3658 42.7914 16.367C42.6507 16.3681 42.5377 16.4664 42.5391 16.5864C42.5404 16.7064 42.6556 16.8028 42.7963 16.8017Z" fill="#32ADAA"/>
<path d="M42.0643 14.7291C42.205 14.728 42.318 14.6297 42.3166 14.5097C42.3153 14.3896 42.2001 14.2933 42.0594 14.2944C41.9187 14.2956 41.8058 14.3938 41.8071 14.5139C41.8085 14.6339 41.9236 14.7303 42.0643 14.7291Z" fill="#32ADAA"/>
<path d="M42.0717 15.3826C42.2124 15.3815 42.3253 15.2832 42.324 15.1632C42.3226 15.0432 42.2075 14.9468 42.0668 14.9479C41.9261 14.9491 41.8131 15.0473 41.8145 15.1674C41.8158 15.2874 41.931 15.3838 42.0717 15.3826Z" fill="#32ADAA"/>
<path d="M42.079 16.0361C42.2197 16.035 42.3326 15.9367 42.3313 15.8167C42.3299 15.6966 42.2148 15.6003 42.0741 15.6014C41.9334 15.6026 41.8204 15.7008 41.8218 15.8209C41.8231 15.9409 41.9383 16.0373 42.079 16.0361Z" fill="#32ADAA"/>
<path d="M46.0123 31.5657C46.153 31.5645 46.266 31.4663 46.2646 31.3463C46.2633 31.2262 46.1481 31.1298 46.0074 31.131C45.8667 31.1321 45.7538 31.2304 45.7551 31.3504C45.7565 31.4705 45.8716 31.5668 46.0123 31.5657Z" fill="#32ADAA"/>
<path d="M46.0197 32.2192C46.1604 32.2181 46.2733 32.1198 46.272 31.9998C46.2706 31.8797 46.1555 31.7834 46.0148 31.7845C45.8741 31.7857 45.7611 31.8839 45.7625 32.0039C45.7638 32.124 45.879 32.2204 46.0197 32.2192Z" fill="#32ADAA"/>
<path d="M46.0272 32.8742C46.1679 32.8731 46.2809 32.7748 46.2795 32.6548C46.2782 32.5348 46.163 32.4384 46.0223 32.4395C45.8816 32.4407 45.7687 32.5389 45.77 32.659C45.7714 32.779 45.8865 32.8754 46.0272 32.8742Z" fill="#32ADAA"/>
<path d="M45.295 30.8016C45.4357 30.8005 45.5487 30.7023 45.5474 30.5822C45.546 30.4622 45.4309 30.3658 45.2902 30.367C45.1495 30.3681 45.0365 30.4664 45.0378 30.5864C45.0392 30.7064 45.1544 30.8028 45.295 30.8016Z" fill="#32ADAA"/>
<path d="M45.3026 31.4552C45.4433 31.454 45.5563 31.3558 45.5549 31.2357C45.5536 31.1157 45.4384 31.0193 45.2977 31.0205C45.157 31.0216 45.0441 31.1199 45.0454 31.2399C45.0468 31.3599 45.1619 31.4563 45.3026 31.4552Z" fill="#32ADAA"/>
<path d="M45.3099 32.1087C45.4506 32.1075 45.5636 32.0093 45.5623 31.8893C45.5609 31.7692 45.4457 31.6728 45.3051 31.674C45.1644 31.6751 45.0514 31.7734 45.0527 31.8934C45.0541 32.0135 45.1692 32.1098 45.3099 32.1087Z" fill="#32ADAA"/>
<path d="M9.68828 4.13443H41.852C42.15 4.13401 42.4417 4.20747 42.6917 4.34588C42.9417 4.4843 43.1391 4.6817 43.26 4.91408C43.3809 5.14646 43.42 5.4038 43.3726 5.6548C43.3253 5.90581 43.1934 6.13966 42.9931 6.32791L41.5829 7.65501C39.5837 9.53876 37.1442 11.0443 34.4215 12.0747C31.6987 13.1051 28.7532 13.6374 25.7746 13.6374C22.7961 13.6374 19.8505 13.1051 17.1278 12.0747C14.4051 11.0443 11.9655 9.53876 9.96637 7.65501L8.55617 6.32637C8.35696 6.13856 8.22575 5.90555 8.17839 5.6555C8.13102 5.40545 8.16952 5.14904 8.28924 4.91725C8.40895 4.68546 8.60477 4.4882 8.85303 4.34929C9.10129 4.21037 9.39139 4.13575 9.68828 4.13443Z" fill="#0FDAD7"/>
<path d="M42.9916 5.62228L41.5814 6.95091C39.5822 8.83467 37.1427 10.3402 34.4199 11.3706C31.6972 12.401 28.7517 12.9333 25.7731 12.9333C22.7945 12.9333 19.849 12.401 17.1262 11.3706C14.4035 10.3402 11.964 8.83467 9.96482 6.95091L8.55461 5.62228C8.40308 5.48065 8.28978 5.31241 8.2227 5.12939C8.14361 5.34551 8.13265 5.57559 8.19092 5.79647C8.24919 6.01736 8.37463 6.22124 8.55461 6.38762L9.96482 7.71625C11.964 9.60001 14.4035 11.1056 17.1262 12.136C19.849 13.1663 22.7945 13.6987 25.7731 13.6987C28.7517 13.6987 31.6972 13.1663 34.4199 12.136C37.1427 11.1056 39.5822 9.60001 41.5814 7.71625L42.9916 6.38762C43.1715 6.22124 43.297 6.01736 43.3553 5.79647C43.4135 5.57559 43.4026 5.34551 43.3235 5.12939C43.2564 5.31241 43.1431 5.48065 42.9916 5.62228Z" fill="#0FCBC9"/>
<path d="M10.0473 5.26559H42.2111C42.509 5.26348 42.8011 5.33624 43.0509 5.47478C43.3007 5.61333 43.4972 5.81154 43.6159 6.04471C43.7205 5.84467 43.7649 5.62551 43.745 5.40713C43.7251 5.18875 43.6416 4.97806 43.5021 4.79421C43.3625 4.61036 43.1713 4.45917 42.9459 4.35437C42.7204 4.24957 42.4678 4.19448 42.2111 4.19411H10.0473C9.7906 4.19448 9.53804 4.24957 9.31259 4.35437C9.08714 4.45917 8.89595 4.61036 8.75638 4.79421C8.61682 4.97806 8.5333 5.18875 8.51342 5.40713C8.49353 5.62551 8.53791 5.84467 8.64252 6.04471C8.7612 5.81154 8.95769 5.61333 9.2075 5.47478C9.45732 5.33624 9.7494 5.26348 10.0473 5.26559Z" fill="#6EF9F2"/>
<path d="M25.7749 14.0977C22.7466 14.0957 19.7524 13.5535 16.9842 12.5059C14.2161 11.4583 11.7353 9.92855 9.70106 8.01474L8.29086 6.68611C8.04463 6.45443 7.88237 6.16683 7.82374 5.85811C7.7651 5.5494 7.81259 5.2328 7.96047 4.94664C8.10834 4.66047 8.35026 4.417 8.65694 4.24569C8.96363 4.07438 9.32193 3.98258 9.6885 3.98138H41.8523C42.2196 3.9811 42.5791 4.07184 42.8871 4.24257C43.1952 4.4133 43.4385 4.65669 43.5874 4.94315C43.7364 5.22961 43.7847 5.54681 43.7263 5.85623C43.668 6.16564 43.5056 6.45394 43.2589 6.68611L41.8487 8.01474C39.8144 9.92855 37.3336 11.4583 34.5655 12.5059C31.7974 13.5535 28.8031 14.0957 25.7749 14.0977ZM9.6885 4.59366C9.45965 4.59312 9.23555 4.64943 9.04357 4.75571C8.8516 4.862 8.70003 5.01366 8.60739 5.1922C8.51474 5.37073 8.48501 5.56842 8.52183 5.76112C8.55866 5.95383 8.66044 6.13323 8.81475 6.27741L10.2267 7.60452C12.1939 9.4549 14.5928 10.9339 17.2694 11.9467C19.9461 12.9595 22.8414 13.4836 25.7695 13.4854C28.6976 13.4836 31.5929 12.9595 34.2695 11.9467C36.9462 10.9339 39.3451 9.4549 41.3122 7.60452L42.726 6.27741C42.8803 6.13323 42.9821 5.95383 43.0189 5.76112C43.0557 5.56842 43.026 5.37073 42.9334 5.1922C42.8407 5.01366 42.6892 4.862 42.4972 4.75571C42.3052 4.64943 42.0811 4.59312 41.8523 4.59366H9.6885Z" fill="#264575"/>
<path d="M41.0825 5.94239L40.6611 6.33958L41.0602 6.64775L41.4816 6.25055L41.0825 5.94239Z" fill="#264575"/>
<path d="M26.374 12.8854L26.3578 12.4262C26.7777 12.4155 27.2029 12.394 27.6137 12.3588L27.6658 12.818C27.2477 12.8594 26.81 12.8747 26.374 12.8854ZM25.258 12.8854C24.8256 12.8747 24.3896 12.8517 23.959 12.8165L24.0111 12.3573C24.4291 12.391 24.8561 12.4139 25.267 12.4246L25.258 12.8854ZM28.7853 12.7063L28.7064 12.2471C29.1226 12.1935 29.5407 12.1262 29.9515 12.0481L30.0681 12.4966C29.6429 12.5746 29.2123 12.6435 28.7853 12.7063ZM22.8539 12.7063C22.4268 12.6496 21.9962 12.5808 21.5746 12.5012L21.6912 12.0527C22.1021 12.1307 22.5201 12.1981 22.9364 12.2517L22.8539 12.7063ZM20.4927 12.267C20.0765 12.166 19.6585 12.0527 19.253 11.9272L19.4324 11.4955C19.8271 11.6164 20.2326 11.7266 20.6381 11.8246L20.4927 12.267ZM31.1482 12.267L31.0011 11.8246C31.4066 11.7266 31.812 11.6149 32.2068 11.494L32.3862 11.9256C31.9825 12.0466 31.5645 12.1598 31.1482 12.2609V12.267ZM18.2124 11.5812C17.8141 11.4373 17.4176 11.2751 17.0318 11.1128L17.2758 10.7026C17.649 10.8649 18.0366 11.0179 18.4241 11.1618L18.2124 11.5812ZM33.4286 11.5812L33.2187 11.1588C33.6044 11.0195 33.9919 10.8649 34.3669 10.6996L34.6109 11.1098C34.2234 11.2736 33.8251 11.4312 33.4286 11.5751V11.5812ZM16.0522 10.6628C15.679 10.4776 15.3077 10.2786 14.9506 10.072L15.2502 9.68012C15.5983 9.88064 15.9679 10.075 16.3267 10.2572L16.0522 10.6628ZM35.5905 10.6628L35.3196 10.2572C35.6784 10.0766 36.0373 9.8837 36.3961 9.68165L36.6975 10.0613C36.3351 10.2648 35.9637 10.4638 35.5905 10.6506V10.6628ZM14.0446 9.50409C13.7019 9.28061 13.3628 9.04488 13.038 8.79997L13.3969 8.45404C13.7126 8.69129 14.0428 8.9209 14.3765 9.13825L14.0446 9.50409ZM37.6 9.50409L37.2734 9.13978C37.6072 8.92243 37.9373 8.69129 38.2531 8.45404L38.6119 8.79844C38.2818 9.03264 37.9427 9.27755 37.6 9.50103V9.50409ZM12.2181 8.15249C11.9472 7.92442 11.6799 7.69329 11.4233 7.44532L11.321 7.34888L11.7193 7.04274L11.8198 7.13765C12.0692 7.37337 12.3294 7.59685 12.5931 7.82493L12.2181 8.15249ZM39.4246 8.15249L39.0479 7.82493C39.3098 7.60451 39.5682 7.3749 39.8176 7.14071L39.9234 7.04121L40.3217 7.34735L40.2159 7.44685C39.9593 7.68563 39.6938 7.92289 39.4246 8.1479V8.15249Z" fill="#264575"/>
<path d="M10.5562 5.94232L10.1572 6.2506L10.5788 6.64766L10.9777 6.33938L10.5562 5.94232Z" fill="#264575"/>
<path d="M28.5808 6.33709H23.5589C23.1319 6.33709 22.7856 6.63246 22.7856 6.99682V8.81527C22.7856 9.17963 23.1319 9.475 23.5589 9.475H28.5808C29.0078 9.475 29.354 9.17963 29.354 8.81527V6.99682C29.354 6.63246 29.0078 6.33709 28.5808 6.33709Z" fill="white"/>
<path d="M29.3164 6.94934H22.8215C22.8724 6.81645 22.971 6.70058 23.1033 6.61816C23.2357 6.53574 23.3951 6.49095 23.5589 6.49014H28.5826C28.7459 6.49112 28.9048 6.53603 29.0365 6.61847C29.1683 6.70091 29.2662 6.81669 29.3164 6.94934Z" fill="#E8EFEF"/>
<path d="M28.579 9.70459H23.5553C23.279 9.70418 23.0142 9.61036 22.8188 9.44366C22.6234 9.27697 22.5134 9.051 22.5129 8.81526V6.9968C22.5134 6.76106 22.6234 6.53509 22.8188 6.3684C23.0142 6.20171 23.279 6.10788 23.5553 6.10748H28.579C28.8553 6.10788 29.1201 6.20171 29.3155 6.3684C29.5109 6.53509 29.6209 6.76106 29.6214 6.9968V8.81526C29.6209 9.051 29.5109 9.27697 29.3155 9.44366C29.1201 9.61036 28.8553 9.70418 28.579 9.70459ZM23.5553 6.56668C23.4218 6.56708 23.2938 6.61253 23.1994 6.69311C23.1049 6.77368 23.0517 6.88285 23.0512 6.9968V8.81526C23.0517 8.92921 23.1049 9.03838 23.1994 9.11896C23.2938 9.19953 23.4218 9.24498 23.5553 9.24538H28.579C28.7125 9.24498 28.8405 9.19953 28.9349 9.11896C29.0294 9.03838 29.0826 8.92921 29.0831 8.81526V6.9968C29.0826 6.88285 29.0294 6.77368 28.9349 6.69311C28.8405 6.61253 28.7125 6.56708 28.579 6.56668H23.5553Z" fill="#264575"/>
<path opacity="0.35" d="M18.3002 6.64323C18.3002 6.136 17.8182 5.72482 17.2237 5.72482C16.6292 5.72482 16.1472 6.136 16.1472 6.64323V7.86778C16.1472 8.375 16.6292 8.78619 17.2237 8.78619C17.8182 8.78619 18.3002 8.375 18.3002 7.86778V6.64323Z" fill="white"/>
<path d="M14.1084 6.51741C14.1097 6.39737 13.9967 6.29914 13.856 6.29801C13.7153 6.29688 13.6002 6.39327 13.5988 6.51331C13.5975 6.63335 13.7105 6.73158 13.8512 6.73271C13.9919 6.73384 14.107 6.63745 14.1084 6.51741Z" fill="white"/>
<path d="M13.3422 6.5112C13.3436 6.39116 13.2306 6.29293 13.0899 6.2918C12.9492 6.29067 12.834 6.38706 12.8327 6.5071C12.8314 6.62714 12.9444 6.72537 13.0851 6.7265C13.2258 6.72763 13.3409 6.63124 13.3422 6.5112Z" fill="white"/>
<path d="M12.5761 6.5065C12.5775 6.38646 12.4645 6.28823 12.3238 6.2871C12.1831 6.28597 12.0679 6.38236 12.0666 6.5024C12.0653 6.62244 12.1783 6.72067 12.319 6.7218C12.4597 6.72293 12.5748 6.62654 12.5761 6.5065Z" fill="white"/>
<path d="M15.0195 5.92097C15.0208 5.80094 14.9078 5.70271 14.7671 5.70158C14.6264 5.70045 14.5113 5.79684 14.51 5.91688C14.5086 6.03691 14.6216 6.13514 14.7623 6.13627C14.903 6.1374 15.0182 6.04101 15.0195 5.92097Z" fill="white"/>
<path d="M14.2534 5.91473C14.2547 5.79469 14.1417 5.69647 14.001 5.69534C13.8603 5.6942 13.7452 5.7906 13.7439 5.91064C13.7425 6.03067 13.8555 6.1289 13.9962 6.13003C14.1369 6.13116 14.252 6.03477 14.2534 5.91473Z" fill="white"/>
<path d="M13.4856 5.90851C13.4869 5.78848 13.3739 5.69025 13.2332 5.68912C13.0925 5.68799 12.9774 5.78438 12.976 5.90442C12.9747 6.02446 13.0877 6.12268 13.2284 6.12381C13.3691 6.12495 13.4842 6.02855 13.4856 5.90851Z" fill="white"/>
<path d="M21.1052 6.67061C21.1065 6.55058 20.9935 6.45235 20.8528 6.45122C20.7121 6.45009 20.597 6.54648 20.5957 6.66652C20.5943 6.78656 20.7073 6.88478 20.848 6.88591C20.9887 6.88705 21.1039 6.79065 21.1052 6.67061Z" fill="white"/>
<path d="M20.3391 6.66444C20.3404 6.5444 20.2274 6.44618 20.0867 6.44505C19.946 6.44391 19.8309 6.54031 19.8295 6.66035C19.8282 6.78038 19.9412 6.87861 20.0819 6.87974C20.2226 6.88087 20.3377 6.78448 20.3391 6.66444Z" fill="white"/>
<path d="M19.573 6.65977C19.5743 6.53974 19.4613 6.44151 19.3206 6.44038C19.1799 6.43925 19.0648 6.53564 19.0634 6.65568C19.0621 6.77571 19.1751 6.87394 19.3158 6.87507C19.4565 6.8762 19.5716 6.77981 19.573 6.65977Z" fill="white"/>
<path d="M22.0163 6.07422C22.0176 5.95418 21.9047 5.85595 21.764 5.85482C21.6233 5.85369 21.5081 5.95008 21.5068 6.07012C21.5055 6.19016 21.6185 6.28839 21.7592 6.28952C21.8999 6.29065 22.015 6.19426 22.0163 6.07422Z" fill="white"/>
<path d="M21.2502 6.06801C21.2515 5.94797 21.1385 5.84974 20.9978 5.84861C20.8571 5.84748 20.742 5.94387 20.7407 6.06391C20.7394 6.18395 20.8523 6.28217 20.993 6.28331C21.1337 6.28444 21.2489 6.18805 21.2502 6.06801Z" fill="white"/>
<path d="M20.4821 6.06025C20.4835 5.94021 20.3705 5.84198 20.2298 5.84085C20.0891 5.83972 19.9739 5.93611 19.9726 6.05615C19.9713 6.17619 20.0843 6.27442 20.225 6.27555C20.3657 6.27668 20.4808 6.18029 20.4821 6.06025Z" fill="white"/>
</svg>
