<svg width="534" height="266" viewBox="0 0 534 266" fill="none" xmlns="http://www.w3.org/2000/svg">
<path d="M129.28 28.8193H124.64V41.5193H122.71V28.8193H118.06V27.1893H129.28V28.8193ZM130.669 33.4193C130.989 32.726 131.383 32.186 131.849 31.7993C132.316 31.406 132.886 31.2093 133.559 31.2093C133.773 31.2093 133.976 31.2327 134.169 31.2793C134.369 31.326 134.546 31.3993 134.699 31.4993L134.569 32.8293C134.529 32.996 134.429 33.0793 134.269 33.0793C134.176 33.0793 134.039 33.0593 133.859 33.0193C133.679 32.9793 133.476 32.9593 133.249 32.9593C132.929 32.9593 132.643 33.006 132.389 33.0993C132.143 33.1927 131.919 33.3327 131.719 33.5193C131.526 33.6993 131.349 33.926 131.189 34.1993C131.036 34.466 130.896 34.7727 130.769 35.1193V41.5193H128.979V31.3893H129.999C130.193 31.3893 130.326 31.426 130.399 31.4993C130.473 31.5727 130.523 31.6993 130.549 31.8793L130.669 33.4193ZM141.798 36.9593C140.978 36.986 140.278 37.0527 139.698 37.1593C139.125 37.2593 138.655 37.3927 138.288 37.5593C137.928 37.726 137.665 37.9227 137.498 38.1493C137.338 38.376 137.258 38.6293 137.258 38.9093C137.258 39.176 137.302 39.406 137.388 39.5993C137.475 39.7927 137.592 39.9527 137.738 40.0793C137.892 40.1993 138.068 40.2893 138.268 40.3493C138.475 40.4027 138.695 40.4293 138.928 40.4293C139.242 40.4293 139.528 40.3993 139.788 40.3393C140.048 40.2727 140.292 40.1793 140.518 40.0593C140.752 39.9393 140.972 39.796 141.178 39.6293C141.392 39.4627 141.598 39.2727 141.798 39.0593V36.9593ZM136.048 32.8193C136.608 32.2793 137.212 31.876 137.858 31.6093C138.505 31.3427 139.222 31.2093 140.008 31.2093C140.575 31.2093 141.078 31.3027 141.518 31.4893C141.958 31.676 142.328 31.936 142.628 32.2693C142.928 32.6027 143.155 33.006 143.308 33.4793C143.462 33.9527 143.538 34.4727 143.538 35.0393V41.5193H142.748C142.575 41.5193 142.442 41.4927 142.348 41.4393C142.255 41.3793 142.182 41.266 142.128 41.0993L141.928 40.1393C141.662 40.386 141.402 40.606 141.148 40.7993C140.895 40.986 140.628 41.146 140.348 41.2793C140.068 41.406 139.768 41.5027 139.448 41.5693C139.135 41.6427 138.785 41.6793 138.398 41.6793C138.005 41.6793 137.635 41.626 137.288 41.5193C136.942 41.406 136.638 41.2393 136.378 41.0193C136.125 40.7993 135.922 40.5227 135.768 40.1893C135.622 39.8493 135.548 39.4493 135.548 38.9893C135.548 38.5893 135.658 38.206 135.878 37.8393C136.098 37.466 136.455 37.136 136.948 36.8493C137.442 36.5627 138.085 36.3293 138.878 36.1493C139.672 35.9627 140.645 35.856 141.798 35.8293V35.0393C141.798 34.2527 141.628 33.6593 141.288 33.2593C140.948 32.8527 140.452 32.6493 139.798 32.6493C139.358 32.6493 138.988 32.706 138.688 32.8193C138.395 32.926 138.138 33.0493 137.918 33.1893C137.705 33.3227 137.518 33.446 137.358 33.5593C137.205 33.666 137.052 33.7193 136.898 33.7193C136.778 33.7193 136.675 33.6893 136.588 33.6293C136.502 33.5627 136.428 33.4827 136.368 33.3893L136.048 32.8193ZM148.13 32.8593C148.35 32.6127 148.583 32.3893 148.83 32.1893C149.076 31.9893 149.336 31.8193 149.61 31.6793C149.89 31.5327 150.183 31.4227 150.49 31.3493C150.803 31.2693 151.14 31.2293 151.5 31.2293C152.053 31.2293 152.54 31.3227 152.96 31.5093C153.386 31.6893 153.74 31.9493 154.02 32.2893C154.306 32.6227 154.523 33.026 154.67 33.4993C154.816 33.9727 154.89 34.496 154.89 35.0693V41.5193H153.1V35.0693C153.1 34.3027 152.923 33.7093 152.57 33.2893C152.223 32.8627 151.693 32.6493 150.98 32.6493C150.453 32.6493 149.96 32.776 149.5 33.0293C149.046 33.2827 148.626 33.626 148.24 34.0593V41.5193H146.45V31.3893H147.52C147.773 31.3893 147.93 31.5127 147.99 31.7593L148.13 32.8593ZM163.702 33.0593C163.622 33.206 163.499 33.2793 163.332 33.2793C163.232 33.2793 163.119 33.2427 162.992 33.1693C162.865 33.096 162.709 33.016 162.522 32.9293C162.342 32.836 162.125 32.7527 161.872 32.6793C161.619 32.5993 161.319 32.5593 160.972 32.5593C160.672 32.5593 160.402 32.5993 160.162 32.6793C159.922 32.7527 159.715 32.856 159.542 32.9893C159.375 33.1227 159.245 33.2793 159.152 33.4593C159.065 33.6327 159.022 33.8227 159.022 34.0293C159.022 34.2893 159.095 34.506 159.242 34.6793C159.395 34.8527 159.595 35.0027 159.842 35.1293C160.089 35.256 160.369 35.3693 160.682 35.4693C160.995 35.5627 161.315 35.666 161.642 35.7793C161.975 35.886 162.299 36.006 162.612 36.1393C162.925 36.2727 163.205 36.4393 163.452 36.6393C163.699 36.8393 163.895 37.086 164.042 37.3793C164.195 37.666 164.272 38.0127 164.272 38.4193C164.272 38.886 164.189 39.3193 164.022 39.7193C163.855 40.1127 163.609 40.456 163.282 40.7493C162.955 41.036 162.555 41.2627 162.082 41.4293C161.609 41.596 161.062 41.6793 160.442 41.6793C159.735 41.6793 159.095 41.566 158.522 41.3393C157.949 41.106 157.462 40.8093 157.062 40.4493L157.482 39.7693C157.535 39.6827 157.599 39.616 157.672 39.5693C157.745 39.5227 157.839 39.4993 157.952 39.4993C158.072 39.4993 158.199 39.546 158.332 39.6393C158.465 39.7327 158.625 39.836 158.812 39.9493C159.005 40.0627 159.239 40.166 159.512 40.2593C159.785 40.3527 160.125 40.3993 160.532 40.3993C160.879 40.3993 161.182 40.356 161.442 40.2693C161.702 40.176 161.919 40.0527 162.092 39.8993C162.265 39.746 162.392 39.5693 162.472 39.3693C162.559 39.1693 162.602 38.956 162.602 38.7293C162.602 38.4493 162.525 38.2193 162.372 38.0393C162.225 37.8527 162.029 37.696 161.782 37.5693C161.535 37.436 161.252 37.3227 160.932 37.2293C160.619 37.1293 160.295 37.026 159.962 36.9193C159.635 36.8127 159.312 36.6927 158.992 36.5593C158.679 36.4193 158.399 36.246 158.152 36.0393C157.905 35.8327 157.705 35.5793 157.552 35.2793C157.405 34.9727 157.332 34.6027 157.332 34.1693C157.332 33.7827 157.412 33.4127 157.572 33.0593C157.732 32.6993 157.965 32.386 158.272 32.1193C158.579 31.846 158.955 31.6293 159.402 31.4693C159.849 31.3093 160.359 31.2293 160.932 31.2293C161.599 31.2293 162.195 31.336 162.722 31.5493C163.255 31.756 163.715 32.0427 164.102 32.4093L163.702 33.0593ZM168.444 39.0793C168.771 39.5193 169.128 39.8293 169.514 40.0093C169.901 40.1893 170.334 40.2793 170.814 40.2793C171.761 40.2793 172.488 39.9427 172.994 39.2693C173.501 38.596 173.754 37.636 173.754 36.3893C173.754 35.7293 173.694 35.1627 173.574 34.6893C173.461 34.216 173.294 33.8293 173.074 33.5293C172.854 33.2227 172.584 32.9993 172.264 32.8593C171.944 32.7193 171.581 32.6493 171.174 32.6493C170.594 32.6493 170.084 32.7827 169.644 33.0493C169.211 33.316 168.811 33.6927 168.444 34.1793V39.0793ZM168.354 32.9593C168.781 32.4327 169.274 32.0093 169.834 31.6893C170.394 31.3693 171.034 31.2093 171.754 31.2093C172.341 31.2093 172.871 31.3227 173.344 31.5493C173.818 31.7693 174.221 32.0993 174.554 32.5393C174.888 32.9727 175.144 33.5127 175.324 34.1593C175.504 34.806 175.594 35.5493 175.594 36.3893C175.594 37.136 175.494 37.8327 175.294 38.4793C175.094 39.1193 174.804 39.676 174.424 40.1493C174.051 40.616 173.591 40.986 173.044 41.2593C172.504 41.526 171.894 41.6593 171.214 41.6593C170.594 41.6593 170.061 41.556 169.614 41.3493C169.174 41.136 168.784 40.8427 168.444 40.4693V44.9493H166.654V31.3893H167.724C167.978 31.3893 168.134 31.5127 168.194 31.7593L168.354 32.9593ZM182.335 31.2293C183.075 31.2293 183.742 31.3527 184.335 31.5993C184.929 31.846 185.435 32.196 185.855 32.6493C186.275 33.1027 186.595 33.6527 186.815 34.2993C187.042 34.9393 187.155 35.656 187.155 36.4493C187.155 37.2493 187.042 37.9693 186.815 38.6093C186.595 39.2493 186.275 39.796 185.855 40.2493C185.435 40.7027 184.929 41.0527 184.335 41.2993C183.742 41.5393 183.075 41.6593 182.335 41.6593C181.589 41.6593 180.915 41.5393 180.315 41.2993C179.722 41.0527 179.215 40.7027 178.795 40.2493C178.375 39.796 178.052 39.2493 177.825 38.6093C177.605 37.9693 177.495 37.2493 177.495 36.4493C177.495 35.656 177.605 34.9393 177.825 34.2993C178.052 33.6527 178.375 33.1027 178.795 32.6493C179.215 32.196 179.722 31.846 180.315 31.5993C180.915 31.3527 181.589 31.2293 182.335 31.2293ZM182.335 40.2693C183.335 40.2693 184.082 39.936 184.575 39.2693C185.069 38.596 185.315 37.6593 185.315 36.4593C185.315 35.2527 185.069 34.3127 184.575 33.6393C184.082 32.966 183.335 32.6293 182.335 32.6293C181.829 32.6293 181.385 32.716 181.005 32.8893C180.632 33.0627 180.319 33.3127 180.065 33.6393C179.819 33.966 179.632 34.3693 179.505 34.8493C179.385 35.3227 179.325 35.8593 179.325 36.4593C179.325 37.6593 179.572 38.596 180.065 39.2693C180.565 39.936 181.322 40.2693 182.335 40.2693ZM191.303 33.4193C191.623 32.726 192.016 32.186 192.483 31.7993C192.95 31.406 193.52 31.2093 194.193 31.2093C194.406 31.2093 194.61 31.2327 194.803 31.2793C195.003 31.326 195.18 31.3993 195.333 31.4993L195.203 32.8293C195.163 32.996 195.063 33.0793 194.903 33.0793C194.81 33.0793 194.673 33.0593 194.493 33.0193C194.313 32.9793 194.11 32.9593 193.883 32.9593C193.563 32.9593 193.276 33.006 193.023 33.0993C192.776 33.1927 192.553 33.3327 192.353 33.5193C192.16 33.6993 191.983 33.926 191.823 34.1993C191.67 34.466 191.53 34.7727 191.403 35.1193V41.5193H189.613V31.3893H190.633C190.826 31.3893 190.96 31.426 191.033 31.4993C191.106 31.5727 191.156 31.6993 191.183 31.8793L191.303 33.4193ZM200.208 41.6793C199.408 41.6793 198.792 41.456 198.358 41.0093C197.932 40.5627 197.718 39.9193 197.718 39.0793V32.8793H196.498C196.392 32.8793 196.302 32.8493 196.228 32.7893C196.155 32.7227 196.118 32.6227 196.118 32.4893V31.7793L197.778 31.5693L198.188 28.4393C198.208 28.3393 198.252 28.2593 198.318 28.1993C198.392 28.1327 198.485 28.0993 198.598 28.0993H199.498V31.5893H202.428V32.8793H199.498V38.9593C199.498 39.386 199.602 39.7027 199.808 39.9093C200.015 40.116 200.282 40.2193 200.608 40.2193C200.795 40.2193 200.955 40.196 201.088 40.1493C201.228 40.096 201.348 40.0393 201.448 39.9793C201.548 39.9193 201.632 39.866 201.698 39.8193C201.772 39.766 201.835 39.7393 201.888 39.7393C201.982 39.7393 202.065 39.796 202.138 39.9093L202.658 40.7593C202.352 41.046 201.982 41.2727 201.548 41.4393C201.115 41.5993 200.668 41.6793 200.208 41.6793ZM209.956 36.9593C209.136 36.986 208.436 37.0527 207.856 37.1593C207.283 37.2593 206.813 37.3927 206.446 37.5593C206.086 37.726 205.823 37.9227 205.656 38.1493C205.496 38.376 205.416 38.6293 205.416 38.9093C205.416 39.176 205.46 39.406 205.546 39.5993C205.633 39.7927 205.75 39.9527 205.896 40.0793C206.05 40.1993 206.226 40.2893 206.426 40.3493C206.633 40.4027 206.853 40.4293 207.086 40.4293C207.4 40.4293 207.686 40.3993 207.946 40.3393C208.206 40.2727 208.45 40.1793 208.676 40.0593C208.91 39.9393 209.13 39.796 209.336 39.6293C209.55 39.4627 209.756 39.2727 209.956 39.0593V36.9593ZM204.206 32.8193C204.766 32.2793 205.37 31.876 206.016 31.6093C206.663 31.3427 207.38 31.2093 208.166 31.2093C208.733 31.2093 209.236 31.3027 209.676 31.4893C210.116 31.676 210.486 31.936 210.786 32.2693C211.086 32.6027 211.313 33.006 211.466 33.4793C211.62 33.9527 211.696 34.4727 211.696 35.0393V41.5193H210.906C210.733 41.5193 210.6 41.4927 210.506 41.4393C210.413 41.3793 210.34 41.266 210.286 41.0993L210.086 40.1393C209.82 40.386 209.56 40.606 209.306 40.7993C209.053 40.986 208.786 41.146 208.506 41.2793C208.226 41.406 207.926 41.5027 207.606 41.5693C207.293 41.6427 206.943 41.6793 206.556 41.6793C206.163 41.6793 205.793 41.626 205.446 41.5193C205.1 41.406 204.796 41.2393 204.536 41.0193C204.283 40.7993 204.08 40.5227 203.926 40.1893C203.78 39.8493 203.706 39.4493 203.706 38.9893C203.706 38.5893 203.816 38.206 204.036 37.8393C204.256 37.466 204.613 37.136 205.106 36.8493C205.6 36.5627 206.243 36.3293 207.036 36.1493C207.83 35.9627 208.803 35.856 209.956 35.8293V35.0393C209.956 34.2527 209.786 33.6593 209.446 33.2593C209.106 32.8527 208.61 32.6493 207.956 32.6493C207.516 32.6493 207.146 32.706 206.846 32.8193C206.553 32.926 206.296 33.0493 206.076 33.1893C205.863 33.3227 205.676 33.446 205.516 33.5593C205.363 33.666 205.21 33.7193 205.056 33.7193C204.936 33.7193 204.833 33.6893 204.746 33.6293C204.66 33.5627 204.586 33.4827 204.526 33.3893L204.206 32.8193ZM223.871 41.5193H222.091V32.8793H216.871V38.9593C216.871 39.386 216.974 39.7027 217.181 39.9093C217.388 40.116 217.654 40.2193 217.981 40.2193C218.168 40.2193 218.328 40.196 218.461 40.1493C218.601 40.096 218.721 40.0393 218.821 39.9793C218.921 39.9193 219.004 39.866 219.071 39.8193C219.144 39.766 219.208 39.7393 219.261 39.7393C219.354 39.7393 219.438 39.796 219.511 39.9093L220.031 40.7593C219.724 41.046 219.354 41.2727 218.921 41.4393C218.488 41.5993 218.041 41.6793 217.581 41.6793C216.781 41.6793 216.164 41.456 215.731 41.0093C215.304 40.5627 215.091 39.9193 215.091 39.0793V32.8793H213.871C213.764 32.8793 213.674 32.8493 213.601 32.7893C213.528 32.7227 213.491 32.6227 213.491 32.4893V31.7793L215.151 31.5593L215.561 28.4393C215.581 28.3393 215.624 28.2593 215.691 28.1993C215.764 28.1327 215.858 28.0993 215.971 28.0993H216.871V31.5893H223.871V41.5193ZM224.311 28.1393C224.311 28.3127 224.274 28.476 224.201 28.6293C224.134 28.776 224.041 28.906 223.921 29.0193C223.808 29.1327 223.674 29.2227 223.521 29.2893C223.368 29.356 223.204 29.3893 223.031 29.3893C222.858 29.3893 222.694 29.356 222.541 29.2893C222.394 29.2227 222.264 29.1327 222.151 29.0193C222.038 28.906 221.948 28.776 221.881 28.6293C221.814 28.476 221.781 28.3127 221.781 28.1393C221.781 27.966 221.814 27.8027 221.881 27.6493C221.948 27.4893 222.038 27.3527 222.151 27.2393C222.264 27.1193 222.394 27.026 222.541 26.9593C222.694 26.8927 222.858 26.8593 223.031 26.8593C223.204 26.8593 223.368 26.8927 223.521 26.9593C223.674 27.026 223.808 27.1193 223.921 27.2393C224.041 27.3527 224.134 27.4893 224.201 27.6493C224.274 27.8027 224.311 27.966 224.311 28.1393ZM231.265 31.2293C232.005 31.2293 232.672 31.3527 233.265 31.5993C233.858 31.846 234.365 32.196 234.785 32.6493C235.205 33.1027 235.525 33.6527 235.745 34.2993C235.972 34.9393 236.085 35.656 236.085 36.4493C236.085 37.2493 235.972 37.9693 235.745 38.6093C235.525 39.2493 235.205 39.796 234.785 40.2493C234.365 40.7027 233.858 41.0527 233.265 41.2993C232.672 41.5393 232.005 41.6593 231.265 41.6593C230.518 41.6593 229.845 41.5393 229.245 41.2993C228.652 41.0527 228.145 40.7027 227.725 40.2493C227.305 39.796 226.982 39.2493 226.755 38.6093C226.535 37.9693 226.425 37.2493 226.425 36.4493C226.425 35.656 226.535 34.9393 226.755 34.2993C226.982 33.6527 227.305 33.1027 227.725 32.6493C228.145 32.196 228.652 31.846 229.245 31.5993C229.845 31.3527 230.518 31.2293 231.265 31.2293ZM231.265 40.2693C232.265 40.2693 233.012 39.936 233.505 39.2693C233.998 38.596 234.245 37.6593 234.245 36.4593C234.245 35.2527 233.998 34.3127 233.505 33.6393C233.012 32.966 232.265 32.6293 231.265 32.6293C230.758 32.6293 230.315 32.716 229.935 32.8893C229.562 33.0627 229.248 33.3127 228.995 33.6393C228.748 33.966 228.562 34.3693 228.435 34.8493C228.315 35.3227 228.255 35.8593 228.255 36.4593C228.255 37.6593 228.502 38.596 228.995 39.2693C229.495 39.936 230.252 40.2693 231.265 40.2693ZM240.223 32.8593C240.443 32.6127 240.676 32.3893 240.923 32.1893C241.169 31.9893 241.429 31.8193 241.703 31.6793C241.983 31.5327 242.276 31.4227 242.583 31.3493C242.896 31.2693 243.233 31.2293 243.593 31.2293C244.146 31.2293 244.633 31.3227 245.053 31.5093C245.479 31.6893 245.833 31.9493 246.113 32.2893C246.399 32.6227 246.616 33.026 246.763 33.4993C246.909 33.9727 246.983 34.496 246.983 35.0693V41.5193H245.193V35.0693C245.193 34.3027 245.016 33.7093 244.663 33.2893C244.316 32.8627 243.786 32.6493 243.073 32.6493C242.546 32.6493 242.053 32.776 241.593 33.0293C241.139 33.2827 240.719 33.626 240.333 34.0593V41.5193H238.543V31.3893H239.613C239.866 31.3893 240.023 31.5127 240.083 31.7593L240.223 32.8593Z" fill="white"/>
<path d="M72.0612 16.1238C72.0612 16.1238 60.7396 4.05684 52.6816 1.47013C44.6235 -1.11657 12.6665 1.86479 11.5968 2.61978C10.527 3.37477 4.12011 11.1306 2.87594 14.2578C1.63177 17.385 1.71316 22.1209 1.98447 23.6266C2.07108 24.3482 2.28298 25.0445 2.6085 25.677C2.6085 25.677 0.670536 25.5698 0.472864 26.7538C0.275192 27.9377 0.472864 35.1573 0.472864 36.663C0.472864 38.1687 1.54262 39.2369 2.87594 39.5715C4.20926 39.9061 19.5153 39.5715 19.5153 39.5715C19.5153 39.5715 20.7594 41.622 21.2943 41.622H94.1268C95.7276 41.622 94.0377 39.1425 93.5919 39.1425C93.5919 39.1425 94.6617 30.0912 94.0377 29.555L93.4136 28.993C93.4607 28.0913 93.2971 27.1913 92.9387 26.3799C92.5802 25.5684 92.039 24.8728 91.3671 24.3601C89.0687 22.6356 82.2316 19.3111 72.0612 16.1238V16.1238Z" fill="#FFDD55"/>
<path d="M94.1268 42.0295H21.2905C20.7168 42.0295 19.9184 40.9571 19.3099 39.9833C16.9843 40.0348 4.08138 40.2836 2.7907 39.9833C1.17056 39.5929 0.0775502 38.2674 0.0775502 36.6545C0.0775502 36.2727 0.0775482 35.5177 0.0542927 34.5826C-0.00384617 30.902 -0.0426047 27.526 0.0853008 26.6723C0.22871 25.7114 1.17444 25.3468 1.98838 25.2567C1.81783 24.7528 1.68812 24.2331 1.60079 23.7038C1.33723 22.2067 1.21319 17.3164 2.51938 14.0734C3.82557 10.8303 10.2092 3.07881 11.3836 2.25089C12.1588 1.71897 21.7362 0.796676 29.4881 0.354834C36.1934 -0.0226619 48.139 -0.434474 52.7785 1.04977C60.604 3.55926 71.2085 14.6182 72.2589 15.7292C82.0921 18.8307 89.0688 22.1295 91.5842 24.0041C92.2869 24.5332 92.8588 25.2483 93.2481 26.0844C93.6373 26.9205 93.8315 27.8511 93.8129 28.7914L94.278 29.1947C94.7974 29.6451 94.7082 32.901 94.0144 38.868C94.5687 39.297 95.1772 40.3437 95.1772 41.0129C95.1826 41.1516 95.1592 41.2898 95.1088 41.417C95.0584 41.5441 94.9824 41.6568 94.8865 41.7464C94.6716 41.9374 94.4024 42.0378 94.1268 42.0295V42.0295ZM19.5114 39.1211C19.5753 39.1214 19.638 39.1393 19.6942 39.1729C19.7503 39.2066 19.798 39.2551 19.8331 39.3141C20.3951 40.2364 21.0889 41.1029 21.3137 41.1716H94.1268C94.154 41.1716 94.3943 41.1716 94.4098 41.0858C94.4834 40.6783 93.8051 39.6873 93.5416 39.5458C93.4399 39.5308 93.3477 39.4718 93.2852 39.3818C93.2227 39.2917 93.195 39.1779 93.2082 39.0653C93.685 35.0287 94.0183 30.5159 93.7625 29.8381L93.1772 29.3319C93.1255 29.2873 93.0848 29.2288 93.0591 29.1621C93.0333 29.0953 93.0233 29.0224 93.03 28.9501C93.0728 28.1249 92.9223 27.3015 92.5929 26.5597C92.2636 25.8178 91.7666 25.1828 91.1501 24.7162C88.7432 22.9231 81.7084 19.59 71.9566 16.5142C71.8955 16.4952 71.8396 16.4598 71.7938 16.4113C71.6814 16.2912 60.4451 4.40005 52.5653 1.86053C44.3794 -0.760494 12.8759 2.39674 11.7867 2.97157C10.7751 3.68366 4.41471 11.4266 3.22868 14.408C2.00388 17.4708 2.11241 22.108 2.36435 23.5236C2.4473 24.1832 2.63633 24.821 2.92248 25.4068C2.96393 25.473 2.98773 25.5507 2.99116 25.6311C2.99459 25.7115 2.9775 25.7914 2.94186 25.8615C2.90717 25.9319 2.85539 25.99 2.79236 26.0295C2.72934 26.0689 2.6576 26.088 2.58527 26.0846C2.16667 26.0589 0.949633 26.1447 0.852735 26.801C0.72483 27.6589 0.790718 31.9701 0.829477 34.5568C0.829477 35.4963 0.856612 36.2727 0.856612 36.6416C0.856612 37.847 1.68218 38.8251 2.95348 39.1339C4.01161 39.387 15.2595 39.2112 19.5037 39.1339L19.5114 39.1211Z" fill="#093F68"/>
<path d="M42.4531 16.5872L41.1159 3.87244C41.1159 3.87244 49.7476 4.73038 54.5537 6.44627C59.3599 8.16216 64.3404 12.2631 65.2319 14.215C66.1234 16.1668 65.9451 17.7711 65.2319 18.0757C64.5187 18.3803 42.4531 16.5872 42.4531 16.5872V16.5872Z" fill="#DFFFFD"/>
<path d="M64.6039 18.5433C61.2667 18.5433 48.325 17.5052 42.422 17.0118C42.3322 17.0046 42.2474 16.9629 42.1824 16.894C42.1173 16.8251 42.0759 16.7333 42.0654 16.6343L40.7321 3.92389C40.7251 3.86 40.7313 3.79521 40.7501 3.73432C40.7689 3.67343 40.7998 3.618 40.8406 3.57213C40.8808 3.52743 40.9295 3.49311 40.9831 3.4716C41.0367 3.4501 41.0939 3.44195 41.1507 3.44773C41.5072 3.48204 49.8831 4.33141 54.6737 6.05159C59.3442 7.72887 64.5729 11.8341 65.5767 14.0219C66.1969 15.3689 66.3829 16.7158 66.0767 17.6253C66.0212 17.8144 65.9304 17.9885 65.8102 18.1362C65.69 18.284 65.5431 18.4022 65.3791 18.4832C65.1235 18.5351 64.8635 18.5553 64.6039 18.5433ZM42.8018 16.1839C51.4374 16.9003 64.2822 17.8655 65.1194 17.6853C65.2323 17.5987 65.3145 17.4713 65.3519 17.325C65.5302 16.7974 65.4992 15.7507 64.8868 14.4123C64.0651 12.6235 59.2086 8.57824 54.4218 6.86664C50.356 5.40813 43.4142 4.55876 41.546 4.35286L42.8018 16.1839Z" fill="#093F68"/>
<path d="M64.0032 20.0318C63.7202 20.0103 64.6272 12.4647 64.6272 12.4647C64.6272 12.4647 67.5613 13.4342 68.4527 15.7978C69.3442 18.1615 68.007 20.3278 64.0032 20.0318V20.0318Z" fill="#093F68"/>
<path d="M64.6968 20.4865C64.4643 20.4865 64.224 20.478 63.9759 20.4608C63.8645 20.4477 63.7618 20.3878 63.6891 20.2935C63.5612 20.1262 63.3519 19.8388 64.2395 12.409C64.2474 12.348 64.267 12.2896 64.2971 12.2378C64.3272 12.186 64.367 12.142 64.4139 12.1087C64.4609 12.0749 64.5141 12.0527 64.5696 12.0438C64.6252 12.035 64.6818 12.0395 64.7356 12.0572C64.8635 12.0958 67.8596 13.1082 68.8092 15.6306C69.0355 16.1371 69.1375 16.7007 69.1048 17.2646C69.0722 17.8286 68.906 18.3731 68.6231 18.8436C67.9293 19.916 66.5495 20.4865 64.6968 20.4865V20.4865ZM64.3325 19.6286C66.1154 19.7058 67.4061 19.2554 67.9914 18.3417C68.1942 17.989 68.3102 17.5837 68.3279 17.1661C68.3456 16.7485 68.2643 16.333 68.0921 15.9609C67.4797 14.3351 65.7666 13.387 64.9488 13.0482C64.6232 15.815 64.3402 18.6977 64.3325 19.62V19.6286Z" fill="#093F68"/>
<path d="M38.6275 16.2612L38.0926 3.87244C38.0926 3.87244 21.5424 3.87244 20.0269 4.73038C18.5114 5.58833 13.6239 9.90808 13.7983 11.8342C13.9727 13.7603 16.7363 14.0948 17.5386 14.6354C18.3409 15.1759 38.6275 16.2612 38.6275 16.2612Z" fill="#DFFFFD"/>
<path d="M38.6275 16.6901H38.6081C33.8252 16.437 18.1587 15.5662 17.337 15.0128C17.0502 14.8591 16.7519 14.7328 16.4456 14.6353C15.2828 14.2064 13.5696 13.5886 13.4146 11.8899C13.2053 9.59491 18.4533 5.15076 19.8525 4.35287C21.4029 3.46919 36.3872 3.44345 38.0926 3.44345C38.1954 3.44345 38.294 3.48865 38.3667 3.56909C38.4394 3.64954 38.4802 3.75865 38.4802 3.87242L39.0112 16.2654C39.0112 16.3792 38.9704 16.4883 38.8977 16.5688C38.825 16.6492 38.7264 16.6944 38.6236 16.6944L38.6275 16.6901ZM37.7244 4.3014C31.1043 4.3014 21.2362 4.52875 20.2052 5.11644C18.5386 6.06876 14.0425 10.2641 14.1859 11.8041C14.2906 12.9495 15.62 13.4299 16.6859 13.8203C17.0545 13.9324 17.4116 14.0862 17.7518 14.2793C18.5541 14.6396 30.2787 15.386 38.2283 15.8107L37.7244 4.3014Z" fill="#005555"/>
<path d="M18.1975 48.8845C23.2836 48.8845 27.4067 44.3212 27.4067 38.6921C27.4067 33.063 23.2836 28.4997 18.1975 28.4997C13.1114 28.4997 8.98828 33.063 8.98828 38.6921C8.98828 44.3212 13.1114 48.8845 18.1975 48.8845Z" fill="#093F68"/>
<path d="M18.1975 49.3178C16.2986 49.3178 14.4424 48.6946 12.8636 47.527C11.2848 46.3595 10.0543 44.7 9.32761 42.7584C8.60096 40.8168 8.41084 38.6803 8.78128 36.6192C9.15172 34.558 10.0661 32.6647 11.4088 31.1787C12.7515 29.6926 14.4621 28.6806 16.3245 28.2706C18.1868 27.8606 20.1172 28.0711 21.8715 28.8753C23.6258 29.6795 25.1252 31.0414 26.1801 32.7888C27.2351 34.5362 27.7981 36.5906 27.7981 38.6921C27.7961 41.5095 26.7839 44.2109 24.9839 46.2031C23.1839 48.1953 20.7431 49.3155 18.1975 49.3178V49.3178ZM18.1975 28.9287C16.4518 28.9287 14.7453 29.5017 13.2939 30.5752C11.8425 31.6486 10.7113 33.1744 10.0434 34.9595C9.37555 36.7445 9.20101 38.7087 9.54185 40.6036C9.8827 42.4984 10.7236 44.2389 11.9583 45.6047C13.1929 46.9706 14.7659 47.9006 16.4781 48.277C18.1903 48.6534 19.9649 48.4593 21.5775 47.7194C23.1901 46.9794 24.5682 45.7268 25.5375 44.1199C26.5068 42.5131 27.0237 40.6242 27.0229 38.6921C27.0199 36.103 26.0889 33.621 24.4344 31.7906C22.7798 29.9602 20.5368 28.931 18.1975 28.9287V28.9287Z" fill="#093F68"/>
<path d="M18.1975 44.5304C21.1109 44.5304 23.4726 41.9165 23.4726 38.6921C23.4726 35.4677 21.1109 32.8538 18.1975 32.8538C15.2841 32.8538 12.9224 35.4677 12.9224 38.6921C12.9224 41.9165 15.2841 44.5304 18.1975 44.5304Z" fill="#FFDD55"/>
<path d="M18.1975 44.9594C17.0775 44.9594 15.9827 44.5918 15.0515 43.9032C14.1202 43.2145 13.3944 42.2357 12.9658 41.0905C12.5372 39.9453 12.4251 38.6852 12.6436 37.4694C12.8621 36.2537 13.4014 35.137 14.1934 34.2605C14.9853 33.384 15.9943 32.7871 17.0928 32.5453C18.1912 32.3034 19.3298 32.4275 20.3646 32.9019C21.3993 33.3763 22.2837 34.1796 22.9059 35.2102C23.5281 36.2409 23.8602 37.4526 23.8602 38.6921C23.8592 40.354 23.2623 41.9474 22.2005 43.1225C21.1388 44.2976 19.6991 44.9583 18.1975 44.9594V44.9594ZM18.1975 33.2871C17.2307 33.2871 16.2856 33.6044 15.4817 34.199C14.6779 34.7936 14.0515 35.6387 13.6816 36.6273C13.3118 37.616 13.2153 38.7039 13.4042 39.7533C13.5931 40.8027 14.059 41.7666 14.7429 42.5229C15.4268 43.2793 16.298 43.7941 17.2464 44.0023C18.1947 44.2106 19.1776 44.1028 20.0706 43.6928C20.9636 43.2827 21.7267 42.5887 22.2632 41.6986C22.7998 40.8084 23.0858 39.7622 23.0851 38.6921C23.0851 37.2575 22.5701 35.8816 21.6535 34.8671C20.7369 33.8527 19.4938 33.2828 18.1975 33.2828V33.2871Z" fill="#093F68"/>
<path d="M71.6039 48.8845C76.6899 48.8845 80.813 44.3212 80.813 38.6921C80.813 33.063 76.6899 28.4997 71.6039 28.4997C66.5178 28.4997 62.3947 33.063 62.3947 38.6921C62.3947 44.3212 66.5178 48.8845 71.6039 48.8845Z" fill="#093F68"/>
<path d="M71.6039 49.3178C69.7051 49.3178 67.8489 48.6946 66.2701 47.527C64.6912 46.3595 63.4607 44.7 62.734 42.7584C62.0074 40.8168 61.8173 38.6803 62.1877 36.6192C62.5582 34.558 63.4725 32.6647 64.8152 31.1787C66.1579 29.6926 67.8686 28.6806 69.7309 28.2706C71.5932 27.8606 73.5236 28.0711 75.2779 28.8753C77.0322 29.6795 78.5316 31.0414 79.5866 32.7888C80.6415 34.5362 81.2046 36.5906 81.2046 38.6921C81.2025 41.5095 80.1904 44.2109 78.3903 46.2031C76.5903 48.1953 74.1495 49.3155 71.6039 49.3178ZM71.6039 28.9287C69.8582 28.9287 68.1517 29.5017 66.7003 30.5752C65.2489 31.6486 64.1177 33.1744 63.4499 34.9595C62.782 36.7445 62.6074 38.7087 62.9483 40.6036C63.2891 42.4984 64.1301 44.2389 65.3647 45.6047C66.5994 46.9706 68.1723 47.9006 69.8845 48.277C71.5967 48.6534 73.3714 48.4593 74.984 47.7194C76.5965 46.9794 77.9746 45.7268 78.9439 44.1199C79.9132 42.5131 80.4301 40.6242 80.4294 38.6921C80.4263 36.103 79.4954 33.621 77.8408 31.7906C76.1863 29.9602 73.9433 28.931 71.6039 28.9287V28.9287Z" fill="#093F68"/>
<path d="M71.6038 44.5304C74.5172 44.5304 76.8789 41.9165 76.8789 38.6921C76.8789 35.4677 74.5172 32.8538 71.6038 32.8538C68.6904 32.8538 66.3287 35.4677 66.3287 38.6921C66.3287 41.9165 68.6904 44.5304 71.6038 44.5304Z" fill="#FFDD55"/>
<path d="M71.6039 44.9594C70.484 44.9594 69.3891 44.5918 68.4579 43.9032C67.5267 43.2145 66.8009 42.2357 66.3723 41.0905C65.9437 39.9453 65.8315 38.6852 66.05 37.4694C66.2685 36.2537 66.8079 35.137 67.5998 34.2605C68.3917 33.384 69.4007 32.7871 70.4992 32.5453C71.5977 32.3034 72.7363 32.4275 73.771 32.9019C74.8057 33.3763 75.6901 34.1796 76.3123 35.2102C76.9346 36.2409 77.2667 37.4526 77.2667 38.6921C77.2656 40.354 76.6687 41.9474 75.607 43.1225C74.5452 44.2976 73.1055 44.9583 71.6039 44.9594ZM71.6039 33.2871C70.6371 33.2871 69.692 33.6044 68.8882 34.199C68.0843 34.7936 67.4579 35.6387 67.0881 36.6273C66.7183 37.616 66.6217 38.7039 66.8106 39.7533C66.9995 40.8027 67.4654 41.7666 68.1493 42.5229C68.8332 43.2793 69.7045 43.7941 70.6528 44.0023C71.6012 44.2106 72.584 44.1028 73.477 43.6928C74.37 43.2827 75.1331 42.5887 75.6697 41.6986C76.2063 40.8084 76.4922 39.7622 76.4915 38.6921C76.4915 37.9818 76.3651 37.2784 76.1194 36.6221C75.8738 35.9658 75.5138 35.3694 75.06 34.8671C74.6061 34.3648 74.0673 33.9664 73.4743 33.6945C72.8813 33.4227 72.2458 33.2828 71.6039 33.2828V33.2871Z" fill="#093F68"/>
<path d="M4.48068 15.3174C4.12124 16.2274 3.82579 17.1668 3.59697 18.1271C3.23263 20.4951 3.20938 22.8458 3.44193 23.0646C3.67449 23.2834 5.93415 23.2319 6.20159 23.0646C6.46903 22.8973 8.30622 19.2038 8.52714 18.406C8.74807 17.6081 9.22481 15.9737 8.80234 15.6477C8.37986 15.3216 4.8954 14.8584 4.48068 15.3174V15.3174Z" fill="#FFBC0E"/>
<path d="M4.63943 23.6437C3.44953 23.6437 3.27511 23.4722 3.18596 23.3907C2.52706 22.7515 3.20922 18.1014 3.21697 18.0542C3.4485 17.0609 3.7518 16.0897 4.12394 15.1501C4.14326 15.1005 4.17088 15.0554 4.20533 15.0171C4.80998 14.3479 8.54636 14.9142 9.03861 15.2959C9.53085 15.6777 9.49209 16.6172 8.9107 18.539C8.75954 19.0452 6.86809 23.1461 6.38748 23.4421C5.87525 23.5975 5.34461 23.6655 4.81385 23.6437H4.63943ZM3.72859 22.73C4.4819 22.8145 5.24153 22.8015 5.99213 22.6914C6.8201 21.2808 7.5496 19.8022 8.17428 18.2687C8.69753 16.5528 8.61226 16.081 8.56187 15.9909C8.06188 15.712 5.36036 15.4075 4.77122 15.6177C4.44139 16.4507 4.17181 17.3113 3.96502 18.1915C3.70381 19.6859 3.6243 21.2123 3.72859 22.73V22.73Z" fill="#093F68"/>
<path d="M91.6191 29.6451C91.6191 29.6451 91.4175 27.097 90.2625 26.4064C89.1075 25.7157 84.6308 23.7339 84.3246 24.6218C84.0184 25.5098 86.2819 28.6585 86.8594 29.199C87.437 29.7395 91.6191 29.6451 91.6191 29.6451V29.6451Z" fill="#FFBC0E"/>
<path d="M90.689 30.0827C89.2084 30.0827 87.1115 29.9969 86.6077 29.5293C86.255 29.1947 83.5069 25.7372 83.9604 24.4674C83.9955 24.3671 84.0501 24.2767 84.1205 24.2025C84.1909 24.1283 84.2752 24.0723 84.3674 24.0384C85.5495 23.5537 89.7937 25.6256 90.4448 26.0203C91.751 26.7967 91.9952 29.3148 91.9952 29.5979C91.9996 29.656 91.9934 29.7145 91.9767 29.7698C91.96 29.8252 91.9334 29.8761 91.8983 29.9197C91.8628 29.9643 91.8194 30.0004 91.7707 30.0255C91.722 30.0506 91.6691 30.0642 91.6154 30.0655L90.689 30.0827ZM84.6775 24.832C84.6465 25.5055 86.3751 28.1823 87.1115 28.873C87.4177 29.1218 89.3789 29.2419 91.1774 29.2204C91.0495 28.4225 90.7278 27.1699 90.0766 26.7839C88.6542 25.9345 85.3364 24.6304 84.6775 24.832V24.832Z" fill="#093F68"/>
<path d="M5.04241 27.4531H2.60445C2.50165 27.4531 2.40307 27.4079 2.33038 27.3274C2.25769 27.247 2.21686 27.1379 2.21686 27.0241C2.21686 26.9103 2.25769 26.8012 2.33038 26.7208C2.40307 26.6403 2.50165 26.5951 2.60445 26.5951H5.04241C5.1452 26.5951 5.24379 26.6403 5.31648 26.7208C5.38916 26.8012 5.43 26.9103 5.43 27.0241C5.43 27.1379 5.38916 27.247 5.31648 27.3274C5.24379 27.4079 5.1452 27.4531 5.04241 27.4531Z" fill="#093F68"/>
<path d="M51.2125 21.4345H46.6312C46.5284 21.4345 46.4298 21.3893 46.3571 21.3089C46.2844 21.2284 46.2436 21.1193 46.2436 21.0055C46.2436 20.8918 46.2844 20.7827 46.3571 20.7022C46.4298 20.6218 46.5284 20.5766 46.6312 20.5766H51.2125C51.3153 20.5766 51.4139 20.6218 51.4866 20.7022C51.5593 20.7827 51.6001 20.8918 51.6001 21.0055C51.6001 21.1193 51.5593 21.2284 51.4866 21.3089C51.4139 21.3893 51.3153 21.4345 51.2125 21.4345Z" fill="#093F68"/>
<path d="M35.7825 21.4345H31.2012C31.0984 21.4345 30.9998 21.3893 30.9271 21.3089C30.8544 21.2284 30.8136 21.1193 30.8136 21.0055C30.8136 20.8918 30.8544 20.7827 30.9271 20.7022C30.9998 20.6218 31.0984 20.5766 31.2012 20.5766H35.7825C35.8853 20.5766 35.9839 20.6218 36.0566 20.7022C36.1293 20.7827 36.1701 20.8918 36.1701 21.0055C36.1701 21.1193 36.1293 21.2284 36.0566 21.3089C35.9839 21.3893 35.8853 21.4345 35.7825 21.4345Z" fill="#093F68"/>
<path d="M41.8172 40.9442C41.7144 40.9442 41.6159 40.899 41.5432 40.8186C41.4705 40.7381 41.4296 40.629 41.4296 40.5152V22.3182C41.4296 21.6962 39.8444 18.8864 38.3095 16.5142C38.2494 16.4215 38.225 16.3061 38.2417 16.1935C38.2584 16.0809 38.3149 15.9802 38.3987 15.9137C38.4825 15.8471 38.5867 15.8201 38.6885 15.8386C38.7902 15.8571 38.8812 15.9196 38.9413 16.0123C39.4839 16.8703 42.2048 21.1128 42.2048 22.3182V40.5152C42.2048 40.629 42.164 40.7381 42.0913 40.8186C42.0186 40.899 41.92 40.9442 41.8172 40.9442V40.9442Z" fill="#093F68"/>
<path d="M23.4727 11.4309C23.4055 11.4309 23.3394 11.4115 23.2809 11.3747C23.2225 11.3378 23.1737 11.2848 23.1394 11.2207C23.087 11.1229 23.0718 11.006 23.0973 10.8958C23.1227 10.7856 23.1867 10.6911 23.275 10.633L31.0075 5.60118C31.0514 5.56588 31.1014 5.54115 31.1545 5.52861C31.2075 5.51606 31.2623 5.51598 31.3154 5.52835C31.3685 5.54073 31.4186 5.56529 31.4626 5.60046C31.5065 5.63562 31.5433 5.68061 31.5706 5.7325C31.5978 5.78439 31.6149 5.84203 31.6208 5.9017C31.6267 5.96137 31.6212 6.02174 31.6046 6.07891C31.5881 6.13607 31.5609 6.18876 31.5248 6.23356C31.4887 6.27837 31.4445 6.31429 31.3951 6.33901L23.6665 11.3709C23.6078 11.4094 23.541 11.4301 23.4727 11.4309V11.4309Z" fill="#DFEAEF"/>
<path d="M28.6043 14.009C28.5394 14.0089 28.4757 13.9908 28.4188 13.9563C28.3619 13.9218 28.3137 13.8721 28.2787 13.8117C28.223 13.7166 28.2035 13.601 28.2246 13.4901C28.2457 13.3791 28.3055 13.2819 28.3911 13.2197L33.2748 9.70644C33.3611 9.64443 33.4662 9.62293 33.5669 9.64666C33.6675 9.6704 33.7556 9.73742 33.8116 9.83298C33.8676 9.92855 33.8871 10.0448 33.8656 10.1563C33.8442 10.2677 33.7836 10.3651 33.6973 10.4271L28.8136 13.9404C28.7512 13.985 28.6786 14.0088 28.6043 14.009V14.009Z" fill="#DFEAEF"/>
<path d="M46.6312 14.837C46.5526 14.8368 46.4758 14.8102 46.4111 14.7606C46.3464 14.7111 46.2969 14.6409 46.2691 14.5594C46.2414 14.4779 46.2367 14.389 46.2557 14.3045C46.2746 14.22 46.3164 14.1439 46.3754 14.0863L52.3598 8.14929C52.3978 8.11155 52.442 8.08244 52.4901 8.06363C52.5382 8.04482 52.5892 8.03668 52.6401 8.03966C52.691 8.04265 52.7409 8.05671 52.7869 8.08104C52.833 8.10537 52.8742 8.1395 52.9083 8.18147C52.9424 8.22343 52.9687 8.27242 52.9857 8.32564C53.0027 8.37886 53.01 8.43526 53.0073 8.49163C53.0046 8.54799 52.9919 8.60322 52.97 8.65415C52.948 8.70508 52.9171 8.75072 52.8792 8.78846L46.8909 14.7297C46.8193 14.7997 46.7268 14.8379 46.6312 14.837V14.837Z" fill="#DFEAEF"/>
<path d="M54.4723 15.7549C54.4201 15.7547 54.3684 15.7428 54.3205 15.72C54.2725 15.6971 54.2292 15.6638 54.1932 15.6219C54.121 15.5416 54.0805 15.4328 54.0805 15.3195C54.0805 15.2062 54.121 15.0975 54.1932 15.0171L57.6815 11.3108C57.7176 11.2706 57.7604 11.2386 57.8077 11.2169C57.8549 11.1951 57.9056 11.1839 57.9567 11.1839C58.0079 11.1839 58.0586 11.1951 58.1058 11.2169C58.153 11.2386 58.1959 11.2706 58.2319 11.3108C58.3041 11.3911 58.3446 11.4999 58.3446 11.6132C58.3446 11.7265 58.3041 11.8352 58.2319 11.9156L54.7436 15.6219C54.7085 15.6627 54.6664 15.6955 54.6199 15.7183C54.5733 15.7411 54.5232 15.7536 54.4723 15.7549Z" fill="#DFEAEF"/>
<path d="M267.409 133.906L265.159 128.076C265.092 127.902 265.022 127.702 264.949 127.476C264.875 127.242 264.805 126.996 264.739 126.736C264.599 127.276 264.455 127.726 264.309 128.086L262.059 133.906H267.409ZM271.449 139.226H269.949C269.775 139.226 269.635 139.182 269.529 139.096C269.422 139.009 269.342 138.899 269.289 138.766L267.949 135.306H261.519L260.179 138.766C260.139 138.886 260.062 138.992 259.949 139.086C259.835 139.179 259.695 139.226 259.529 139.226H258.029L263.759 124.896H265.719L271.449 139.226ZM279.89 130.896C279.837 130.969 279.784 131.026 279.73 131.066C279.677 131.106 279.604 131.126 279.51 131.126C279.41 131.126 279.3 131.086 279.18 131.006C279.06 130.919 278.91 130.826 278.73 130.726C278.557 130.626 278.34 130.536 278.08 130.456C277.827 130.369 277.514 130.326 277.14 130.326C276.64 130.326 276.2 130.416 275.82 130.596C275.44 130.769 275.12 131.022 274.86 131.356C274.607 131.689 274.414 132.092 274.28 132.566C274.154 133.039 274.09 133.569 274.09 134.156C274.09 134.769 274.16 135.316 274.3 135.796C274.44 136.269 274.637 136.669 274.89 136.996C275.15 137.316 275.46 137.562 275.82 137.736C276.187 137.902 276.597 137.986 277.05 137.986C277.484 137.986 277.84 137.936 278.12 137.836C278.4 137.729 278.63 137.612 278.81 137.486C278.997 137.359 279.15 137.246 279.27 137.146C279.397 137.039 279.52 136.986 279.64 136.986C279.787 136.986 279.9 137.042 279.98 137.156L280.48 137.806C280.26 138.079 280.01 138.312 279.73 138.506C279.45 138.699 279.147 138.862 278.82 138.996C278.5 139.122 278.164 139.216 277.81 139.276C277.457 139.336 277.097 139.366 276.73 139.366C276.097 139.366 275.507 139.249 274.96 139.016C274.42 138.782 273.95 138.446 273.55 138.006C273.15 137.559 272.837 137.012 272.61 136.366C272.384 135.719 272.27 134.982 272.27 134.156C272.27 133.402 272.374 132.706 272.58 132.066C272.794 131.426 273.1 130.876 273.5 130.416C273.907 129.949 274.404 129.586 274.99 129.326C275.584 129.066 276.264 128.936 277.03 128.936C277.744 128.936 278.37 129.052 278.91 129.286C279.457 129.512 279.94 129.836 280.36 130.256L279.89 130.896ZM289.465 130.896C289.412 130.969 289.359 131.026 289.305 131.066C289.252 131.106 289.179 131.126 289.085 131.126C288.985 131.126 288.875 131.086 288.755 131.006C288.635 130.919 288.485 130.826 288.305 130.726C288.132 130.626 287.915 130.536 287.655 130.456C287.402 130.369 287.089 130.326 286.715 130.326C286.215 130.326 285.775 130.416 285.395 130.596C285.015 130.769 284.695 131.022 284.435 131.356C284.182 131.689 283.989 132.092 283.855 132.566C283.729 133.039 283.665 133.569 283.665 134.156C283.665 134.769 283.735 135.316 283.875 135.796C284.015 136.269 284.212 136.669 284.465 136.996C284.725 137.316 285.035 137.562 285.395 137.736C285.762 137.902 286.172 137.986 286.625 137.986C287.059 137.986 287.415 137.936 287.695 137.836C287.975 137.729 288.205 137.612 288.385 137.486C288.572 137.359 288.725 137.246 288.845 137.146C288.972 137.039 289.095 136.986 289.215 136.986C289.362 136.986 289.475 137.042 289.555 137.156L290.055 137.806C289.835 138.079 289.585 138.312 289.305 138.506C289.025 138.699 288.722 138.862 288.395 138.996C288.075 139.122 287.739 139.216 287.385 139.276C287.032 139.336 286.672 139.366 286.305 139.366C285.672 139.366 285.082 139.249 284.535 139.016C283.995 138.782 283.525 138.446 283.125 138.006C282.725 137.559 282.412 137.012 282.185 136.366C281.959 135.719 281.845 134.982 281.845 134.156C281.845 133.402 281.949 132.706 282.155 132.066C282.369 131.426 282.675 130.876 283.075 130.416C283.482 129.949 283.979 129.586 284.565 129.326C285.159 129.066 285.839 128.936 286.605 128.936C287.319 128.936 287.945 129.052 288.485 129.286C289.032 129.512 289.515 129.836 289.935 130.256L289.465 130.896ZM296.26 128.936C297 128.936 297.667 129.059 298.26 129.306C298.854 129.552 299.36 129.902 299.78 130.356C300.2 130.809 300.52 131.359 300.74 132.006C300.967 132.646 301.08 133.362 301.08 134.156C301.08 134.956 300.967 135.676 300.74 136.316C300.52 136.956 300.2 137.502 299.78 137.956C299.36 138.409 298.854 138.759 298.26 139.006C297.667 139.246 297 139.366 296.26 139.366C295.514 139.366 294.84 139.246 294.24 139.006C293.647 138.759 293.14 138.409 292.72 137.956C292.3 137.502 291.977 136.956 291.75 136.316C291.53 135.676 291.42 134.956 291.42 134.156C291.42 133.362 291.53 132.646 291.75 132.006C291.977 131.359 292.3 130.809 292.72 130.356C293.14 129.902 293.647 129.552 294.24 129.306C294.84 129.059 295.514 128.936 296.26 128.936ZM296.26 137.976C297.26 137.976 298.007 137.642 298.5 136.976C298.994 136.302 299.24 135.366 299.24 134.166C299.24 132.959 298.994 132.019 298.5 131.346C298.007 130.672 297.26 130.336 296.26 130.336C295.754 130.336 295.31 130.422 294.93 130.596C294.557 130.769 294.244 131.019 293.99 131.346C293.744 131.672 293.557 132.076 293.43 132.556C293.31 133.029 293.25 133.566 293.25 134.166C293.25 135.366 293.497 136.302 293.99 136.976C294.49 137.642 295.247 137.976 296.26 137.976ZM303.538 139.226V129.096H304.608C304.861 129.096 305.018 129.219 305.078 129.466L305.208 130.506C305.581 130.046 306.001 129.669 306.468 129.376C306.935 129.082 307.475 128.936 308.088 128.936C308.768 128.936 309.318 129.126 309.738 129.506C310.165 129.886 310.471 130.399 310.658 131.046C310.805 130.679 310.991 130.362 311.218 130.096C311.451 129.829 311.711 129.609 311.998 129.436C312.285 129.262 312.588 129.136 312.908 129.056C313.235 128.976 313.565 128.936 313.898 128.936C314.431 128.936 314.905 129.022 315.318 129.196C315.738 129.362 316.091 129.609 316.378 129.936C316.671 130.262 316.895 130.666 317.048 131.146C317.201 131.619 317.278 132.162 317.278 132.776V139.226H315.488V132.776C315.488 131.982 315.315 131.382 314.968 130.976C314.621 130.562 314.121 130.356 313.468 130.356C313.175 130.356 312.895 130.409 312.628 130.516C312.368 130.616 312.138 130.766 311.938 130.966C311.738 131.166 311.578 131.419 311.458 131.726C311.345 132.026 311.288 132.376 311.288 132.776V139.226H309.498V132.776C309.498 131.962 309.335 131.356 309.008 130.956C308.681 130.556 308.205 130.356 307.578 130.356C307.138 130.356 306.731 130.476 306.358 130.716C305.985 130.949 305.641 131.269 305.328 131.676V139.226H303.538ZM320.183 139.226V129.096H321.253C321.507 129.096 321.663 129.219 321.723 129.466L321.853 130.506C322.227 130.046 322.647 129.669 323.113 129.376C323.58 129.082 324.12 128.936 324.733 128.936C325.413 128.936 325.963 129.126 326.383 129.506C326.81 129.886 327.117 130.399 327.303 131.046C327.45 130.679 327.637 130.362 327.863 130.096C328.097 129.829 328.357 129.609 328.643 129.436C328.93 129.262 329.233 129.136 329.553 129.056C329.88 128.976 330.21 128.936 330.543 128.936C331.077 128.936 331.55 129.022 331.963 129.196C332.383 129.362 332.737 129.609 333.023 129.936C333.317 130.262 333.54 130.666 333.693 131.146C333.847 131.619 333.923 132.162 333.923 132.776V139.226H332.133V132.776C332.133 131.982 331.96 131.382 331.613 130.976C331.267 130.562 330.767 130.356 330.113 130.356C329.82 130.356 329.54 130.409 329.273 130.516C329.013 130.616 328.783 130.766 328.583 130.966C328.383 131.166 328.223 131.419 328.103 131.726C327.99 132.026 327.933 132.376 327.933 132.776V139.226H326.143V132.776C326.143 131.962 325.98 131.356 325.653 130.956C325.327 130.556 324.85 130.356 324.223 130.356C323.783 130.356 323.377 130.476 323.003 130.716C322.63 130.949 322.287 131.269 321.973 131.676V139.226H320.183ZM341.099 128.936C341.839 128.936 342.505 129.059 343.099 129.306C343.692 129.552 344.199 129.902 344.619 130.356C345.039 130.809 345.359 131.359 345.579 132.006C345.805 132.646 345.919 133.362 345.919 134.156C345.919 134.956 345.805 135.676 345.579 136.316C345.359 136.956 345.039 137.502 344.619 137.956C344.199 138.409 343.692 138.759 343.099 139.006C342.505 139.246 341.839 139.366 341.099 139.366C340.352 139.366 339.679 139.246 339.079 139.006C338.485 138.759 337.979 138.409 337.559 137.956C337.139 137.502 336.815 136.956 336.589 136.316C336.369 135.676 336.259 134.956 336.259 134.156C336.259 133.362 336.369 132.646 336.589 132.006C336.815 131.359 337.139 130.809 337.559 130.356C337.979 129.902 338.485 129.552 339.079 129.306C339.679 129.059 340.352 128.936 341.099 128.936ZM341.099 137.976C342.099 137.976 342.845 137.642 343.339 136.976C343.832 136.302 344.079 135.366 344.079 134.166C344.079 132.959 343.832 132.019 343.339 131.346C342.845 130.672 342.099 130.336 341.099 130.336C340.592 130.336 340.149 130.422 339.769 130.596C339.395 130.769 339.082 131.019 338.829 131.346C338.582 131.672 338.395 132.076 338.269 132.556C338.149 133.029 338.089 133.566 338.089 134.166C338.089 135.366 338.335 136.302 338.829 136.976C339.329 137.642 340.085 137.976 341.099 137.976ZM354.976 131.506C354.643 131.059 354.283 130.749 353.896 130.576C353.51 130.396 353.076 130.306 352.596 130.306C351.656 130.306 350.933 130.642 350.426 131.316C349.92 131.989 349.666 132.949 349.666 134.196C349.666 134.856 349.723 135.422 349.836 135.896C349.95 136.362 350.116 136.749 350.336 137.056C350.556 137.356 350.826 137.576 351.146 137.716C351.466 137.856 351.83 137.926 352.236 137.926C352.823 137.926 353.333 137.792 353.766 137.526C354.206 137.259 354.61 136.882 354.976 136.396V131.506ZM356.756 124.496V139.226H355.696C355.443 139.226 355.283 139.102 355.216 138.856L355.056 137.626C354.623 138.146 354.13 138.566 353.576 138.886C353.023 139.206 352.383 139.366 351.656 139.366C351.076 139.366 350.55 139.256 350.076 139.036C349.603 138.809 349.2 138.479 348.866 138.046C348.533 137.612 348.276 137.072 348.096 136.426C347.916 135.779 347.826 135.036 347.826 134.196C347.826 133.449 347.926 132.756 348.126 132.116C348.326 131.469 348.613 130.909 348.986 130.436C349.36 129.962 349.816 129.592 350.356 129.326C350.903 129.052 351.516 128.916 352.196 128.916C352.816 128.916 353.346 129.022 353.786 129.236C354.233 129.442 354.63 129.732 354.976 130.106V124.496H356.756ZM365.258 134.666C364.438 134.692 363.738 134.759 363.158 134.866C362.584 134.966 362.114 135.099 361.748 135.266C361.388 135.432 361.124 135.629 360.958 135.856C360.798 136.082 360.718 136.336 360.718 136.616C360.718 136.882 360.761 137.112 360.848 137.306C360.934 137.499 361.051 137.659 361.198 137.786C361.351 137.906 361.528 137.996 361.728 138.056C361.934 138.109 362.154 138.136 362.388 138.136C362.701 138.136 362.988 138.106 363.248 138.046C363.508 137.979 363.751 137.886 363.978 137.766C364.211 137.646 364.431 137.502 364.638 137.336C364.851 137.169 365.058 136.979 365.258 136.766V134.666ZM359.508 130.526C360.068 129.986 360.671 129.582 361.318 129.316C361.964 129.049 362.681 128.916 363.468 128.916C364.034 128.916 364.538 129.009 364.978 129.196C365.418 129.382 365.788 129.642 366.088 129.976C366.388 130.309 366.614 130.712 366.768 131.186C366.921 131.659 366.998 132.179 366.998 132.746V139.226H366.208C366.034 139.226 365.901 139.199 365.808 139.146C365.714 139.086 365.641 138.972 365.588 138.806L365.388 137.846C365.121 138.092 364.861 138.312 364.608 138.506C364.354 138.692 364.088 138.852 363.808 138.986C363.528 139.112 363.228 139.209 362.908 139.276C362.594 139.349 362.244 139.386 361.858 139.386C361.464 139.386 361.094 139.332 360.748 139.226C360.401 139.112 360.098 138.946 359.838 138.726C359.584 138.506 359.381 138.229 359.228 137.896C359.081 137.556 359.008 137.156 359.008 136.696C359.008 136.296 359.118 135.912 359.338 135.546C359.558 135.172 359.914 134.842 360.408 134.556C360.901 134.269 361.544 134.036 362.338 133.856C363.131 133.669 364.104 133.562 365.258 133.536V132.746C365.258 131.959 365.088 131.366 364.748 130.966C364.408 130.559 363.911 130.356 363.258 130.356C362.818 130.356 362.448 130.412 362.148 130.526C361.854 130.632 361.598 130.756 361.378 130.896C361.164 131.029 360.978 131.152 360.818 131.266C360.664 131.372 360.511 131.426 360.358 131.426C360.238 131.426 360.134 131.396 360.048 131.336C359.961 131.269 359.888 131.189 359.828 131.096L359.508 130.526ZM379.173 139.226H377.393V130.586H372.173V136.666C372.173 137.092 372.276 137.409 372.483 137.616C372.689 137.822 372.956 137.926 373.283 137.926C373.469 137.926 373.629 137.902 373.763 137.856C373.903 137.802 374.023 137.746 374.123 137.686C374.223 137.626 374.306 137.572 374.373 137.526C374.446 137.472 374.509 137.446 374.563 137.446C374.656 137.446 374.739 137.502 374.813 137.616L375.333 138.466C375.026 138.752 374.656 138.979 374.223 139.146C373.789 139.306 373.343 139.386 372.883 139.386C372.083 139.386 371.466 139.162 371.033 138.716C370.606 138.269 370.393 137.626 370.393 136.786V130.586H369.173C369.066 130.586 368.976 130.556 368.903 130.496C368.829 130.429 368.793 130.329 368.793 130.196V129.486L370.453 129.266L370.863 126.146C370.883 126.046 370.926 125.966 370.993 125.906C371.066 125.839 371.159 125.806 371.273 125.806H372.173V129.296H379.173V139.226ZM379.613 125.846C379.613 126.019 379.576 126.182 379.503 126.336C379.436 126.482 379.343 126.612 379.223 126.726C379.109 126.839 378.976 126.929 378.823 126.996C378.669 127.062 378.506 127.096 378.333 127.096C378.159 127.096 377.996 127.062 377.843 126.996C377.696 126.929 377.566 126.839 377.453 126.726C377.339 126.612 377.249 126.482 377.183 126.336C377.116 126.182 377.083 126.019 377.083 125.846C377.083 125.672 377.116 125.509 377.183 125.356C377.249 125.196 377.339 125.059 377.453 124.946C377.566 124.826 377.696 124.732 377.843 124.666C377.996 124.599 378.159 124.566 378.333 124.566C378.506 124.566 378.669 124.599 378.823 124.666C378.976 124.732 379.109 124.826 379.223 124.946C379.343 125.059 379.436 125.196 379.503 125.356C379.576 125.509 379.613 125.672 379.613 125.846ZM386.567 128.936C387.307 128.936 387.973 129.059 388.567 129.306C389.16 129.552 389.667 129.902 390.087 130.356C390.507 130.809 390.827 131.359 391.047 132.006C391.273 132.646 391.387 133.362 391.387 134.156C391.387 134.956 391.273 135.676 391.047 136.316C390.827 136.956 390.507 137.502 390.087 137.956C389.667 138.409 389.16 138.759 388.567 139.006C387.973 139.246 387.307 139.366 386.567 139.366C385.82 139.366 385.147 139.246 384.547 139.006C383.953 138.759 383.447 138.409 383.027 137.956C382.607 137.502 382.283 136.956 382.057 136.316C381.837 135.676 381.727 134.956 381.727 134.156C381.727 133.362 381.837 132.646 382.057 132.006C382.283 131.359 382.607 130.809 383.027 130.356C383.447 129.902 383.953 129.552 384.547 129.306C385.147 129.059 385.82 128.936 386.567 128.936ZM386.567 137.976C387.567 137.976 388.313 137.642 388.807 136.976C389.3 136.302 389.547 135.366 389.547 134.166C389.547 132.959 389.3 132.019 388.807 131.346C388.313 130.672 387.567 130.336 386.567 130.336C386.06 130.336 385.617 130.422 385.237 130.596C384.863 130.769 384.55 131.019 384.297 131.346C384.05 131.672 383.863 132.076 383.737 132.556C383.617 133.029 383.557 133.566 383.557 134.166C383.557 135.366 383.803 136.302 384.297 136.976C384.797 137.642 385.553 137.976 386.567 137.976ZM395.524 130.566C395.744 130.319 395.978 130.096 396.224 129.896C396.471 129.696 396.731 129.526 397.004 129.386C397.284 129.239 397.578 129.129 397.884 129.056C398.198 128.976 398.534 128.936 398.894 128.936C399.448 128.936 399.934 129.029 400.354 129.216C400.781 129.396 401.134 129.656 401.414 129.996C401.701 130.329 401.918 130.732 402.064 131.206C402.211 131.679 402.284 132.202 402.284 132.776V139.226H400.494V132.776C400.494 132.009 400.318 131.416 399.964 130.996C399.618 130.569 399.088 130.356 398.374 130.356C397.848 130.356 397.354 130.482 396.894 130.736C396.441 130.989 396.021 131.332 395.634 131.766V139.226H393.844V129.096H394.914C395.168 129.096 395.324 129.219 395.384 129.466L395.524 130.566Z" fill="white"/>
<path d="M210.024 91.7158H221.797V111.863H210.024V91.7158Z" fill="#C0392B"/>
<path d="M190.401 91.8203L155.081 121.936V128.021V146.073V152.157H159.006H190.401H221.797H225.721V146.073V128.021V121.936L190.401 91.8203Z" fill="#F7FF93"/>
<path d="M190.401 93.7304L155.081 123.616V129.996V130.331L190.401 100.11L225.721 130.331V129.996V123.616L190.401 93.7304Z" fill="#FFB300"/>
<path d="M190.401 85L146 122.944L151.551 127.645L190.401 94.4018L229.25 127.645L234.803 122.944L190.401 85Z" fill="#E74C3C"/>
<path d="M198.25 115.221C198.25 117.002 197.423 118.71 195.951 119.97C194.479 121.229 192.483 121.937 190.401 121.937C188.32 121.937 186.323 121.229 184.851 119.97C183.379 118.71 182.552 117.002 182.552 115.221C182.552 113.44 183.379 111.732 184.851 110.472C186.323 109.213 188.32 108.505 190.401 108.505C192.483 108.505 194.479 109.213 195.951 110.472C197.423 111.732 198.25 113.44 198.25 115.221V115.221Z" fill="#3498DB"/>
<path d="M182.552 132.01H198.25V152.157H182.552V132.01Z" fill="#E67E22"/>
<path d="M196.288 143.763C196.288 144.208 196.081 144.635 195.713 144.95C195.345 145.265 194.846 145.442 194.326 145.442C193.805 145.442 193.306 145.265 192.938 144.95C192.57 144.635 192.364 144.208 192.364 143.763C192.364 143.318 192.57 142.89 192.938 142.576C193.306 142.261 193.805 142.084 194.326 142.084C194.846 142.084 195.345 142.261 195.713 142.576C196.081 142.89 196.288 143.318 196.288 143.763Z" fill="#D35400"/>
<path d="M190.401 108.505C186.065 108.505 182.552 111.527 182.552 115.221C182.552 115.557 182.635 116.228 182.796 116.9C183.667 113.878 186.744 111.863 190.401 111.863C194.059 111.863 197.136 113.878 198.007 116.9C198.168 116.228 198.25 115.557 198.25 115.221C198.25 111.527 194.738 108.505 190.401 108.505Z" fill="#2980B9"/>
<path d="M196.288 142.084C196.288 142.529 196.081 142.956 195.713 143.271C195.345 143.586 194.846 143.763 194.326 143.763C193.805 143.763 193.306 143.586 192.938 143.271C192.57 142.956 192.364 142.529 192.364 142.084C192.364 141.639 192.57 141.212 192.938 140.897C193.306 140.582 193.805 140.405 194.326 140.405C194.846 140.405 195.345 140.582 195.713 140.897C196.081 141.212 196.288 141.639 196.288 142.084Z" fill="#F1C40F"/>
<path d="M182.552 128.652H198.25V132.01H182.552V128.652Z" fill="#D35400"/>
<path d="M474.952 228.002V242.332H473.252V231.802C473.252 231.662 473.255 231.512 473.262 231.352C473.275 231.192 473.289 231.029 473.302 230.862L468.382 239.822C468.229 240.122 467.995 240.272 467.682 240.272H467.402C467.089 240.272 466.855 240.122 466.702 239.822L461.682 230.822C461.722 231.176 461.742 231.502 461.742 231.802V242.332H460.042V228.002H461.472C461.645 228.002 461.779 228.019 461.872 228.052C461.965 228.086 462.055 228.179 462.142 228.332L467.092 237.152C467.172 237.312 467.249 237.479 467.322 237.652C467.402 237.826 467.475 238.002 467.542 238.182C467.609 238.002 467.679 237.826 467.752 237.652C467.825 237.472 467.905 237.302 467.992 237.142L472.852 228.332C472.932 228.179 473.019 228.086 473.112 228.052C473.212 228.019 473.349 228.002 473.522 228.002H474.952ZM484.864 236.162C484.864 235.749 484.804 235.372 484.684 235.032C484.57 234.686 484.4 234.389 484.174 234.142C483.954 233.889 483.684 233.696 483.364 233.562C483.044 233.422 482.68 233.352 482.274 233.352C481.42 233.352 480.744 233.602 480.244 234.102C479.75 234.596 479.444 235.282 479.324 236.162H484.864ZM486.304 240.912C486.084 241.179 485.82 241.412 485.514 241.612C485.207 241.806 484.877 241.966 484.524 242.092C484.177 242.219 483.817 242.312 483.444 242.372C483.07 242.439 482.7 242.472 482.334 242.472C481.634 242.472 480.987 242.356 480.394 242.122C479.807 241.882 479.297 241.536 478.864 241.082C478.437 240.622 478.104 240.056 477.864 239.382C477.624 238.709 477.504 237.936 477.504 237.062C477.504 236.356 477.61 235.696 477.824 235.082C478.044 234.469 478.357 233.939 478.764 233.492C479.17 233.039 479.667 232.686 480.254 232.432C480.84 232.172 481.5 232.042 482.234 232.042C482.84 232.042 483.4 232.146 483.914 232.352C484.434 232.552 484.88 232.846 485.254 233.232C485.634 233.612 485.93 234.086 486.144 234.652C486.357 235.212 486.464 235.852 486.464 236.572C486.464 236.852 486.434 237.039 486.374 237.132C486.314 237.226 486.2 237.272 486.034 237.272H479.264C479.284 237.912 479.37 238.469 479.524 238.942C479.684 239.416 479.904 239.812 480.184 240.132C480.464 240.446 480.797 240.682 481.184 240.842C481.57 240.996 482.004 241.072 482.484 241.072C482.93 241.072 483.314 241.022 483.634 240.922C483.96 240.816 484.24 240.702 484.474 240.582C484.707 240.462 484.9 240.352 485.054 240.252C485.214 240.146 485.35 240.092 485.464 240.092C485.61 240.092 485.724 240.149 485.804 240.262L486.304 240.912ZM494.34 237.772C493.52 237.799 492.82 237.866 492.24 237.972C491.667 238.072 491.197 238.206 490.83 238.372C490.47 238.539 490.207 238.736 490.04 238.962C489.88 239.189 489.8 239.442 489.8 239.722C489.8 239.989 489.843 240.219 489.93 240.412C490.017 240.606 490.133 240.766 490.28 240.892C490.433 241.012 490.61 241.102 490.81 241.162C491.017 241.216 491.237 241.242 491.47 241.242C491.783 241.242 492.07 241.212 492.33 241.152C492.59 241.086 492.833 240.992 493.06 240.872C493.293 240.752 493.513 240.609 493.72 240.442C493.933 240.276 494.14 240.086 494.34 239.872V237.772ZM488.59 233.632C489.15 233.092 489.753 232.689 490.4 232.422C491.047 232.156 491.763 232.022 492.55 232.022C493.117 232.022 493.62 232.116 494.06 232.302C494.5 232.489 494.87 232.749 495.17 233.082C495.47 233.416 495.697 233.819 495.85 234.292C496.003 234.766 496.08 235.286 496.08 235.852V242.332H495.29C495.117 242.332 494.983 242.306 494.89 242.252C494.797 242.192 494.723 242.079 494.67 241.912L494.47 240.952C494.203 241.199 493.943 241.419 493.69 241.612C493.437 241.799 493.17 241.959 492.89 242.092C492.61 242.219 492.31 242.316 491.99 242.382C491.677 242.456 491.327 242.492 490.94 242.492C490.547 242.492 490.177 242.439 489.83 242.332C489.483 242.219 489.18 242.052 488.92 241.832C488.667 241.612 488.463 241.336 488.31 241.002C488.163 240.662 488.09 240.262 488.09 239.802C488.09 239.402 488.2 239.019 488.42 238.652C488.64 238.279 488.997 237.949 489.49 237.662C489.983 237.376 490.627 237.142 491.42 236.962C492.213 236.776 493.187 236.669 494.34 236.642V235.852C494.34 235.066 494.17 234.472 493.83 234.072C493.49 233.666 492.993 233.462 492.34 233.462C491.9 233.462 491.53 233.519 491.23 233.632C490.937 233.739 490.68 233.862 490.46 234.002C490.247 234.136 490.06 234.259 489.9 234.372C489.747 234.479 489.593 234.532 489.44 234.532C489.32 234.532 489.217 234.502 489.13 234.442C489.043 234.376 488.97 234.296 488.91 234.202L488.59 233.632ZM500.832 227.602V242.332H499.052V227.602H500.832ZM509.818 233.872C509.738 234.019 509.615 234.092 509.448 234.092C509.348 234.092 509.235 234.056 509.108 233.982C508.981 233.909 508.825 233.829 508.638 233.742C508.458 233.649 508.241 233.566 507.988 233.492C507.735 233.412 507.435 233.372 507.088 233.372C506.788 233.372 506.518 233.412 506.278 233.492C506.038 233.566 505.831 233.669 505.658 233.802C505.491 233.936 505.361 234.092 505.268 234.272C505.181 234.446 505.138 234.636 505.138 234.842C505.138 235.102 505.211 235.319 505.358 235.492C505.511 235.666 505.711 235.816 505.958 235.942C506.205 236.069 506.485 236.182 506.798 236.282C507.111 236.376 507.431 236.479 507.758 236.592C508.091 236.699 508.415 236.819 508.728 236.952C509.041 237.086 509.321 237.252 509.568 237.452C509.815 237.652 510.011 237.899 510.158 238.192C510.311 238.479 510.388 238.826 510.388 239.232C510.388 239.699 510.305 240.132 510.138 240.532C509.971 240.926 509.725 241.269 509.398 241.562C509.071 241.849 508.671 242.076 508.198 242.242C507.725 242.409 507.178 242.492 506.558 242.492C505.851 242.492 505.211 242.379 504.638 242.152C504.065 241.919 503.578 241.622 503.178 241.262L503.598 240.582C503.651 240.496 503.715 240.429 503.788 240.382C503.861 240.336 503.955 240.312 504.068 240.312C504.188 240.312 504.315 240.359 504.448 240.452C504.581 240.546 504.741 240.649 504.928 240.762C505.121 240.876 505.355 240.979 505.628 241.072C505.901 241.166 506.241 241.212 506.648 241.212C506.995 241.212 507.298 241.169 507.558 241.082C507.818 240.989 508.035 240.866 508.208 240.712C508.381 240.559 508.508 240.382 508.588 240.182C508.675 239.982 508.718 239.769 508.718 239.542C508.718 239.262 508.641 239.032 508.488 238.852C508.341 238.666 508.145 238.509 507.898 238.382C507.651 238.249 507.368 238.136 507.048 238.042C506.735 237.942 506.411 237.839 506.078 237.732C505.751 237.626 505.428 237.506 505.108 237.372C504.795 237.232 504.515 237.059 504.268 236.852C504.021 236.646 503.821 236.392 503.668 236.092C503.521 235.786 503.448 235.416 503.448 234.982C503.448 234.596 503.528 234.226 503.688 233.872C503.848 233.512 504.081 233.199 504.388 232.932C504.695 232.659 505.071 232.442 505.518 232.282C505.965 232.122 506.475 232.042 507.048 232.042C507.715 232.042 508.311 232.149 508.838 232.362C509.371 232.569 509.831 232.856 510.218 233.222L509.818 233.872Z" fill="white"/>
<path d="M422.492 222.528C422.514 222.161 422.468 221.794 422.357 221.449C422.245 221.103 422.07 220.786 421.844 220.518C421.617 220.25 421.343 220.037 421.038 219.89C420.734 219.744 420.405 219.669 420.074 219.669H355.551C355.199 219.668 354.85 219.748 354.528 219.904C354.205 220.06 353.915 220.288 353.676 220.573C353.437 220.859 353.255 221.197 353.14 221.565C353.025 221.933 352.98 222.323 353.008 222.711C354.114 236.597 362.727 248.381 374.684 253.718V261.549C374.705 262.197 374.956 262.809 375.383 263.252C375.811 263.696 376.379 263.934 376.965 263.916H398.532C399.118 263.934 399.686 263.696 400.113 263.252C400.541 262.809 400.792 262.197 400.813 261.549V254.638C413.348 249.816 421.555 237.354 422.492 222.528V222.528Z" fill="#E74C3C"/>
<path d="M420.574 202.541H363.786" stroke="#A52A2A" stroke-width="2.89051" stroke-linecap="round" stroke-linejoin="round"/>
<path d="M420.574 191.122H363.786" stroke="#A52A2A" stroke-width="2.89051" stroke-linecap="round" stroke-linejoin="round"/>
<path d="M385.525 188L385.728 219.669" stroke="black" stroke-width="2.66057" stroke-linecap="round" stroke-linejoin="round"/>
<path d="M377.781 188L377.984 219.669" stroke="black" stroke-width="2.66057" stroke-linecap="round" stroke-linejoin="round"/>
<path d="M368.747 188L368.949 219.669" stroke="black" stroke-width="2.66057" stroke-linecap="round" stroke-linejoin="round"/>
<path d="M422.492 222.528C422.514 222.161 422.468 221.794 422.357 221.449C422.245 221.103 422.07 220.786 421.844 220.518C421.617 220.25 421.343 220.037 421.038 219.89C420.734 219.744 420.405 219.669 420.074 219.669H355.551C355.199 219.668 354.85 219.748 354.528 219.904C354.205 220.06 353.915 220.288 353.676 220.573C353.437 220.859 353.255 221.197 353.14 221.565C353.025 221.933 352.98 222.323 353.008 222.711C354.114 236.597 362.727 248.381 374.684 253.718V261.549C374.705 262.197 374.956 262.809 375.383 263.252C375.811 263.696 376.379 263.934 376.965 263.916H398.532C399.118 263.934 399.686 263.696 400.113 263.252C400.541 262.809 400.792 262.197 400.813 261.549V254.638C413.348 249.816 421.555 237.354 422.492 222.528V222.528Z" stroke="black" stroke-width="2.89051" stroke-linecap="round" stroke-linejoin="round"/>
<path d="M385.525 188L385.728 219.669" stroke="#F1B31C" stroke-width="2.66057" stroke-linecap="round" stroke-linejoin="round"/>
<path d="M377.781 188L377.984 219.669" stroke="#F1B31C" stroke-width="2.66057" stroke-linecap="round" stroke-linejoin="round"/>
<path d="M368.747 188L368.949 219.669" stroke="#F1B31C" stroke-width="2.66057" stroke-linecap="round" stroke-linejoin="round"/>
</svg>
